<ttFont>
          <CharString index="0">
            -103 callgsubr
            114 -79 callsubr
            return
          </CharString>
          <CharString index="1">
            -103 callsubr
            167 -105 callgsubr
            return
          </CharString>
          <CharString index="2">
            -106 callsubr
            endchar
          </CharString>
          <CharString index="3">
            11 16 1 6 15 vhcurveto
            -11 18 -4 51 36 return
          </CharString>
          <CharString index="4">
            -107 callgsubr
            -37 28 vhcurveto
            return
          </CharString>
          <CharString index="5">
            -72 callgsubr
            -90 0 -36 vhcurveto
            return
          </CharString>
          <CharString index="6">
            552 -100 callsubr
            return
          </CharString>
          <CharString index="7">
            -97 callgsubr
            14 116 vvcurveto
            39 -12 33 -18 26 vhcurveto
            return
          </CharString>
          <CharString index="8">
            -104 callgsubr
            264 -94 callsubr
            return
          </CharString>
          <CharString index="9">
            297 callgsubr
            -39 vhcurveto
            -47 -30 -43 -39 -52 hhcurveto
            -34 -30 26 37 50 39 37 51 10 hvcurveto
            2 10 10 1 11 hhcurveto
            1 5 0 4 2 vvcurveto
            47 -36 43 -57 return
          </CharString>
          <CharString index="10">
            hlineto
            -98 callsubr
            return
          </CharString>
          <CharString index="11">
            -75 -54 -52 -69 -81 54 -42 56 9 18 3 9 12 hvcurveto
            -15 13 -11 31 30 vvcurveto
            35 15 32 38 32 16 -31 -34 -115 -108 -91 -128 -77 -77 35 69 -40 vhcurveto
            100 7 53 63 80 vvcurveto
            66 -32 59 -39 43 vhcurveto
            return
          </CharString>
          <CharString index="12">
            107 callsubr
            18 vhcurveto
            return
          </CharString>
          <CharString index="13">
            -47 callgsubr
            47 29 41 42 52 hhcurveto
            return
          </CharString>
          <CharString index="14">
            hhcurveto
            56 20 39 32 17 -4 18 -6 13 hvcurveto
            -3 -10 -12 -1 -10 hhcurveto
            -80 -36 50 61 -23 hvcurveto
            return
          </CharString>
          <CharString index="15">
            -104 callgsubr
            -64 callsubr
            return
          </CharString>
          <CharString index="16">
            hhcurveto
            -82 callsubr
            return
          </CharString>
          <CharString index="17">
            -116 106 -107 110 43 26 12 19 21 vhcurveto
            -85 callsubr
            return
          </CharString>
          <CharString index="18">
            -92 callsubr
            30 37 return
          </CharString>
          <CharString index="19">
            -60 callsubr
            -59 50 -48 62 -23 hvcurveto
            32 callsubr
            return
          </CharString>
          <CharString index="20">
            -89 callsubr
            rrcurveto
            return
          </CharString>
          <CharString index="21">
            -101 callgsubr
            -82 callgsubr
            return
          </CharString>
          <CharString index="22">
            -5 -17 -2 -17 -18 vvcurveto
            -54 24 -53 73 -34 callgsubr
            return
          </CharString>
          <CharString index="23">
            -9 callsubr
            -13 4 -14 1 -37 279 callsubr
            -30 -43 vvcurveto
            -95 119 -117 125 170 callsubr
            vhcurveto
            -9 callgsubr
            return
          </CharString>
          <CharString index="24">
            435 418 rmoveto
            -88 callsubr
            return
          </CharString>
          <CharString index="25">
            -44 -42 -18 -31 -32 hvcurveto
            36 -42 -53 98 callgsubr
            18 -4 18 vhcurveto
            return
          </CharString>
          <CharString index="26">
            117 -101 callgsubr
            return
          </CharString>
          <CharString index="27">
            -31 -20 -22 -29 -37 34 -34 37 31 20 23 28 37 -36 34 -35 hvcurveto
            return
          </CharString>
          <CharString index="28">
            109 vvcurveto
            37 return
          </CharString>
          <CharString index="29">
            hhcurveto
            40 20 30 67 10 hvcurveto
            173 hlineto
            -2 -47 -1 -37 -39 -99 callgsubr
          </CharString>
          <CharString index="30">
            rmoveto
            322 callsubr
            130 127 vlineto
            50 40 0 -12 36 hvcurveto
            19 15 13 22 317 callgsubr
            21 254 callgsubr
            150 223 hlineto
            50 41 -5 -14 35 hvcurveto
            19 16 13 21 317 callgsubr
            29 -108 vhcurveto
            -334 hlineto
            125 callsubr
            -444 vlineto
            -125 61 -54 132 vhcurveto
            217 hlineto
            89 39 42 53 29 -13 28 -19 16 hvcurveto
            -26 -36 -40 -14 -50 hhcurveto
            endchar
          </CharString>
          <CharString index="31">
            -48 callgsubr
            66 return
          </CharString>
          <CharString index="32">
            -103 callsubr
            165 -102 callgsubr
          </CharString>
          <CharString index="33">
            159 hlineto
            -1 -83 -3 -51 -56 vvcurveto
            -43 2 -109 104 -70 callgsubr
          </CharString>
          <CharString index="34">
            hhcurveto
            -96 callsubr
            -314 117 rmoveto
            -76 callgsubr
            return
          </CharString>
          <CharString index="35">
            rmoveto
            87 290 92 -290 rlineto
            16 386 rmoveto
            80 -30 -19 44 -73 hhcurveto
            -44 -34 -20 -28 -18 hvcurveto
            18 -13 12 -15 9 -26 -205 -529 rcurveline
            -18 -45 -12 -20 -24 -10 rrcurveto
            -30 12 44 -21 42 hhcurveto
            42 36 24 74 22 hvcurveto
            16 53 rlineto
            238 hlineto
            17 -54 rlineto
            -76 24 33 -21 54 hhcurveto
            50 40 23 34 16 hvcurveto
            -31 15 -21 30 -17 47 rrcurveto
            endchar
          </CharString>
          <CharString index="36">
            3 6 4 return
          </CharString>
          <CharString index="37">
            -78 -98 callgsubr
            return
          </CharString>
          <CharString index="38">
            -87 callsubr
            -25 38 return
          </CharString>
          <CharString index="39">
            1 4 -59 callgsubr
            return
          </CharString>
          <CharString index="40">
            -65 callsubr
            14 return
          </CharString>
          <CharString index="41">
            -45 callgsubr
            59 vhcurveto
            27 40 37 34 47 7 311 callsubr
            94 callsubr
            return
          </CharString>
          <CharString index="42">
            47 callgsubr
            hhcurveto
            return
          </CharString>
          <CharString index="43">
            32 callgsubr
            56 2 47 23 return
          </CharString>
          <CharString index="44">
            -3 -6 -2 -13 -8 vvcurveto
            -70 55 -16 41 -3 vhcurveto
            -1 -1 rlineto
            15 -23 2 -45 -36 vvcurveto
            -29 0 -25 -1 -22 vhcurveto
            -15 -20 -30 -13 -37 hhcurveto
            -34 -27 10 14 -23 hvcurveto
            22 22 20 33 49 34 callsubr
            -23 -17 -31 -39 -24 hvcurveto
            8 -18 -21 6 -25 hhcurveto
            -40 -36 -22 -40 -59 64 -24 48 25 25 4 8 21 hvcurveto
            8 -4 22 -22 -34 vvcurveto
            -54 -44 -28 -49 -98 -71 86 77 -39 vhcurveto
            -13 -4 -29 -9 -36 vvcurveto
            -56 120 -175 166 108 54 66 77 16 -3 17 -4 16 vhcurveto
            -10 25 29 -6 30 hhcurveto
            8 11 1 3 12 hvcurveto
            -6 -38 -4 -38 -33 vvcurveto
            -82 28 -62 121 callgsubr
            -3 56 -38 28 vhcurveto
            return
          </CharString>
          <CharString index="45">
            -28 -27 -18 -38 -48 vvcurveto
            -135 135 -113 152 191 callgsubr
            vhcurveto
            246 callsubr
            -89 -93 47 85 70 66 42 56 34 18 -17 -22 -28 -28 -25 -49 -7 hvcurveto
            -51 7 44 -25 42 hhcurveto
            51 41 38 55 79 -91 99 -122 -28 -28 -5 -10 -25 hvcurveto
            -6 12 -3 11 12 vvcurveto
            26 16 22 49 vhcurveto
            30 28 -1 31 hhcurveto
            74 35 16 callsubr
          </CharString>
          <CharString index="46">
            58 hlineto
            -56 callsubr
            return
          </CharString>
          <CharString index="47">
            -54 callgsubr
            -37 -23 -29 -31 return
          </CharString>
          <CharString index="48">
            136 callsubr
            22 vhcurveto
            316 callgsubr
            return
          </CharString>
          <CharString index="49">
            36 36 7 19 hhcurveto
            22 13 -12 -18 -35 -67 -26 232 callsubr
            -57 39 -45 62 -29 hvcurveto
            -98 31 57 -128 114 hhcurveto
            47 40 30 45 26 -12 24 -19 16 hvcurveto
            -16 -19 -24 -5 -18 hhcurveto
            -53 -39 39 43 -28 hvcurveto
            -5 27 29 -3 30 hhcurveto
            101 71 55 88 return
          </CharString>
          <CharString index="50">
            -49 callgsubr
            2 return
          </CharString>
          <CharString index="51">
            -27 callsubr
            213 callsubr
            40 20 30 67 10 vhcurveto
            return
          </CharString>
          <CharString index="52">
            48 40 24 40 36 22 -13 -5 8 hvcurveto
            10 13 5 21 16 vvcurveto
            return
          </CharString>
          <CharString index="53">
            -65 -98 callgsubr
            return
          </CharString>
          <CharString index="54">
            rmoveto
            -54 -32 -35 -41 -14 3 -13 8 -14 hvcurveto
            8 22 22 4 20 hhcurveto
            89 69 -68 -66 49 hvcurveto
            20 6 3 13 11 vvcurveto
            58 -114 151 -105 vhcurveto
            return
          </CharString>
          <CharString index="55">
            28 -53 callgsubr
          </CharString>
          <CharString index="56">
            1 3 -15 hvcurveto
            3 14 2 15 22 callsubr
            return
          </CharString>
          <CharString index="57">
            241 callgsubr
            123 -125 132 return
          </CharString>
          <CharString index="58">
            -79 callgsubr
            -48 -35 -35 -47 -12 hvcurveto
            -3 -12 return
          </CharString>
          <CharString index="59">
            rmoveto
            -106 callgsubr
            return
          </CharString>
          <CharString index="60">
            234 callsubr
            191 212 callgsubr
            -50 4 -62 3 -55 2 rrcurveto
            return
          </CharString>
          <CharString index="61">
            68 callgsubr
            72 -8 41 -1 vhcurveto
            0 vlineto
            return
          </CharString>
          <CharString index="62">
            rmoveto
            -124 -52 127 153 -9 hvcurveto
            154 -9 36 126 123 hhcurveto
            126 52 -126 -154 8 hvcurveto
            -153 10 -36 -127 -125 hhcurveto
            314 280 rmoveto
            210 -90 168 -241 -233 -98 -168 -210 -210 98 -169 233 240 91 169 210 vhcurveto
            return
          </CharString>
          <CharString index="63">
            hhcurveto
            56 31 38 40 32 -19 27 -24 13 hvcurveto
            -12 -7 -20 -15 -29 hhcurveto
            -32 -25 17 21 -19 hvcurveto
            32 21 21 31 44 vvcurveto
            51 -35 46 -46 -42 -35 -30 -46 -11 2 -12 4 -11 vhcurveto
            -9 -25 -30 -4 -31 hhcurveto
            -52 -77 14 60 hvcurveto
            124 334 -53 134 45 callsubr
          </CharString>
          <CharString index="64">
            rmoveto
            -62 -136 -85 -70 -31 19 -30 39 -14 hvcurveto
            75 72 68 43 26 hhcurveto
            42 119 -114 0 hvcurveto
            22 9 12 16 19 vvcurveto
            56 -152 126 -69 vhcurveto
            return
          </CharString>
          <CharString index="65">
            -3 -6 -2 -13 -8 vvcurveto
            -29 11 -21 21 -21 vhcurveto
            30 -28 7 return
          </CharString>
          <CharString index="66">
            -76 callgsubr
            34 -40 46 -22 hvcurveto
            115 callgsubr
            return
          </CharString>
          <CharString index="67">
            -12 callsubr
            48 -15 -21 37 -44 hhcurveto
            return
          </CharString>
          <CharString index="68">
            32 callsubr
            -77 callgsubr
            return
          </CharString>
          <CharString index="69">
            7 -12 10 -45 -60 vvcurveto
            -95 -15 -67 -54 -41 -15 33 45 -6 vhcurveto
            -3 24 0 28 28 vvcurveto
            37 -2 56 -37 28 vhcurveto
            return
          </CharString>
          <CharString index="70">
            rmoveto
            57 hlineto
            93 51 -42 -76 -75 -51 -42 -93 hvcurveto
            -57 hlineto
            182 -96 rmoveto
            101 30 79 71 112 vvcurveto
            154 -147 76 -149 vhcurveto
            -166 hlineto
            312 callsubr
            -515 vlineto
            -59 callsubr
            174 57 vlineto
            79 -145 rlineto
            -100 54 40 -43 67 hhcurveto
            64 39 45 72 hvcurveto
            -45 -34 30 71 -62 hvcurveto
            return
          </CharString>
          <CharString index="71">
            vvcurveto
            39 -12 33 -18 26 vhcurveto
            return
          </CharString>
          <CharString index="72">
            552 -37 callgsubr
            return
          </CharString>
          <CharString index="73">
            55 55 7 30 hhcurveto
            26 11 -11 -15 -35 -60 -26 -82 -96 -87 36 56 -52 hvcurveto
            -11 -4 -16 -8 -23 vvcurveto
            return
          </CharString>
          <CharString index="74">
            vvcurveto
            -107 106 -101 137 -4 vhcurveto
            -71 -29 -90 -29 -78 -8 rrcurveto
            -64 1 49 -32 52 hhcurveto
            68 112 58 75 72 hvcurveto
            12 -15 5 -19 -15 vvcurveto
            -29 -18 -27 -36 -8 vhcurveto
            -35 16 35 -19 36 hhcurveto
            51 33 38 50 55 -42 47 -51 29 hvcurveto
            17 28 10 28 28 vvcurveto
            47 -29 47 -52 -42 -33 -31 -46 -16 4 -15 7 -14 vhcurveto
            -3 -12 -12 -1 -15 hhcurveto
            -59 -59 28 63 hvcurveto
            128 262 -25 125 -10 callgsubr
          </CharString>
          <CharString index="75">
            -57 callsubr
            -27 2 -32 -35 -154 -5 -75 -84 vvcurveto
            -43 2 -109 104 -104 callsubr
            134 5 97 118 vvcurveto
            return
          </CharString>
          <CharString index="76">
            71 -4 -31 33 -64 hhcurveto
            -40 -30 -18 -25 -22 hvcurveto
            23 -12 11 -23 -35 vvcurveto
            -313 1 callgsubr
            return
          </CharString>
          <CharString index="77">
            552 -10 callsubr
            return
          </CharString>
          <CharString index="78">
            23 callgsubr
            -39 0 -34 -30 vvcurveto
            -46 -23 -50 -40 -43 3 callsubr
            return
          </CharString>
          <CharString index="79">
            15 callsubr
            57 2 return
          </CharString>
          <CharString index="80">
            -23 callsubr
            -39 -3 -47 -13 -54 vvcurveto
            return
          </CharString>
          <CharString index="81">
            rmoveto
            -36 -26 35 102 -6 hvcurveto
            102 -6 24 34 36 hhcurveto
            36 25 -34 -102 6 hvcurveto
            -102 6 -23 -35 -36 hhcurveto
            124 -272 rmoveto
            19 7 -10 -12 -32 -51 -24 -111 -108 -48 24 68 -2 hvcurveto
            -49 -48 -28 -54 -54 50 -68 179 185 111 84 117 81 -43 54 -103 hvcurveto
            -137 hlineto
            -55 -25 6 33 15 10 10 14 6 hvcurveto
            -7 23 25 -4 26 hhcurveto
            120 102 78 126 50 -16 42 -26 32 hvcurveto
            27 8 21 15 23 hhcurveto
            16 18 -6 -11 15 hvcurveto
            19 11 13 29 30 vvcurveto
            39 -29 41 -52 -53 -43 -45 -87 -5 vhcurveto
            23 -37 -45 13 -49 hhcurveto
            -120 -103 -77 -126 -73 34 -57 53 -35 hvcurveto
            -48 -24 -34 -33 -56 vvcurveto
            -94 97 -37 93 vhcurveto
            endchar
          </CharString>
          <CharString index="82">
            -98 callgsubr
            -29 callgsubr
            return
          </CharString>
          <CharString index="83">
            -101 callsubr
            -307 268 callsubr
            -52 -48 -30 -44 -29 vhcurveto
            -65 -100 8 -150 -141 hhcurveto
            -40 -33 25 35 25 12 18 17 11 hvcurveto
            -3 13 14 243 callsubr
            return
          </CharString>
          <CharString index="84">
            20 callgsubr
            -14 -1 -15 vhcurveto
            return
          </CharString>
          <CharString index="85">
            rmoveto
            127 callgsubr
            75 72 68 43 26 hhcurveto
            42 119 -114 0 hvcurveto
            -170 47 -53 callsubr
            return
          </CharString>
          <CharString index="86">
            -80 30 -39 69 41 28 18 25 22 264 callsubr
            return
          </CharString>
          <CharString index="87">
            114 callsubr
            -440 415 -101 callgsubr
            178 callsubr
            2 -183 vvcurveto
            -116 137 -112 122 113 101 67 120 79 -57 88 -107 6 vhcurveto
            28 20 20 24 34 vvcurveto
            32 -20 25 -23 121 callsubr
          </CharString>
          <CharString index="88">
            -62 callgsubr
            -80 callgsubr
            return
          </CharString>
          <CharString index="89">
            vvcurveto
            29 -7 31 -22 18 vhcurveto
            return
          </CharString>
          <CharString index="90">
            24 callsubr
            vhcurveto
            -111 -213 -21 -76 vvcurveto
            return
          </CharString>
          <CharString index="91">
            -30 -18 -25 -22 vhcurveto
            23 -12 11 -23 return
          </CharString>
          <CharString index="92">
            -31 38 -69 -39 -16 callsubr
            return
          </CharString>
          <CharString index="93">
            37 callgsubr
            -291 117 rmoveto
            7 callgsubr
            return
          </CharString>
          <CharString index="94">
            hhcurveto
            -14 3 callgsubr
            return
          </CharString>
          <CharString index="95">
            -39 vvcurveto
            -53 -29 -51 -63 -2 vhcurveto
            return
          </CharString>
          <CharString index="96">
            -142 -141 -75 -116 -78 -61 37 58 31 17 22 22 14 vhcurveto
            -4 16 17 -3 17 hhcurveto
            42 41 22 41 43 -44 29 -53 return
          </CharString>
          <CharString index="97">
            rmoveto
            17 -17 3 -42 -23 callgsubr
            return
          </CharString>
          <CharString index="98">
            -3 -6 -2 -13 -8 vvcurveto
            -77 67 -11 41 -2 vhcurveto
            0 vlineto
            9 return
          </CharString>
          <CharString index="99">
            669 104 callgsubr
            -62 -1 -49 -1 -40 vhcurveto
            -56 -33 -69 -43 -69 93 callgsubr
            -23 335 callsubr
            8 8 vvcurveto
            62 38 41 62 vhcurveto
            10 -105 callgsubr
            return
          </CharString>
          <CharString index="100">
            vlineto
            -21 callsubr
            return
          </CharString>
          <CharString index="101">
            vvcurveto
            -53 24 -51 83 callgsubr
            -38 -52 callsubr
          </CharString>
          <CharString index="102">
            rmoveto
            237 callsubr
            -39 -38 -7 -18 -29 hvcurveto
            31 -27 -42 25 -52 hhcurveto
            -40 -34 -14 -22 -27 hvcurveto
            2 10 1 11 11 vvcurveto
            30 -7 31 -22 19 vhcurveto
            484 127 callsubr
            -608 112 rmoveto
            -73 callgsubr
            366 257 callgsubr
            -577 vlineto
            -84 callsubr
            58 2 60 1 62 vhcurveto
            47 29 41 42 52 hhcurveto
            14 12 -3 -8 11 hvcurveto
            -10 -21 -5 -25 -30 186 callgsubr
            102 hlineto
            -2 -77 -2 -50 -54 vvcurveto
            -43 2 -109 104 -103 callsubr
            163 -102 callgsubr
          </CharString>
          <CharString index="103">
            10 16 16 5 16 hhcurveto
            65 30 -92 -65 14 hvcurveto
            60 -52 -91 73 -89 hhcurveto
            -52 -47 -30 -56 -46 42 -37 44 hvcurveto
            32 8 31 20 34 hhcurveto
            return
          </CharString>
          <CharString index="104">
            hhcurveto
            -119 -62 -69 -72 -63 46 -52 54 12 14 3 6 9 hvcurveto
            -4 10 -2 12 9 vvcurveto
            64 57 40 75 135 68 -83 -98 33 vhcurveto
            -127 -62 callgsubr
            31 hlineto
            3 -29 1 -29 -25 -165 -5 -76 -83 vvcurveto
            -43 2 -109 104 -104 callsubr
            109 5 123 116 vvcurveto
            return
          </CharString>
          <CharString index="105">
            95 callgsubr
            -39 0 -34 -1 -30 vhcurveto
            -47 -22 -50 -39 -43 3 callsubr
            return
          </CharString>
          <CharString index="106">
            hhcurveto
            -77 -58 -53 -79 -60 40 -64 58 11 11 2 6 9 hvcurveto
            -11 17 -5 19 19 vvcurveto
            42 27 39 49 68 39 -61 -120 17 vhcurveto
            -144 -62 callgsubr
            33 hlineto
            1 -26 1 -28 -29 -165 -5 -76 -83 vvcurveto
            -43 2 -109 104 -104 callsubr
            109 5 123 116 vvcurveto
            return
          </CharString>
          <CharString index="107">
            rmoveto
            383 346 rlineto
            48 46 24 36 53 vvcurveto
            81 -72 51 -90 vhcurveto
            -274 hlineto
            -50 -45 3 11 -38 hvcurveto
            -14 -18 -10 -24 -26 vvcurveto
            -56 40 -44 122 62 109 7 20 107 vhcurveto
            -380 -343 rlineto
            -49 -44 -23 -37 -53 vvcurveto
            -82 72 -50 90 vhcurveto
            284 hlineto
            123 39 44 56 26 -10 30 -15 18 hvcurveto
            -35 -18 -37 -8 -51 -4 rrcurveto
            endchar
          </CharString>
          <CharString index="108">
            -27 -6 9 -10 22 hhcurveto
            14 hlineto
            41 22 -17 -28 -28 -27 -16 -43 -47 -54 19 42 -27 hvcurveto
            -12 -7 -10 -14 -17 vvcurveto
            -47 69 -44 94 112 77 49 63 64 -51 28 -76 vhcurveto
            return
          </CharString>
          <CharString index="109">
            hhcurveto
            -39 -34 17 callsubr
            return
          </CharString>
          <CharString index="110">
            hhcurveto
            -57 -11 36 55 -19 callgsubr
            return
          </CharString>
          <CharString index="111">
            rmoveto
            -16 callgsubr
            vhcurveto
            -107 -7 255 -166 hhcurveto
            -31 -26 -10 -18 -21 hvcurveto
            1 10 1 10 11 vvcurveto
            30 -7 31 -22 19 vhcurveto
            642 hlineto
            13 -22 2 -42 -36 vvcurveto
            -766 100 rmoveto
            264 callgsubr
            -42 -35 115 callsubr
            61 1 62 vhcurveto
            39 27 32 42 41 91 17 -275 188 hhcurveto
            67 50 195 callgsubr
            hvcurveto
            -74 callsubr
          </CharString>
          <CharString index="112">
            552 rmoveto
            -73 callgsubr
            return
          </CharString>
          <CharString index="113">
            -31 38 -68 -40 -16 callsubr
            return
          </CharString>
          <CharString index="114">
            -116 106 -107 110 43 26 12 19 21 vhcurveto
            -84 callgsubr
          </CharString>
          <CharString index="115">
            vvcurveto
            62 -29 59 -37 44 vhcurveto
            return
          </CharString>
          <CharString index="116">
            -20 callgsubr
            91 callgsubr
            return
          </CharString>
          <CharString index="117">
            163 callgsubr
            48 206 callsubr
            16 -20 10 -22 -21 vvcurveto
            return
          </CharString>
          <CharString index="118">
            vhcurveto
            408 -102 callgsubr
          </CharString>
          <CharString index="119">
            hhcurveto
            -57 -30 -39 -40 -41 32 -36 34 -10 hvcurveto
            24 11 26 22 29 hhcurveto
            32 19 -24 -28 -41 -37 -44 -65 -117 -66 139 89 -32 hvcurveto
            -20 -1 -26 -12 -38 vvcurveto
            -71 110 -227 190 return
          </CharString>
          <CharString index="120">
            rmoveto
            237 callsubr
            -46 -43 -10 -25 -31 hvcurveto
            49 -31 -49 33 91 callsubr
            649 127 callsubr
            -372 229 rmoveto
            0 -606 vlineto
            -41 callsubr
            123 82 49 67 45 hvcurveto
            -70 37 52 -55 33 220 callgsubr
            102 hlineto
            -2 -77 -2 -50 -54 vvcurveto
            -43 2 -109 104 -103 callsubr
            163 -102 callgsubr
          </CharString>
          <CharString index="121">
            rmoveto
            82 -32 35 -107 -121 -41 -14 -49 -11 5 -29 13 -19 vhcurveto
            2 42 27 0 25 hhcurveto
            32 -47 hlineto
            -81 -44 -40 -87 -127 -73 103 161 2 vhcurveto
            172 3 74 113 123 hhcurveto
            68 43 -47 -79 -8 hvcurveto
            -15 24 27 -6 24 hhcurveto
            58 54 35 50 83 -116 67 -142 -263 -137 -174 -231 -243 176 -109 144 83 59 30 47 35 hvcurveto
            -54 vlineto
            -80 30 -39 69 40 29 18 25 22 vhcurveto
            316 callgsubr
            endchar
          </CharString>
          <CharString index="122">
            -18 callsubr
            -495 -81 callsubr
            264 -100 callgsubr
            return
          </CharString>
          <CharString index="123">
            41 47 33 -16 37 -32 29 hvcurveto
            182 -102 callgsubr
          </CharString>
          <CharString index="124">
            21 36 52 callsubr
            return
          </CharString>
          <CharString index="125">
            26 13 19 17 12 hvcurveto
            -3 13 13 -1 13 hhcurveto
            41 41 22 38 return
          </CharString>
          <CharString index="126">
            rmoveto
            81 -31 38 -68 -40 -30 -18 -25 -22 vhcurveto
            67 callsubr
            return
          </CharString>
          <CharString index="127">
            39 411 28 callsubr
            -291 117 rmoveto
            9 callsubr
            return
          </CharString>
          <CharString index="128">
            -72 -46 41 60 -30 hvcurveto
            107 3 100 61 147 vvcurveto
            return
          </CharString>
          <CharString index="129">
            15 8 callsubr
            return
          </CharString>
          <CharString index="130">
            54 40 15 21 30 return
          </CharString>
          <CharString index="131">
            77 callgsubr
            -72 -51 -51 -65 -58 36 -55 57 9 8 2 2 4 vhcurveto
            36 callsubr
            return
          </CharString>
          <CharString index="132">
            vvcurveto
            -60 23 -57 72 -107 callgsubr
            return
          </CharString>
          <CharString index="133">
            -4 -19 -3 -21 -21 123 callsubr
          </CharString>
          <CharString index="134">
            -85 callsubr
            58 2 60 1 62 vhcurveto
            30 19 25 26 35 77 42 -206 189 hhcurveto
            23 callsubr
            hvcurveto
            56 callgsubr
            -37 28 vhcurveto
            170 -102 callgsubr
          </CharString>
          <CharString index="135">
            95 callgsubr
            -60 -1 -48 -1 -40 vhcurveto
            -58 -31 -69 -44 -71 -2 callgsubr
            return
          </CharString>
          <CharString index="136">
            -101 callgsubr
            908 hlineto
            13 -22 2 -42 -36 vvcurveto
            -321 hlineto
            17 callgsubr
            -79 63 291 callsubr
            -321 hlineto
            98 callsubr
            130 hlineto
            -97 37 99 -146 133 hhcurveto
            67 50 195 callgsubr
            hvcurveto
            -74 callsubr
          </CharString>
          <CharString index="137">
            rmoveto
            -92 338 rlineto
            77 -20 -32 36 -58 hhcurveto
            -38 -30 -16 -27 -28 hvcurveto
            23 -18 8 -23 13 -42 95 -304 rcurveline
            23 -73 50 -44 55 3 -26 -76 rcurveline
            -38 -13 -29 -18 -29 hhcurveto
            -19 -19 9 13 -16 hvcurveto
            -10 -16 -8 -20 -22 vvcurveto
            -54 46 -36 64 69 53 38 98 36 vhcurveto
            191 517 rlineto
            97 36 -49 52 -66 hhcurveto
            -23 -25 -7 -11 -17 hvcurveto
            15 -24 -1 -29 -14 -41 rrcurveto
            endchar
          </CharString>
          <CharString index="138">
            rmoveto
            -69 callgsubr
            vvcurveto
            -48 0 -40 -1 -35 vhcurveto
            -30 -29 -33 -15 -29 hhcurveto
            -35 -26 26 64 hvcurveto
            18 1 21 22 vvcurveto
            37 0 56 -37 28 vhcurveto
            485 hmoveto
            -106 callgsubr
            -577 hlineto
            137 callsubr
            58 2 60 1 62 vhcurveto
            47 29 41 42 52 hhcurveto
            34 30 -22 -50 hvcurveto
            31 -16 26 21 36 vvcurveto
            54 -60 79 -93 -40 -34 -14 -22 -27 vhcurveto
            2 10 1 12 11 vvcurveto
            30 -8 30 -21 19 vhcurveto
            endchar
          </CharString>
          <CharString index="139">
            -97 36 64 -134 30 callgsubr
            return
          </CharString>
          <CharString index="140">
            -46 callsubr
            34 callgsubr
            return
          </CharString>
          <CharString index="141">
            vvcurveto
            114 -96 91 -114 -57 -69 -26 -59 -25 14 -27 27 -18 vhcurveto
            28 34 56 20 43 hhcurveto
            38 29 -15 -33 return
          </CharString>
          <CharString index="142">
            -3 110 167 rmoveto
            -125 50 -42 132 vhcurveto
            150 hlineto
            84 39 50 53 21 -7 20 -17 12 hvcurveto
            -26 -24 -33 -14 -51 hhcurveto
            -103 hlineto
            322 callsubr
            441 161 callsubr
            return
          </CharString>
          <CharString index="143">
            -7 12 -3 15 16 vvcurveto
            37 23 40 37 30 12 -24 -21 return
          </CharString>
          <CharString index="144">
            -88 callsubr
            21 251 -60 callgsubr
          </CharString>
          <CharString index="145">
            -62 callgsubr
            261 hlineto
            13 -9 5 -11 -11 vvcurveto
            -19 -20 -9 -31 vhcurveto
            -27 -19 1 -20 255 callsubr
            36 36 7 19 hhcurveto
            22 13 -10 -16 -36 -67 -25 232 callsubr
            -56 40 -45 60 -29 hvcurveto
            -98 31 57 -129 115 hhcurveto
            47 40 30 45 26 -12 24 -19 16 hvcurveto
            -16 -19 -24 -5 -18 hhcurveto
            -53 -40 39 43 -27 hvcurveto
            -5 27 29 -3 30 hhcurveto
            101 71 55 88 104 -89 77 -91 hvcurveto
            -28 -36 -9 -27 hhcurveto
            -21 -25 7 24 40 71 0 31 hvcurveto
            19 23 -1 21 hhcurveto
            74 35 40 49 29 -12 32 -25 26 hvcurveto
            171 -105 callgsubr
            return
          </CharString>
          <CharString index="146">
            hlineto
            9 callsubr
            return
          </CharString>
          <CharString index="147">
            rmoveto
            13 -19 2 -34 -31 150 callsubr
            300 -369 rmoveto
            -34 -47 -46 -111 -45 -85 7 49 44 98 19 97 33 vhcurveto
            48 -11 45 -21 -40 vvcurveto
            -264 297 rmoveto
            60 -32 60 -36 48 -31 rrcurveto
            -29 -48 -62 -9 -14 hhcurveto
            -34 -4 31 75 13 -2 10 -4 8 hvcurveto
            -274 189 177 callgsubr
            -56 35 -45 50 -33 vhcurveto
            -54 -21 -45 -35 -57 vvcurveto
            -93 136 -101 156 153 82 72 76 56 -45 60 -84 24 vhcurveto
            56 31 41 42 65 286 callgsubr
            160 -102 callgsubr
          </CharString>
          <CharString index="148">
            rmoveto
            25 31 12 33 27 vvcurveto
            46 -40 33 -62 -33 -26 -10 -14 -28 vhcurveto
            29 -30 4 -42 -35 -45 -112 -145 rcurveline
            -115 189 rlineto
            55 -33 -34 42 -55 hhcurveto
            -46 -36 -22 -58 -19 hvcurveto
            26 -2 18 -12 18 -29 185 -304 rcurveline
            -1 -207 rlineto
            -80 36 -39 55 36 22 6 11 24 vhcurveto
            -11 20 -6 36 29 vvcurveto
            1 225 rlineto
            endchar
          </CharString>
          <CharString index="149">
            -35 -154 -5 -75 -84 vvcurveto
            -43 2 -109 104 -104 callsubr
            134 5 97 118 vvcurveto
            38 -5 32 -8 28 vhcurveto
            141 -105 callgsubr
            -61 hlineto
            -5 16 -2 return
          </CharString>
          <CharString index="150">
            vvcurveto
            -64 64 -45 96 96 67 46 45 10 -3 10 -6 8 vhcurveto
            -24 -33 -34 -7 -29 hhcurveto
            -25 -30 9 33 return
          </CharString>
          <CharString index="151">
            -101 callgsubr
            445 hlineto
            13 -20 2 -36 -34 vvcurveto
            -321 hlineto
            -3 -6 -2 -13 -8 vvcurveto
            -65 48 -17 78 callsubr
            161 hlineto
            -38 -1 -34 -1 -30 vhcurveto
            -62 -49 -149 -94 -109 -23 rrcurveto
            -48 3 41 -41 63 hhcurveto
            39 91 40 108 99 265 callgsubr
            -15 vvcurveto
            -49 31 -42 64 -70 callgsubr
          </CharString>
          <CharString index="152">
            vvcurveto
            26 -16 24 -19 16 vhcurveto
            213 -102 callgsubr
          </CharString>
          <CharString index="153">
            hhcurveto
            134 callsubr
            return
          </CharString>
          <CharString index="154">
            -40 callsubr
            -43 -20 -37 -33 148 callgsubr
            hvcurveto
            -90 callgsubr
            return
          </CharString>
          <CharString index="155">
            -26 0 -51 -42 vvcurveto
            -14 0 -15 -1 -14 vhcurveto
            -2 -62 -57 -15 -71 hhcurveto
            -10 -10 1 1 -11 hvcurveto
            35 30 26 38 56 183 callgsubr
            -55 49 -48 vhcurveto
            -61 -36 -54 -44 140 callsubr
            57 32 62 35 hvcurveto
            -30 64 74 -19 78 hhcurveto
            316 callsubr
            -50 24 53 -49 51 hhcurveto
            40 20 30 67 10 hvcurveto
            return
          </CharString>
          <CharString index="156">
            -7 -96 131 -91 hhcurveto
            -36 -27 -14 -21 -17 hvcurveto
            35 323 callgsubr
            -340 129 callsubr
            203 hlineto
            -49 24 52 -48 51 hhcurveto
            305 callgsubr
            hvcurveto
            return
          </CharString>
          <CharString index="157">
            rmoveto
            12 -19 3 -33 -32 150 callsubr
            42 -103 rmoveto
            13 -2 10 -4 8 vhcurveto
            60 -32 60 -36 48 -31 rrcurveto
            -29 -48 -62 -9 -14 hhcurveto
            -34 -4 30 76 hvcurveto
            -280 220 rmoveto
            -3 -6 -2 -13 -8 vvcurveto
            -90 90 0 36 vhcurveto
            13 hlineto
            8 -10 4 -18 2 -32 rrcurveto
            1 -13 0 -15 -18 133 callsubr
            hvcurveto
            86 380 -10 196 286 callgsubr
            160 -102 callgsubr
          </CharString>
          <CharString index="158">
            -4 callsubr
            51 60 -49 -42 43 hvcurveto
            return
          </CharString>
          <CharString index="159">
            46 callgsubr
            -26 return
          </CharString>
          <CharString index="160">
            hlineto
            29 callgsubr
            -93 -155 -21 -62 28 callgsubr
          </CharString>
          <CharString index="161">
            rmoveto
            109 callsubr
            return
          </CharString>
          <CharString index="162">
            552 rmoveto
            146 callgsubr
            -55 33 -58 -54 -52 -31 -53 -20 vhcurveto
            29 -20 -32 23 -49 hhcurveto
            -27 -24 -8 -12 -18 hvcurveto
            2 12 2 13 14 -18 callsubr
            return
          </CharString>
          <CharString index="163">
            552 69 callgsubr
            return
          </CharString>
          <CharString index="164">
            rmoveto
            81 -15 callsubr
            -35 vvcurveto
            return
          </CharString>
          <CharString index="165">
            157 callgsubr
            -25 0 -38 -66 vvcurveto
            return
          </CharString>
          <CharString index="166">
            -46 callgsubr
            63 59 33 62 35 hvcurveto
            -25 56 65 -15 67 hhcurveto
            35 33 4 9 29 hvcurveto
            -10 -63 -1 -38 -46 vvcurveto
            -43 2 -109 104 -107 callgsubr
            -38 -52 callsubr
          </CharString>
          <CharString index="167">
            -63 callgsubr
            -41 return
          </CharString>
          <CharString index="168">
            rmoveto
            -60 -60 -33 -64 -23 -18 3 4 -17 vhcurveto
            73 32 21 76 65 hhcurveto
            28 36 -20 -43 hvcurveto
            -378 -109 139 callgsubr
            -260 478 298 callsubr
            18 -21 3 -36 1 -34 -48 -12 -29 -37 -22 -42 rrcurveto
            134 callgsubr
            -63 22 57 -33 61 hhcurveto
            98 54 76 80 78 -54 91 -78 36 hvcurveto
            -1 36 -6 43 -29 24 rrcurveto
            245 -102 callgsubr
          </CharString>
          <CharString index="169">
            -30 -18 -26 -22 hvcurveto
            23 -12 306 callsubr
            return
          </CharString>
          <CharString index="170">
            -47 64 -28 72 70 vvcurveto
            return
          </CharString>
          <CharString index="171">
            72 callsubr
            -25 -24 -4 return
          </CharString>
          <CharString index="172">
            102 callgsubr
            vhcurveto
            113 27 -205 169 hhcurveto
            43 26 12 19 21 hvcurveto
            -85 callsubr
            return
          </CharString>
          <CharString index="173">
            197 callgsubr
            -72 -53 53 108 108 45 77 51 28 15 -25 -31 -8 -1 -12 -2 -8 hvcurveto
            -14 18 24 -9 27 hhcurveto
            47 36 27 51 return
          </CharString>
          <CharString index="174">
            23 -12 11 -23 -35 vvcurveto
            -313 vlineto
            -59 callsubr
            return
          </CharString>
          <CharString index="175">
            8 callsubr
            -703 -81 callsubr
            491 hlineto
            29 -22 15 -39 -12 callsubr
            92 -30 -86 6 -174 hhcurveto
            -121 -64 -43 -85 -93 callgsubr
            hvcurveto
            98 hlineto
            16 14 1 3 11 hvcurveto
            13 -45 37 -33 43 -19 rrcurveto
            -90 callgsubr
            56 2 return
          </CharString>
          <CharString index="176">
            -367 -81 callsubr
            return
          </CharString>
          <CharString index="177">
            81 6 callsubr
            -35 vvcurveto
            return
          </CharString>
          <CharString index="178">
            -72 rmoveto
            75 callgsubr
            return
          </CharString>
          <CharString index="179">
            11 -14 5 -21 2 -23 rrcurveto
            -41 -22 -21 -51 -45 vvcurveto
            -71 43 -59 38 9 8 5 5 3 vhcurveto
            0 -10 11 37 vvcurveto
            34 14 54 37 26 5 -29 -20 -11 callsubr
            return
          </CharString>
          <CharString index="180">
            hlineto
            20 -9 12 -19 -15 vvcurveto
            -15 -12 -13 -26 vhcurveto
            return
          </CharString>
          <CharString index="181">
            290 callsubr
            -94 -26 -30 -40 vhcurveto
            68 -63 -64 0 -96 110 callsubr
            return
          </CharString>
          <CharString index="182">
            -29 40 callgsubr
            return
          </CharString>
          <CharString index="183">
            179 callgsubr
            hvcurveto
            -4 callsubr
            return
          </CharString>
          <CharString index="184">
            vhcurveto
            -20 -1 -26 -11 -39 vvcurveto
            return
          </CharString>
          <CharString index="185">
            39 -5 vhcurveto
            3 -8 1 -5 -7 vvcurveto
            -27 -17 -27 -39 -91 -56 124 63 -24 77 callsubr
            -58 99 -198 146 236 callgsubr
            39 -11 28 -5 9 vhcurveto
            return
          </CharString>
          <CharString index="186">
            -59 -32 -39 -43 -41 26 -41 48 -12 hvcurveto
            28 14 25 13 23 hhcurveto
            return
          </CharString>
          <CharString index="187">
            180 callgsubr
            3 -34 1 -8 vhcurveto
            return
          </CharString>
          <CharString index="188">
            3 callsubr
            129 257 callgsubr
            -345 vlineto
            108 callgsubr
            return
          </CharString>
          <CharString index="189">
            243 callsubr
            -23 326 callsubr
            10 10 vvcurveto
            56 40 41 60 vhcurveto
            10 -105 callgsubr
            return
          </CharString>
          <CharString index="190">
            -62 callgsubr
            272 hlineto
            13 -9 5 -11 -11 vvcurveto
            -19 -20 -9 -31 vhcurveto
            -31 -23 1 -23 hhcurveto
            -91 -50 -45 -72 -101 88 -85 101 hvcurveto
            -58 callsubr
            return
          </CharString>
          <CharString index="191">
            rmoveto
            -3 -13 -14 -2 -15 hhcurveto
            -49 -42 34 45 24 10 18 17 14 hvcurveto
            return
          </CharString>
          <CharString index="192">
            1 104 callsubr
            return
          </CharString>
          <CharString index="193">
            -567 -62 callgsubr
            264 156 callgsubr
            return
          </CharString>
          <CharString index="194">
            195 callsubr
            -65 52 -24 49 15 17 4 6 return
          </CharString>
          <CharString index="195">
            -90 callgsubr
            56 2 47 23 30 37 rrcurveto
            -25 38 61 -19 55 hhcurveto
            8 8 1 1 7 hvcurveto
            -64 43 73 -54 82 hhcurveto
            39 38 12 24 28 hvcurveto
            -5 -16 -3 -18 -18 vvcurveto
            -54 27 -55 73 -105 callsubr
          </CharString>
          <CharString index="196">
            hhcurveto
            -57 -11 36 55 51 callgsubr
            return
          </CharString>
          <CharString index="197">
            48 54 27 72 75 37 -33 -35 -11 -2 -16 -6 -12 vhcurveto
            -18 25 29 -8 31 hhcurveto
            41 39 30 52 return
          </CharString>
          <CharString index="198">
            -66 hhcurveto
            -96 callsubr
            return
          </CharString>
          <CharString index="199">
            5 -12 2 -14 -11 vvcurveto
            -11 callsubr
            -25 -24 -4 -7 -22 hvcurveto
            -4 12 162 callsubr
            return
          </CharString>
          <CharString index="200">
            136 callsubr
            21 vhcurveto
            -22 187 callsubr
            return
          </CharString>
          <CharString index="201">
            -3 vvcurveto
            -55 42 -41 50 -22 vhcurveto
            -90 callgsubr
            return
          </CharString>
          <CharString index="202">
            1 -36 rrcurveto
            21 -26 -31 14 -42 -73 callsubr
            return
          </CharString>
          <CharString index="203">
            552 rmoveto
            263 callgsubr
            -22 vvcurveto
            -97 87 -59 64 -65 23 rrcurveto
            101 202 callgsubr
            73 -65 41 -39 rrcurveto
            -31 -29 -41 -20 -38 hhcurveto
            return
          </CharString>
          <CharString index="204">
            2 10 85 callsubr
            return
          </CharString>
          <CharString index="205">
            -76 callsubr
            -42 49 -11 12 vhcurveto
            return
          </CharString>
          <CharString index="206">
            vlineto
            93 callsubr
            return
          </CharString>
          <CharString index="207">
            -104 callgsubr
            264 -100 callgsubr
            55 2 58 1 return
          </CharString>
          <CharString index="208">
            -101 callgsubr
            264 -100 callgsubr
            59 2 return
          </CharString>
          <CharString index="209">
            -82 -109 -5 -78 304 callgsubr
            -62 48 -21 47 7 6 1 1 7 vhcurveto
            -6 -16 -4 -19 -21 vvcurveto
            -116 106 -148 54 291 callgsubr
            22 callgsubr
            return
          </CharString>
          <CharString index="210">
            -101 callgsubr
            13 hlineto
            8 -10 4 -18 2 return
          </CharString>
          <CharString index="211">
            12 136 callgsubr
            return
          </CharString>
          <CharString index="212">
            -511 hlineto
            33 callsubr
            181 return
          </CharString>
          <CharString index="213">
            -128 80 -52 172 225 163 135 243 244 -163 135 -225 -105 -83 -19 -33 -91 vhcurveto
            19 -29 8 -39 -42 vvcurveto
            return
          </CharString>
          <CharString index="214">
            -95 callgsubr
            18 -4 return
          </CharString>
          <CharString index="215">
            171 callgsubr
            -25 return
          </CharString>
          <CharString index="216">
            -104 callgsubr
            79 hlineto
            22 -22 17 -29 -37 vvcurveto
            -17 -3 -22 -9 -12 vhcurveto
            26 -17 -24 12 -22 hhcurveto
            -31 -28 -21 -43 -77 72 -55 66 59 59 39 91 65 -28 60 -40 42 hvcurveto
            return
          </CharString>
          <CharString index="217">
            hhcurveto
            -97 hlineto
            17 callgsubr
            return
          </CharString>
          <CharString index="218">
            97 376 rmoveto
            -47 21 -22 44 245 callsubr
            14 21 vvcurveto
            311 vlineto
            37 -22 25 -45 -60 -43 -34 -28 -8 5 -9 9 -3 vhcurveto
            8 11 13 5 12 hhcurveto
            11 6 -6 -12 hvcurveto
            1 -611 rmoveto
            -7 -12 -12 -17 -6 -5 rrcurveto
            -20 12 15 -2 9 hhcurveto
            21 8 18 20 13 hvcurveto
            417 660 7 11 8 19 10 5 rlinecurve
            18 -13 -14 3 -9 hhcurveto
            -21 -15 -26 -10 -6 hvcurveto
            return
          </CharString>
          <CharString index="219">
            45 30 22 32 12 -4 9 -4 5 hvcurveto
            return
          </CharString>
          <CharString index="220">
            -46 -38 -77 -50 -86 hhcurveto
            -119 -90 55 198 175 83 100 91 66 29 -47 -79 -14 hvcurveto
            -15 24 28 -6 24 hhcurveto
            58 54 23 65 return
          </CharString>
          <CharString index="221">
            rmoveto
            -56 -59 -61 -82 -45 -51 24 60 71 64 34 63 32 vhcurveto
            62 -8 48 -40 -56 vvcurveto
            return
          </CharString>
          <CharString index="222">
            vvcurveto
            -25 -25 -31 -17 -28 hhcurveto
            -57 -11 36 55 hvcurveto
            18 2 21 22 vvcurveto
            37 -1 56 -37 28 vhcurveto
            -211 117 rmoveto
            -84 callsubr
            58 2 return
          </CharString>
          <CharString index="223">
            552 rmoveto
            0 302 vlineto
            -56 callgsubr
            return
          </CharString>
          <CharString index="224">
            19 12 10 13 7 return
          </CharString>
          <CharString index="225">
            rmoveto
            44 -31 -24 30 -52 hhcurveto
            -52 -24 -30 -44 -31 hvcurveto
            -73 -107 rlineto
            -17 8 16 -8 17 hhcurveto
            15 16 5 12 13 hvcurveto
            95 82 95 -82 rlineto
            -12 13 16 -5 15 hhcurveto
            17 16 8 17 8 hvcurveto
            endchar
          </CharString>
          <CharString index="226">
            23 -12 10 -23 -34 vvcurveto
            return
          </CharString>
          <CharString index="227">
            -42 callsubr
            -7 -89 vvcurveto
            -68 -1 -52 -1 -43 vhcurveto
            -52 11 -54 18 -48 22 rrcurveto
            36 37 24 44 49 vvcurveto
            111 -98 95 -100 -84 -65 -58 -84 return
          </CharString>
          <CharString index="228">
            18 vhcurveto
            237 -102 callgsubr
          </CharString>
          <CharString index="229">
            -75 -98 callgsubr
            return
          </CharString>
          <CharString index="230">
            25 callsubr
            -38 -52 callsubr
          </CharString>
          <CharString index="231">
            -29 callsubr
            -108 hmoveto
            153 callgsubr
            return
          </CharString>
          <CharString index="232">
            -39 62 callsubr
            return
          </CharString>
          <CharString index="233">
            rmoveto
            -68 callsubr
            return
          </CharString>
          <CharString index="234">
            hlineto
            15 -25 0 -48 -39 vvcurveto
            return
          </CharString>
          <CharString index="235">
            18 -8 18 -15 6 vhcurveto
            66 callsubr
            return
          </CharString>
          <CharString index="236">
            hlineto
            -68 callgsubr
            return
          </CharString>
          <CharString index="237">
            473 103 callgsubr
            return
          </CharString>
          <CharString index="238">
            23 -27 19 -48 -47 vvcurveto
            return
          </CharString>
          <CharString index="239">
            -50 -98 callgsubr
            254 hlineto
            14 -14 7 -21 -22 vvcurveto
            -26 -14 -27 -28 -20 vhcurveto
            9 -21 -22 5 -21 hhcurveto
            -41 -42 -23 -41 -53 56 -30 63 22 24 4 8 21 hvcurveto
            10 -9 14 -21 -27 vvcurveto
            -54 -44 -28 -49 -99 -71 89 80 -39 vhcurveto
            -13 -3 -29 -10 -36 vvcurveto
            -58 122 -180 168 return
          </CharString>
          <CharString index="240">
            vvcurveto
            -55 33 -44 48 -33 vhcurveto
            -54 -19 -39 -30 -56 vvcurveto
            -113 158 -90 137 90 135 32 92 47 -41 35 -48 4 vhcurveto
            -62 -20 -88 -50 -93 hhcurveto
            -46 -71 16 39 return
          </CharString>
          <CharString index="241">
            -465 hlineto
            -92 callsubr
            return
          </CharString>
          <CharString index="242">
            104 rmoveto
            20 20 2 3 18 hvcurveto
            -81 -7 -69 -42 -77 hhcurveto
            -43 -38 19 37 31 32 32 83 hvcurveto
            25 18 -1 18 hhcurveto
            return
          </CharString>
          <CharString index="243">
            147 callsubr
            25 return
          </CharString>
          <CharString index="244">
            -9 callsubr
            -12 3 -13 2 -30 rrcurveto
            1 -23 0 -32 -49 vvcurveto
            -61 49 -70 68 -42 vhcurveto
            -52 -26 -55 -19 -48 -10 324 callgsubr
            63 hhcurveto
            27 81 21 98 110 hvcurveto
            -6 -20 -3 -23 -24 vvcurveto
            -65 27 -65 78 -34 callgsubr
            return
          </CharString>
          <CharString index="245">
            75 -171 176 -69 -18 -14 -14 -7 -2 vhcurveto
            96 -128 32 -51 -51 vvcurveto
            -50 -32 -52 -96 -127 vhcurveto
            -7 2 14 -14 18 hhcurveto
            69 171 176 74 hvcurveto
            return
          </CharString>
          <CharString index="246">
            vlineto
            37 -2 56 -37 28 vhcurveto
            return
          </CharString>
          <CharString index="247">
            -81 -46 callgsubr
            63 return
          </CharString>
          <CharString index="248">
            552 rmoveto
            64 callsubr
            return
          </CharString>
          <CharString index="249">
            -62 callgsubr
            32 callgsubr
            4 return
          </CharString>
          <CharString index="250">
            7 -3 -13 14 -18 hhcurveto
            -70 -170 -176 -75 -74 170 -176 70 18 13 14 7 3 hvcurveto
            -96 127 -33 52 50 vvcurveto
            51 33 51 96 128 vhcurveto
            return
          </CharString>
          <CharString index="251">
            hlineto
            -69 callgsubr
            -48 -1 -40 -36 vvcurveto
            -17 -33 -24 -29 -30 -21 return
          </CharString>
          <CharString index="252">
            747 39 callgsubr
            return
          </CharString>
          <CharString index="253">
            -104 -112 70 -98 hhcurveto
            -73 -61 -51 -71 -36 16 -24 27 -8 hvcurveto
            34 3 22 22 38 90 106 -69 117 hhcurveto
            73 61 50 71 32 -15 24 -28 12 hvcurveto
            return
          </CharString>
          <CharString index="254">
            -80 30 -39 280 callgsubr
            return
          </CharString>
          <CharString index="255">
            -592 -292 1032 rmoveto
            171 callsubr
            263 callsubr
            vhcurveto
            return
          </CharString>
          <CharString index="256">
            hhcurveto
            -53 -37 31 41 161 callgsubr
            return
          </CharString>
          <CharString index="257">
            vvcurveto
            -18 -5 -16 -8 -13 vhcurveto
            -80 54 -90 57 -77 20 rrcurveto
            return
          </CharString>
          <CharString index="258">
            rmoveto
            -21 -11 -7 -17 -16 vvcurveto
            -62 106 -80 130 68 107 37 81 42 -37 31 -33 2 vhcurveto
            -63 -30 -62 -27 -59 hhcurveto
            -63 -58 27 56 -41 hvcurveto
            endchar
          </CharString>
          <CharString index="259">
            153 callgsubr
            rrcurveto
            return
          </CharString>
          <CharString index="260">
            hhcurveto
            34 30 -25 -38 return
          </CharString>
          <CharString index="261">
            -24 -75 164 callgsubr
            -71 -75 -43 -98 return
          </CharString>
          <CharString index="262">
            -35 callgsubr
            endchar
          </CharString>
          <CharString index="263">
            85 callgsubr
            18 -2 20 -8 20 vhcurveto
            71 -59 return
          </CharString>
          <CharString index="264">
            rrcurveto
            -52 3 42 -44 64 hhcurveto
            return
          </CharString>
          <CharString index="265">
            hhcurveto
            305 callgsubr
            hvcurveto
            161 hlineto
            -2 -47 -1 -37 -39 -99 callgsubr
          </CharString>
          <CharString index="266">
            -61 -79 32 -80 hhcurveto
            -103 -56 -50 -79 -93 callgsubr
            hvcurveto
            164 48 -155 101 hhcurveto
            305 callgsubr
            hvcurveto
            return
          </CharString>
          <CharString index="267">
            110 152 -75 callgsubr
            return
          </CharString>
          <CharString index="268">
            vlineto
            112 callgsubr
            return
          </CharString>
          <CharString index="269">
            -2 14 13 vvcurveto
            42 20 42 45 24 vhcurveto
            return
          </CharString>
          <CharString index="270">
            179 callsubr
            34 return
          </CharString>
          <CharString index="271">
            274 callgsubr
            -69 -1 -55 -1 -48 vhcurveto
            -68 -35 -80 -31 -59 hhcurveto
            return
          </CharString>
          <CharString index="272">
            10 13 5 21 16 vvcurveto
            57 -58 33 -62 -71 -75 -43 -98 -93 108 -137 130 return
          </CharString>
          <CharString index="273">
            -52 -32 3 15 -34 hvcurveto
            -13 -16 -12 -23 -19 vvcurveto
            return
          </CharString>
          <CharString index="274">
            hvcurveto
            92 224 -9 108 vvcurveto
            32 -19 26 -20 17 vhcurveto
            216 -102 callgsubr
          </CharString>
          <CharString index="275">
            219 -70 callsubr
            243 hlineto
            -69 callgsubr
            vvcurveto
            -33 0 -30 -1 -26 vhcurveto
            44 -62 -53 68 -89 hhcurveto
            -50 -39 -31 -47 -41 29 -28 29 -12 hvcurveto
            23 10 25 17 29 hhcurveto
            46 return
          </CharString>
          <CharString index="276">
            -32 -32 -8 -27 hhcurveto
            -21 -25 6 24 37 71 0 31 hvcurveto
            22 27 -1 25 hhcurveto
            74 35 40 49 29 -12 32 -25 26 hvcurveto
            return
          </CharString>
          <CharString index="277">
            15 240 callgsubr
            return
          </CharString>
          <CharString index="278">
            76 callsubr
            72 88 -96 -40 37 hvcurveto
            40 12 3 32 37 return
          </CharString>
          <CharString index="279">
            hhcurveto
            -45 -36 24 40 239 callsubr
            35 hlineto
            -13 callgsubr
            -88 101 -122 130 return
          </CharString>
          <CharString index="280">
            hlineto
            -48 callgsubr
            65 -40 48 -12 13 vhcurveto
            return
          </CharString>
          <CharString index="281">
            188 callgsubr
            -25 0 -38 -66 vvcurveto
            return
          </CharString>
          <CharString index="282">
            17 -65 669 66 callgsubr
            return
          </CharString>
          <CharString index="283">
            -101 callgsubr
            191 hlineto
            6 -8 3 -10 -6 -62 -227 8 -138 vvcurveto
            return
          </CharString>
          <CharString index="284">
            -27 callgsubr
            vvcurveto
            return
          </CharString>
          <CharString index="285">
            198 hlineto
            7 -9 3 -10 -10 -75 -237 return
          </CharString>
          <CharString index="286">
            63 callsubr
            56 return
          </CharString>
          <CharString index="287">
            26 13 19 17 12 hvcurveto
            -3 13 13 82 callsubr
            return
          </CharString>
          <CharString index="288">
            -101 callgsubr
            298 203 callsubr
            return
          </CharString>
          <CharString index="289">
            2 185 callgsubr
            return
          </CharString>
          <CharString index="290">
            39 -28 29 -39 -47 -47 -45 -49 -37 28 -30 39 return
          </CharString>
          <CharString index="291">
            -55 3 35 -56 55 hhcurveto
            114 callgsubr
            -1 -32 -1 -26 vhcurveto
            1 -75 -86 0 -109 303 callsubr
            return
          </CharString>
          <CharString index="292">
            64 -58 rmoveto
            -10 -27 -17 -37 -12 -10 rrcurveto
            -20 23 21 -3 14 hhcurveto
            56 23 64 27 10 hvcurveto
            355 1023 8 25 14 35 16 12 rlinecurve
            17 -20 -24 4 -16 hhcurveto
            -55 -23 -63 -27 -9 hvcurveto
            endchar
          </CharString>
          <CharString index="293">
            281 -101 callgsubr
            return
          </CharString>
          <CharString index="294">
            12 -10 23 36 vvcurveto
            return
          </CharString>
          <CharString index="295">
            hlineto
            -41 2 -102 98 10 15 1 6 14 vhcurveto
            -10 17 -4 47 35 131 5 146 140 vvcurveto
            35 -2 50 -34 27 vhcurveto
            164 -102 callgsubr
          </CharString>
          <CharString index="296">
            -39 -43 -26 -32 -35 -28 11 -24 15 -20 vhcurveto
            -25 -27 -38 -15 -48 -4 rrcurveto
            37 1 36 36 vvcurveto
            37 -2 56 -37 28 vhcurveto
            472 -102 callgsubr
          </CharString>
          <CharString index="297">
            -18 callgsubr
            -93 -155 -21 -62 vvcurveto
            return
          </CharString>
          <CharString index="298">
            -1 75 -1 79 -9 77 rrcurveto
            -3 26 39 -2 52 hhcurveto
            205 callsubr
            -140 -74 -3 -4 -38 hvcurveto
            4 47 0 62 41 vvcurveto
            38 0 46 16 24 vhcurveto
            endchar
          </CharString>
          <CharString index="299">
            9 -15 4 -15 1 -41 rrcurveto
            1 -24 0 -32 -46 vvcurveto
            return
          </CharString>
          <CharString index="300">
            13 16 12 23 19 vvcurveto
            43 -20 34 -76 vhcurveto
            return
          </CharString>
          <CharString index="301">
            rrcurveto
            -50 3 37 -41 54 hhcurveto
            return
          </CharString>
          <CharString index="302">
            hlineto
            -3 -6 -2 -12 -9 vvcurveto
            return
          </CharString>
          <CharString index="303">
            rmoveto
            0 58 224 callgsubr
            return
          </CharString>
          <CharString index="304">
            hhcurveto
            -57 -30 -40 -39 -36 26 -32 28 -9 hvcurveto
            24 10 28 22 28 hhcurveto
            17 11 -11 -15 -32 -41 -38 -63 -102 -57 101 71 -29 hvcurveto
            -20 -26 -12 -39 -56 99 -177 171 return
          </CharString>
          <CharString index="305">
            -592 -151 624 rmoveto
            23 22 12 30 45 -113 239 -149 259 callsubr
            return
          </CharString>
          <CharString index="306">
            66 410 918 rmoveto
            6 -16 -16 1 -12 hhcurveto
            -108 -2 -114 -43 -24 2 -43 5 -37 hvcurveto
            1 -24 -37 2 -47 hhcurveto
            325 callsubr
            4 -16 4 -7 hvcurveto
            return
          </CharString>
          <CharString index="307">
            -103 callgsubr
            134 -79 callsubr
            -2 56 -38 -52 callsubr
          </CharString>
          <CharString index="308">
            hhcurveto
            73 36 41 47 33 -16 37 262 callgsubr
            return
          </CharString>
          <CharString index="309">
            205 416 rmoveto
            325 callsubr
            5 -16 3 -7 hvcurveto
            return
          </CharString>
          <CharString index="310">
            275 callgsubr
            -66 -332 44 -189 return
          </CharString>
          <CharString index="311">
            -43 -32 -25 -25 -14 return
          </CharString>
          <CharString index="312">
            42 103 0 103 10 -2 14 -4 7 hvcurveto
            return
          </CharString>
          <CharString index="313">
            -17 40 -5 vhcurveto
            return
          </CharString>
          <CharString index="314">
            229 callgsubr
            -6 6 -16 7 vhcurveto
            return
          </CharString>
          <CharString index="315">
            -50 -27 -35 -39 -45 43 callsubr
            hvcurveto
            64 84 20 21 vvcurveto
            return
          </CharString>
          <CharString index="316">
            -51 -55 -28 -56 -43 33 -27 32 315 callsubr
            return
          </CharString>
          <CharString index="317">
            hlineto
            8 -9 4 -11 -11 return
          </CharString>
          <CharString index="318">
            196 634 -196 hlineto
            236 -185 rmoveto
            196 185 -196 hlineto
            return
          </CharString>
          <CharString index="319">
            325 callgsubr
            9 -2 15 -4 7 hvcurveto
            return
          </CharString>
          <CharString index="320">
            -59 72 -89 69 return
          </CharString>
          <CharString index="321">
            95 callgsubr
            -34 0 -29 -1 -25 vhcurveto
            49 -48 -58 43 -61 hhcurveto
            -30 -29 -8 -14 -25 hvcurveto
            -2 57 -22 36 -25 29 rrcurveto
            return
          </CharString>
          <CharString index="322">
            669 227 callgsubr
            return
          </CharString>
          <CharString index="323">
            -85 callsubr
            60 2 63 1 64 vhcurveto
            30 17 20 23 31 return
          </CharString>
          <CharString index="324">
            181 callsubr
            vvcurveto
            -52 37 -53 54 -40 vhcurveto
            return
          </CharString>
          <CharString index="325">
            hlineto
            -55 3 35 -56 55 hhcurveto
            114 callgsubr
            254 callsubr
            return
          </CharString>
          <CharString index="326">
            301 callsubr
            39 46 27 -13 30 -24 24 hvcurveto
            180 -102 callgsubr
          </CharString>
          <CharString index="327">
            235 362 rmoveto
            41 20 36 24 35 hhcurveto
            51 51 -54 -111 -112 return
          </CharString>
          <CharString index="328">
            64 45 29 37 31 vhcurveto
            -3 -21 -1 -20 -14 vvcurveto
            -48 return
          </CharString>
          <CharString index="329">
            -32 35 -48 -57 -55 -53 -59 -44 33 -36 48 58 53 return
          </CharString>
          <CharString index="330">
            hhcurveto
            213 callgsubr
            hvcurveto
            23 -12 11 -23 -35 vvcurveto
            return
          </CharString>
          <CharString index="331">
            vlineto
            136 callsubr
            return
          </CharString>
          <CharString index="332">
            -4 -13 -2 -13 -14 vvcurveto
            return
          </CharString>
          <CharString index="333">
            265 callsubr
            -35 return
          </CharString>
          <CharString index="334">
            vhcurveto
            10 -105 callgsubr
            -528 -62 callgsubr
            262 hlineto
            11 return
          </CharString>
          <CharString index="335">
            193 callgsubr
            21 -3 23 -11 22 vhcurveto
            81 -57 83 -64 46 -39 rrcurveto
            -39 -37 -50 -23 -42 hhcurveto
            return
          </CharString>
          <CharString index="336">
            295 552 rmoveto
            7 -12 10 -45 -60 vvcurveto
            -57 -15 -64 -52 -66 -1 71 46 20 0 26 -7 24 vhcurveto
            -5 20 -10 18 -17 13 rrcurveto
            return
          </CharString>
          <CharString index="337">
            348 552 rmoveto
            -55 3 35 -56 55 hhcurveto
            -31 callgsubr
            return
          </CharString>
          <CharString index="338">
            rmoveto
            -58 -53 -151 -114 -163 -40 194 callsubr
            105 211 163 83 25 -17 18 -21 9 hvcurveto
            endchar
          </CharString>
          <CharString index="339">
            -63 -28 -31 5 12 -22 hvcurveto
            39 -11 -30 44 -43 hhcurveto
            -32 -19 -25 -28 return
          </CharString>
          <CharString index="340">
            -42 -103 0 -98 -14 5 -15 3 -7 hvcurveto
            return
          </CharString>
          <CharString index="341">
            rmoveto
            37 -2 56 -37 28 vhcurveto
            return
          </CharString>
          <CharString index="342">
            -69 callgsubr
            vvcurveto
            -18 return
          </CharString>
          <CharString index="343">
            vvcurveto
            -48 -34 -27 -45 -7 -8 1 1 -8 vhcurveto
            49 return
          </CharString>
          <CharString index="344">
            6 -52 -49 4 -44 hhcurveto
            return
          </CharString>
          <CharString index="345">
            0 6 252 callgsubr
            return
          </CharString>
          <CharString index="346">
            47 44 22 47 hvcurveto
            return
          </CharString>
          <CharString index="347">
            -42 callgsubr
            -465 -62 callgsubr
            return
          </CharString>
          <CharString index="348">
            58 hlineto
            17 -26 0 -51 -42 vvcurveto
            return
          </CharString>
          <CharString index="349">
            -101 callgsubr
            473 203 callsubr
            vvcurveto
            return
          </CharString>
          <CharString index="350">
            -1 13 hhcurveto
            41 41 22 38 242 callgsubr
            -26 -26 -6 -11 return
          </CharString>
          <CharString index="351">
            rrcurveto
            44 139 callsubr
            return
          </CharString>
          <CharString index="352">
            26 18 10 15 15 vhcurveto
            -15 6 -6 return
          </CharString>
          <CharString index="353">
            -4 -19 -19 -2 -19 hhcurveto
            return
          </CharString>
          <CharString index="354">
            rmoveto
            -35 -86 0 -82 -11 4 -13 3 -6 hvcurveto
            404 hlineto
            35 86 0 86 8 -2 12 -3 6 hvcurveto
            endchar
          </CharString>
          <CharString index="355">
            hvcurveto
            -11 -30 -31 -4 277 callgsubr
            return
          </CharString>
          <CharString index="356">
            60 58 8 33 hhcurveto
            21 9 -8 -13 -26 -62 -23 -84 -98 -88 29 45 -53 hvcurveto
            -7 -4 -16 -9 -24 vvcurveto
            return
          </CharString>
          <CharString index="357">
            267 callgsubr
            128 hlineto
            return
          </CharString>
          <CharString index="358">
            hhcurveto
            105 85 69 61 18 -8 18 -14 6 hvcurveto
            -35 -32 -42 -28 -66 hhcurveto
            -68 -51 38 106 -5 hvcurveto
            endchar
          </CharString>
          <CharString index="359">
            321 -101 callgsubr
            return
          </CharString>
          <CharString index="360">
            221 -101 callgsubr
            return
          </CharString>
          <CharString index="361">
            0 -32 -1 -26 vhcurveto
            return
          </CharString>
          <CharString index="362">
            hhcurveto
            -91 -50 -45 -72 -103 88 -87 101 hvcurveto
            return
          </CharString>
          <CharString index="363">
            -26 -64 0 -60 -9 2 -9 3 -4 hvcurveto
            return
          </CharString>
          <CharString index="364">
            -42 callgsubr
            -345 hlineto
            -3 -6 -2 -13 -8 vvcurveto
            return
          </CharString>
          <CharString index="365">
            48 371 278 callgsubr
            return
          </CharString>
          <CharString index="366">
            79 callsubr
            78 67 -136 -55 27 hvcurveto
            return
          </CharString>
          <CharString index="367">
            vvcurveto
            37 -1 56 -38 -52 callsubr
          </CharString>
          <CharString index="368">
            9 -14 3 -13 2 -34 rrcurveto
            1 -24 0 -35 -53 vvcurveto
            return
          </CharString>
          <CharString index="369">
            669 rmoveto
            2 11 0 12 13 return
          </CharString>
          <CharString index="370">
            vvcurveto
            118 -51 209 -128 return
          </CharString>
          <CharString index="371">
            vhcurveto
            -23 12 -9 23 36 vvcurveto
            return
          </CharString>
          <CharString index="372">
            9 -13 4 -14 1 return
          </CharString>
          <CharString index="373">
            25 21 25 13 -6 8 -6 6 hvcurveto
            -9 -12 -20 -1 -13 hhcurveto
            -21 198 hlineto
            45 -18 24 return
          </CharString>
          <CharString index="374">
            -20 -4 -20 -20 287 callsubr
            return
          </CharString>
          <CharString index="375">
            269 callsubr
            vvcurveto
            return
          </CharString>
          <CharString index="376">
            117 rmoveto
            -18 callgsubr
            return
          </CharString>
          <CharString index="377">
            36 30 26 39 56 183 callgsubr
            -56 49 -47 vhcurveto
            return
          </CharString>
          <CharString index="378">
            338 hlineto
            297 callgsubr
            -40 vhcurveto
            -15 -29 -22 -25 -29 -18 return
          </CharString>
          <CharString index="379">
            1 1 -21 hvcurveto
            -12 -8 -10 -17 -19 vvcurveto
            -25 15 return
          </CharString>
          <CharString index="380">
            47 -39 35 -50 -48 -63 -39 -66 -45 37 -38 53 return
          </CharString>
          <CharString index="381">
            290 callgsubr
            1 return
          </CharString>
          <CharString index="382">
            -57 -11 36 55 hvcurveto
            24 return
          </CharString>
          <CharString index="383">
            59 -39 37 -57 return
          </CharString>
          <CharString index="384">
            796 rmoveto
            326 callgsubr
            -30 26 -26 30 24 16 18 22 30 -28 26 -28 hvcurveto
            return
          </CharString>
          <CharString index="385">
            913 rmoveto
            44 callgsubr
            return
          </CharString>
          <CharString index="386">
            rrcurveto
            1 -22 0 return
          </CharString>
          <CharString index="387">
            hhcurveto
            -38 -29 11 23 hvcurveto
            42 134 14 116 -36 callsubr
            return
          </CharString>
          <CharString index="388">
            vhcurveto
            19 -15 -23 9 -19 hhcurveto
            -27 -25 -18 -38 -69 64 -48 58 52 52 35 80 return
          </CharString>
          <CharString index="389">
            hhcurveto
            -63 -61 16 28 -39 hvcurveto
            -12 -7 -8 -14 -16 vvcurveto
            -54 119 -67 119 return
          </CharString>
          <CharString index="390">
            vvcurveto
            36 22 49 68 40 31 -16 -21 24 vhcurveto
            return
          </CharString>
          <CharString index="391">
            hhcurveto
            303 callgsubr
            hvcurveto
            return
          </CharString>
          <CharString index="392">
            hlineto
            29 callgsubr
            vvcurveto
            return
          </CharString>
          <CharString index="393">
            41 29 18 25 21 return
          </CharString>
          <CharString index="394">
            19 callgsubr
            -87 102 -102 132 return
          </CharString>
          <CharString index="395">
            rmoveto
            18 callgsubr
            3 return
          </CharString>
          <CharString index="396">
            190 210 callsubr
            return
          </CharString>
          <CharString index="397">
            285 callsubr
            -74 return
          </CharString>
          <CharString index="398">
            175 -62 vhcurveto
            return
          </CharString>
          <CharString index="399">
            45 -33 35 -48 -56 -55 -53 -59 -44 32 -36 48 59 53 53 59 vhcurveto
            return
          </CharString>
          <CharString index="400">
            vlineto
            80 -31 39 182 callgsubr
            -24 -22 vhcurveto
            23 -14 306 callsubr
            return
          </CharString>
          <CharString index="401">
            421 rmoveto
            80 -21 -30 33 -65 hhcurveto
            -39 -29 -17 -33 -25 hvcurveto
            20 -13 return
          </CharString>
          <CharString index="402">
            285 callsubr
            -75 -100 -28 -39 -40 vhcurveto
            -33 2 -38 3 return
          </CharString>
          <CharString index="403">
            2 204 callgsubr
            return
          </CharString>
          <CharString index="404">
            302 callgsubr
            vvcurveto
            return
          </CharString>
          <CharString index="405">
            -101 callgsubr
            348 hlineto
            return
          </CharString>
          <CharString index="406">
            -1 243 104 rmoveto
            1 7 8 0 9 25 18 -1 18 hhcurveto
            return
          </CharString>
          <CharString index="407">
            -136 -223 -62 -28 17 -17 42 vhcurveto
            119 -41 hlineto
            -46 return
          </CharString>
          <CharString index="408">
            37 hvcurveto
            32 37 -1 36 hhcurveto
            74 35 return
          </CharString>
          <CharString index="409">
            435 rmoveto
            237 callsubr
            return
          </CharString>
          <CharString index="410">
            hhcurveto
            41 139 callsubr
            return
          </CharString>
          <CharString index="411">
            -309 177 669 rmoveto
            return
          </CharString>
          <CharString index="412">
            hhcurveto
            -53 -37 31 41 return
          </CharString>
          <CharString index="413">
            11 -22 -35 vvcurveto
            return
          </CharString>
          <CharString index="414">
            rrcurveto
            -51 3 41 return
          </CharString>
          <CharString index="415">
            94 -94 76 -82 -59 -32 -37 -39 -35 25 -36 46 -4 return
          </CharString>
          <CharString index="416">
            193 callsubr
            endchar
          </CharString>
          <CharString index="417">
            0 64 4 -1 10 -4 4 hvcurveto
            return
          </CharString>
          <CharString index="418">
            rrcurveto
            -1 -3 0 -4 return
          </CharString>
          <CharString index="419">
            -40 62 callsubr
            return
          </CharString>
          <CharString index="420">
            hlineto
            16 -10 9 -16 -13 vvcurveto
            -15 -11 -13 -27 vhcurveto
            return
          </CharString>
          <CharString index="421">
            50 -37 41 -51 5 vhcurveto
            -76 -18 -65 -42 -73 hhcurveto
            return
          </CharString>
          <CharString index="422">
            7 10 1 3 7 vhcurveto
            return
          </CharString>
          <CharString index="423">
            7 7 0 1 7 hvcurveto
            return
          </CharString>
          <CharString index="424">
            52 26 23 28 return
          </CharString>
          <CharString index="425">
            rmoveto
            -48 -21 -40 -41 -30 vhcurveto
            -21 5 14 -8 return
          </CharString>
          <CharString index="426">
            hlineto
            -29 -68 0 -65 -9 3 -11 2 -5 hvcurveto
            return
          </CharString>
          <CharString index="427">
            26 16 36 46 vvcurveto
            37 -13 35 -20 30 vhcurveto
            return
          </CharString>
          <CharString index="428">
            -48 4 -57 3 -53 2 rrcurveto
            return
          </CharString>
          <CharString index="429">
            -42 -20 22 49 hvcurveto
            return
          </CharString>
          <CharString index="430">
            236 callgsubr
            66 return
          </CharString>
          <CharString index="431">
            5 5 0 5 hhcurveto
            return
          </CharString>
          <CharString index="432">
            -42 -103 0 -98 -13 return
          </CharString>
          <CharString index="433">
            hvcurveto
            -3 9 -1 return
          </CharString>
          <CharString index="434">
            0 292 127 callsubr
            return
          </CharString>
          <CharString index="435">
            25 26 -18 19 -26 -25 -19 -19 -26 vhcurveto
            return
          </CharString>
          <CharString index="436">
            -80 123 callgsubr
            return
          </CharString>
          <CharString index="437">
            -52 -21 -43 -34 -65 hhcurveto
            -31 -27 18 32 return
          </CharString>
          <CharString index="438">
            1 244 callsubr
            return
          </CharString>
          <CharString index="439">
            28 69 0 68 8 -2 10 -2 4 hvcurveto
            return
          </CharString>
          <CharString index="440">
            33 -36 48 58 53 53 59 vhcurveto
            endchar
          </CharString>
          <CharString index="441">
            12 -35 12 -49 vhcurveto
            endchar
          </CharString>
          <CharString index="442">
            hvcurveto
            -2 8 -1 return
          </CharString>
        <CharString name=".notdef">
          164 160 hmoveto
          436 701 -436 hlineto
          81 -76 rmoveto
          275 -549 -275 hlineto
          endchar
        </CharString>
        <CharString name="A">
          150 279 236 -72 callsubr
        </CharString>
        <CharString name="AE">
          483 325 293 rmoveto
          151 313 rlineto
          -313 vlineto
          204 -165 rmoveto
          -32 -14 15 30 hvcurveto
          156 127 vlineto
          50 40 0 -12 36 hvcurveto
          19 15 13 22 317 callgsubr
          21 254 callgsubr
          150 223 hlineto
          50 41 -5 -14 35 hvcurveto
          19 16 13 21 317 callgsubr
          29 -108 vhcurveto
          -372 hlineto
          -87 -38 -32 -70 -36 hvcurveto
          -263 -514 -24 -46 -12 -15 -24 -12 rlinecurve
          -30 17 43 -23 44 hhcurveto
          42 33 20 60 29 hvcurveto
          43 90 rlineto
          213 -19 hlineto
          -91 57 -54 128 vhcurveto
          226 hlineto
          89 39 42 53 29 -13 28 -19 16 hvcurveto
          -26 -36 -40 -14 -50 hhcurveto
          endchar
        </CharString>
        <CharString name="Aacute">
          150 453 862 -71 callgsubr
          -93 -564 -72 callsubr
        </CharString>
        <CharString name="Abreve">
          150 371 812 82 callgsubr
          -92 -576 -72 callsubr
        </CharString>
        <CharString name="Acircumflex">
          150 371 882 -25 callgsubr
          3 -564 -72 callsubr
        </CharString>
        <CharString name="Adieresis">
          150 460 802 rmoveto
          50 46 46 50 -4 callgsubr
          hvcurveto
          -204 hmoveto
          50 46 46 50 -4 callgsubr
          hvcurveto
          23 -566 -72 callsubr
        </CharString>
        <CharString name="Agrave">
          150 366 800 0 callgsubr
          -6 -626 -72 callsubr
        </CharString>
        <CharString name="Amacron">
          150 495 827 rmoveto
          112 callsubr
          -314 hlineto
          113 callgsubr
          99 -591 -72 callsubr
        </CharString>
        <CharString name="Aogonek">
          150 279 236 rmoveto
          87 290 92 -290 rlineto
          16 386 rmoveto
          80 -30 -19 44 -73 hhcurveto
          -44 -34 -20 -28 -18 hvcurveto
          18 -13 12 -15 9 -26 -205 -529 rcurveline
          -18 -45 -12 -20 -24 -10 rrcurveto
          -30 12 44 -21 42 hhcurveto
          42 36 24 74 22 hvcurveto
          16 53 rlineto
          238 hlineto
          17 -54 13 -40 15 -25 20 -15 rlinecurve
          -40 -25 -26 -35 -39 229 callgsubr
          -5 5 -13 6 vhcurveto
          -28 16 -19 29 -16 44 rrcurveto
          endchar
        </CharString>
        <CharString name="Aring">
          150 365 951 110 callgsubr
          -152 rmoveto
          62 52 31 63 64 -52 31 -62 -62 -52 -31 -64 -63 52 -31 62 hvcurveto
          -92 -563 -72 callsubr
        </CharString>
        <CharString name="Atilde">
          150 235 813 rmoveto
          67 callgsubr
          151 callgsubr
          44 -577 -72 callsubr
        </CharString>
        <CharString name="B">
          193 432 320 rmoveto
          87 52 -37 -69 -63 -52 -43 -87 hvcurveto
          -105 hlineto
          -52 -13 16 42 hvcurveto
          154 vlineto
          137 309 rmoveto
          89 36 -50 -51 -59 -36 -43 -89 1 hvcurveto
          -137 1 rlineto
          201 vlineto
          -100 107 rmoveto
          312 callsubr
          -457 vlineto
          -127 48 -39 152 vhcurveto
          128 hlineto
          209 92 105 100 92 -77 75 -113 16 hvcurveto
          86 19 56 54 79 vvcurveto
          100 -85 96 -201 vhcurveto
          endchar
        </CharString>
        <CharString name="C">
          146 670 599 rmoveto
          210 callgsubr
          -236 123 -136 210 159 118 100 75 44 -28 15 -7 3 vhcurveto
          113 callsubr
          hvcurveto
          endchar
        </CharString>
        <CharString name="CR">
          -312 endchar
        </CharString>
        <CharString name="Cacute">
          146 670 599 rmoveto
          210 callgsubr
          -236 123 -136 210 159 118 100 75 44 -28 15 -7 3 vhcurveto
          113 callsubr
          hvcurveto
          -218 263 -71 callgsubr
          endchar
        </CharString>
        <CharString name="Ccaron">
          146 550 964 -64 callgsubr
          160 -631 rmoveto
          113 callsubr
          210 callgsubr
          -236 123 -136 210 159 118 100 75 44 -28 15 -7 3 hvcurveto
          endchar
        </CharString>
        <CharString name="Ccedilla">
          146 296 71 callsubr
          11 51 rlineto
          153 6 111 96 73 vvcurveto
          44 -28 15 -7 3 vhcurveto
          113 callsubr
          210 callgsubr
          -203 91 -128 158 -33 hvcurveto
          endchar
        </CharString>
        <CharString name="D">
          211 104 169 rmoveto
          106 callsubr
          158 38 rmoveto
          150 callgsubr
          endchar
        </CharString>
        <CharString name="Dcaron">
          211 582 958 -64 callgsubr
          -247 -229 rmoveto
          150 callgsubr
          -158 11 rmoveto
          106 callsubr
          endchar
        </CharString>
        <CharString name="Dcroat">
          211 262 329 rmoveto
          72 162 callgsubr
          -139 213 hlineto
          150 callgsubr
          -158 251 rmoveto
          -17 hlineto
          113 callgsubr
          85 -160 hlineto
          106 callsubr
          endchar
        </CharString>
        <CharString name="E">
          124 337 128 -77 callsubr
        </CharString>
        <CharString name="Eacute">
          124 465 862 -71 callgsubr
          -47 -672 -77 callsubr
        </CharString>
        <CharString name="Ecaron">
          124 563 964 -64 callgsubr
          -153 -729 -77 callsubr
        </CharString>
        <CharString name="Ecircumflex">
          124 383 882 -25 callgsubr
          49 -672 -77 callsubr
        </CharString>
        <CharString name="Edieresis">
          124 472 802 rmoveto
          50 46 46 50 -4 callgsubr
          hvcurveto
          -204 hmoveto
          50 46 46 50 -4 callgsubr
          hvcurveto
          69 -674 -77 callsubr
        </CharString>
        <CharString name="Edotaccent">
          124 370 812 rmoveto
          49 45 44 49 183 callsubr
          hvcurveto
          -33 -684 -77 callsubr
        </CharString>
        <CharString name="Egrave">
          124 378 800 0 callgsubr
          40 -734 -77 callsubr
        </CharString>
        <CharString name="Emacron">
          124 507 827 rmoveto
          112 callsubr
          -314 hlineto
          113 callgsubr
          145 -699 -77 callsubr
        </CharString>
        <CharString name="Eogonek">
          124 337 128 rmoveto
          322 callsubr
          130 127 vlineto
          50 40 0 -12 36 hvcurveto
          19 15 13 22 317 callgsubr
          21 254 callgsubr
          150 223 hlineto
          50 41 -5 -14 35 hvcurveto
          19 16 13 21 317 callgsubr
          29 -108 vhcurveto
          -334 hlineto
          125 callsubr
          -444 vlineto
          -125 61 -54 132 vhcurveto
          124 hlineto
          -39 -26 -25 -34 -38 43 callsubr
          56 63 22 17 19 hvcurveto
          29 17 13 27 31 vvcurveto
          29 -13 28 -19 16 vhcurveto
          -26 -36 -40 -14 -50 hhcurveto
          endchar
        </CharString>
        <CharString name="Eth">
          247 262 329 rmoveto
          94 hlineto
          27 63 0 63 5 -1 10 -3 3 hvcurveto
          -180 212 hlineto
          150 callgsubr
          -158 252 rmoveto
          -19 hlineto
          -26 -64 0 -60 -8 3 -10 2 -3 hvcurveto
          104 -160 hlineto
          106 callsubr
          endchar
        </CharString>
        <CharString name="Euro">
          187 445 252 rmoveto
          27 63 310 callsubr
          -224 hlineto
          14 -1 14 15 vvcurveto
          11 0 11 1 10 vhcurveto
          139 hlineto
          27 63 0 64 5 -1 9 -4 4 hvcurveto
          -212 hlineto
          106 25 62 61 69 hhcurveto
          66 24 -47 -55 -8 hvcurveto
          -15 24 27 -6 24 hhcurveto
          58 54 22 59 79 -117 51 -138 -174 -113 -98 -157 -38 hvcurveto
          -25 hlineto
          256 callsubr
          97 hlineto
          -1 -16 -1 -16 -16 vvcurveto
          -9 0 -9 1 -9 vhcurveto
          -11 hlineto
          256 callsubr
          104 hlineto
          -168 32 108 -95 165 hhcurveto
          160 117 100 75 44 -27 15 -8 3 hvcurveto
          -46 -38 -83 -56 -86 hhcurveto
          -79 -68 31 97 -29 hvcurveto
          endchar
        </CharString>
        <CharString name="F">
          78 175 736 rmoveto
          125 callsubr
          -515 144 callgsubr
          231 127 vlineto
          50 40 0 -10 36 hvcurveto
          19 13 13 19 24 vvcurveto
          44 -39 18 254 callgsubr
          177 223 hlineto
          50 41 -5 -14 35 hvcurveto
          19 16 13 21 29 vvcurveto
          41 -27 29 -108 vhcurveto
          endchar
        </CharString>
        <CharString name="G">
          198 716 280 14 callsubr
        </CharString>
        <CharString name="Gbreve">
          198 445 812 82 callgsubr
          271 -532 14 callsubr
        </CharString>
        <CharString name="H">
          260 743 628 rmoveto
          80 callgsubr
          -209 -318 203 vlineto
          -28 callgsubr
          220 318 -215 144 callgsubr
          endchar
        </CharString>
        <CharString name="I">
          -215 268 628 rmoveto
          -28 callgsubr
          endchar
        </CharString>
        <CharString name="Iacute">
          -215 270 862 -71 callgsubr
          79 -172 rmoveto
          -28 callgsubr
          endchar
        </CharString>
        <CharString name="Icircumflex">
          -215 268 628 rmoveto
          -28 callgsubr
          27 812 118 callsubr
        </CharString>
        <CharString name="Idieresis">
          -215 373 898 rmoveto
          -4 callgsubr
          50 46 46 50 vhcurveto
          -204 hmoveto
          -4 callgsubr
          50 46 46 50 vhcurveto
          99 -270 rmoveto
          -28 callgsubr
          endchar
        </CharString>
        <CharString name="Idotaccent">
          -215 269 905 rmoveto
          183 callsubr
          49 45 44 49 vhcurveto
          -1 -277 rmoveto
          -28 callgsubr
          endchar
        </CharString>
        <CharString name="Igrave">
          -215 183 800 0 callgsubr
          166 -234 rmoveto
          -28 callgsubr
          endchar
        </CharString>
        <CharString name="Imacron">
          -215 65 907 73 callgsubr
          -111 -279 rmoveto
          -28 callgsubr
          endchar
        </CharString>
        <CharString name="Iogonek">
          -215 268 628 rmoveto
          112 callgsubr
          -526 vlineto
          -57 15 -37 35 -16 vhcurveto
          -51 -26 -34 -39 -45 207 callsubr
          -23 12 -9 23 36 vvcurveto
          endchar
        </CharString>
        <CharString name="J">
          -124 403 628 rmoveto
          70 callgsubr
          -444 vlineto
          -51 -37 -25 -47 -46 -36 16 32 -37 vhcurveto
          -14 -13 -11 -23 -25 vvcurveto
          -61 68 -51 104 123 90 67 141 vhcurveto
          endchar
        </CharString>
        <CharString name="K">
          177 397 379 rmoveto
          109 callgsubr
        </CharString>
        <CharString name="L">
          35 callsubr
          endchar
        </CharString>
        <CharString name="Lacute">
          35 callsubr
          160 228 -71 callgsubr
          endchar
        </CharString>
        <CharString name="Lcaron">
          35 callsubr
          392 35 rmoveto
          276 callsubr
          204 callsubr
          vhcurveto
          -30 callgsubr
          hvcurveto
          endchar
        </CharString>
        <CharString name="Lslash">
          -2 331 116 rmoveto
          322 callsubr
          234 vlineto
          87 42 24 12 50 24 -27 58 rlinecurve
          -2 5 -5 8 -5 1 -122 -58 rcurveline
          115 161 callsubr
          -196 vlineto
          -41 -20 -24 -12 -58 -26 25 -55 rlinecurve
          4 -7 14 -7 4 -3 76 37 rcurveline
          -178 vlineto
          -125 50 -42 132 vhcurveto
          150 hlineto
          84 39 50 53 21 -7 20 -17 12 hvcurveto
          -26 -24 -33 -14 -51 hhcurveto
          endchar
        </CharString>
        <CharString name="M">
          378 863 630 rmoveto
          -3 35 4 32 16 27 rrcurveto
          12 -28 -40 10 -42 hhcurveto
          -106 -56 -30 -146 -40 hvcurveto
          -78 -282 -80 287 rlineto
          114 -31 -32 57 -101 hhcurveto
          -65 -62 -19 -20 -37 hvcurveto
          16 -22 6 -33 -2 -33 -40 -511 rcurveline
          -2 -34 -10 -27 -20 -19 rrcurveto
          -24 23 31 -15 37 hhcurveto
          54 22 36 73 5 hvcurveto
          29 504 181 -555 8 -27 8 -19 41 -1 rlinecurve
          41 14 19 27 9 hvcurveto
          175 555 28 -506 rlineto
          -82 4 40 -20 54 hhcurveto
          36 19 6 11 24 hvcurveto
          -11 20 -8 50 -1 32 rrcurveto
          endchar
        </CharString>
        <CharString name="N">
          264 110 108 -11 callgsubr
          endchar
        </CharString>
        <CharString name="NULL">
          -592 endchar
        </CharString>
        <CharString name="Nacute">
          264 110 108 -11 callgsubr
          400 228 -71 callgsubr
          endchar
        </CharString>
        <CharString name="Ncaron">
          264 608 964 -64 callgsubr
          225 -229 rmoveto
          79 callgsubr
          -526 vlineto
          76 callgsubr
          endchar
        </CharString>
        <CharString name="Ntilde">
          264 527 925 rmoveto
          151 callgsubr
          67 callgsubr
          -417 -817 -11 callgsubr
          endchar
        </CharString>
        <CharString name="O">
          202 414 88 143 callgsubr
        </CharString>
        <CharString name="OE">
          547 538 126 rmoveto
          -18 -33 -39 -10 -52 hhcurveto
          -124 -40 117 134 -9 hvcurveto
          173 -9 78 115 123 hhcurveto
          42 34 -8 -15 29 hvcurveto
          222 -486 rmoveto
          -42 -21 22 49 hvcurveto
          130 127 vlineto
          51 39 0 -12 36 hvcurveto
          20 15 13 22 29 vvcurveto
          53 -40 21 254 callgsubr
          150 223 hlineto
          51 41 -5 -14 34 hvcurveto
          20 16 13 21 29 vvcurveto
          53 -40 29 -108 vhcurveto
          -513 hlineto
          -227 -125 -158 -210 -210 98 -158 267 hvcurveto
          519 hlineto
          89 40 42 53 29 -13 28 -20 16 hvcurveto
          -26 -36 -39 -14 -51 hhcurveto
          endchar
        </CharString>
        <CharString name="Oacute">
          202 414 88 -45 callsubr
          -249 494 -71 callgsubr
          endchar
        </CharString>
        <CharString name="Ocircumflex">
          202 397 882 -25 callgsubr
          112 -712 rmoveto
          -124 -52 127 153 -9 hvcurveto
          154 -9 36 126 123 hhcurveto
          126 52 -126 -154 8 hvcurveto
          -153 10 -36 -127 -125 hhcurveto
          -17 658 rmoveto
          -233 -98 -168 -210 -210 98 -169 233 240 91 169 335 callgsubr
          -90 168 -241 hvcurveto
          endchar
        </CharString>
        <CharString name="Odieresis">
          202 414 88 -45 callsubr
          -146 530 rmoveto
          -4 callgsubr
          50 46 46 50 vhcurveto
          -204 hmoveto
          -4 callgsubr
          50 46 46 50 vhcurveto
          endchar
        </CharString>
        <CharString name="Ograve">
          202 392 800 0 callgsubr
          103 -774 143 callgsubr
        </CharString>
        <CharString name="Ohungarumlaut">
          202 414 88 -45 callsubr
          -302 440 60 callgsubr
          endchar
        </CharString>
        <CharString name="Omacron">
          202 414 88 -45 callsubr
          -454 539 73 callgsubr
          endchar
        </CharString>
        <CharString name="Oslash">
          240 553 463 rmoveto
          7 -29 3 -32 2 -33 rrcurveto
          -153 10 -36 -127 -125 hhcurveto
          -61 -43 31 49 -30 hvcurveto
          -28 64 rmoveto
          -13 40 -7 47 -3 49 rrcurveto
          154 -9 36 126 123 hhcurveto
          76 48 -45 -70 29 hvcurveto
          109 117 rmoveto
          60 -53 -79 36 -112 hhcurveto
          -233 -98 -168 -210 -101 23 -91 49 -68 hvcurveto
          -22 -23 -18 -19 -27 -29 -29 -15 rlinecurve
          -23 5 18 -11 17 hhcurveto
          22 21 12 30 27 hvcurveto
          29 31 rlineto
          -45 52 71 -27 93 hhcurveto
          240 91 169 210 86 -15 79 -35 64 hvcurveto
          48 51 18 19 28 29 28 16 rlinecurve
          23 -4 -18 10 333 callgsubr
        </CharString>
        <CharString name="Otilde">
          202 496 925 rmoveto
          151 callgsubr
          67 callgsubr
          -82 -837 143 callgsubr
        </CharString>
        <CharString name="P">
          38 293 643 rmoveto
          93 51 -56 -88 -87 -51 -58 -93 hvcurveto
          -57 289 hlineto
          -100 93 rmoveto
          312 callsubr
          -515 vlineto
          -59 callsubr
          159 88 vlineto
          149 146 72 165 166 -146 72 -149 -1 hvcurveto
          endchar
        </CharString>
        <CharString name="Q">
          252 756 415 rmoveto
          210 -138 121 -184 -220 -144 -168 -225 -174 104 -73 101 74 38 47 48 8 -1 8 -2 8 vhcurveto
          -5 -5 -1 -5 hhcurveto
          -83 -59 63 125 140 61 91 110 111 84 -114 -138 -145 -73 -116 -152 -71 hvcurveto
          -54 -25 -10 -12 -20 vvcurveto
          -73 140 -137 170 155 31 132 59 -58 vhcurveto
          -23 -33 -39 -10 -41 hhcurveto
          -81 -67 14 34 -55 hvcurveto
          222 62 108 170 185 vvcurveto
          endchar
        </CharString>
        <CharString name="R">
          84 236 624 -37 callsubr
          endchar
        </CharString>
        <CharString name="Racute">
          84 410 862 -71 callgsubr
          -93 -176 -37 callsubr
          endchar
        </CharString>
        <CharString name="Rcaron">
          84 508 964 -64 callgsubr
          -199 -233 -37 callsubr
          endchar
        </CharString>
        <CharString name="S">
          24 callgsubr
          endchar
        </CharString>
        <CharString name="Sacute">
          24 callgsubr
          -209 264 -71 callgsubr
          endchar
        </CharString>
        <CharString name="Scaron">
          110 532 964 -64 callgsubr
          -211 -283 rmoveto
          90 callsubr
          85 -109 63 -160 -153 -130 -76 -130 hvcurveto
          -205 412 -12 -143 vvcurveto
          -59 -49 -35 -86 -82 -50 34 36 22 9 20 15 14 vhcurveto
          17 -21 -29 15 -36 hhcurveto
          -46 -50 -33 -59 -97 130 -66 160 156 136 87 132 hvcurveto
          225 -412 24 117 vvcurveto
          endchar
        </CharString>
        <CharString name="T">
          57 167 736 78 callgsubr
        </CharString>
        <CharString name="Tcaron">
          57 505 928 -64 callgsubr
          -265 -85 78 callgsubr
        </CharString>
        <CharString name="Thorn">
          87 268 504 rmoveto
          13 33 33 6 37 hhcurveto
          79 58 -45 -77 -77 -58 -46 -79 -37 -33 6 13 -33 hvcurveto
          331 vmoveto
          -28 callgsubr
          101 vlineto
          -16 36 52 -10 51 hhcurveto
          141 119 87 136 135 -119 88 -141 -51 -52 -10 -16 -36 hvcurveto
          endchar
        </CharString>
        <CharString name="U">
          165 94 263 71 callgsubr
        </CharString>
        <CharString name="Uacute">
          165 94 263 -41 callgsubr
          379 228 -71 callgsubr
          endchar
        </CharString>
        <CharString name="Ucircumflex">
          165 391 882 -25 callgsubr
          244 -560 rmoveto
          -91 -62 -43 -83 -81 -63 43 91 vhcurveto
          388 vlineto
          80 callgsubr
          -371 vlineto
          -166 91 -108 335 callgsubr
          92 108 166 vhcurveto
          365 vlineto
          70 callgsubr
          endchar
        </CharString>
        <CharString name="Udieresis">
          165 94 263 -41 callgsubr
          482 264 rmoveto
          -4 callgsubr
          50 46 46 50 vhcurveto
          -204 hmoveto
          -4 callgsubr
          50 46 46 50 vhcurveto
          endchar
        </CharString>
        <CharString name="Ugrave">
          165 386 800 0 callgsubr
          -211 -599 71 callgsubr
        </CharString>
        <CharString name="Uhungarumlaut">
          165 420 808 60 callgsubr
          -212 -652 71 callgsubr
        </CharString>
        <CharString name="Umacron">
          165 268 907 73 callgsubr
          -488 -644 71 callgsubr
        </CharString>
        <CharString name="Uogonek">
          165 540 240 rmoveto
          -91 -62 -43 -83 -81 -63 43 91 vhcurveto
          388 vlineto
          80 callgsubr
          -371 vlineto
          -150 74 -102 169 -19 vhcurveto
          -51 -26 -35 -40 -45 43 callsubr
          55 63 23 17 19 hvcurveto
          140 29 63 98 137 vvcurveto
          365 vlineto
          70 callgsubr
          endchar
        </CharString>
        <CharString name="Uring">
          165 94 263 -41 callgsubr
          291 317 110 callgsubr
          37 rmoveto
          -62 -52 -31 -64 -63 52 -31 62 62 52 31 63 64 -52 31 -62 hvcurveto
          endchar
        </CharString>
        <CharString name="V">
          149 216 626 rmoveto
          95 -27 -43 25 329 callgsubr
          8 -29 14 -43 164 -496 rcurveline
          -95 32 33 -36 70 hhcurveto
          150 219 370 222 105 -49 61 -73 -33 -42 -16 -19 -23 hvcurveto
          27 -53 8 -46 -80 vvcurveto
          -133 -60 -180 -97 -113 vhcurveto
          endchar
        </CharString>
        <CharString name="W">
          441 602 650 rmoveto
          70 -17 -35 26 -56 hhcurveto
          -40 -29 -13 -29 -28 hvcurveto
          26 -16 10 -29 12 -43 21 -77 rcurveline
          -28 -164 -32 -127 -62 -109 -98 487 rcurveline
          94 -19 -51 26 329 callgsubr
          11 -29 11 -43 126 -496 rcurveline
          -99 25 33 -32 70 hhcurveto
          77 80 132 172 53 hvcurveto
          46 -173 rlineto
          -94 25 38 -37 47 hhcurveto
          126 199 384 196 125 -69 52 -73 -31 -50 -19 -14 -19 hvcurveto
          45 -38 22 -62 -80 vvcurveto
          -105 -38 -138 -75 -155 vhcurveto
          endchar
        </CharString>
        <CharString name="X">
          82 425 373 rmoveto
          171 235 rlineto
          29 21 18 9 31 hhcurveto
          65 -40 36 -48 -68 -36 -48 -122 -64 vhcurveto
          -53 -99 -121 190 rlineto
          60 -38 -34 18 -46 hhcurveto
          -57 -37 -36 -57 -14 hvcurveto
          30 32 -13 -57 36 hvcurveto
          142 -223 -170 -234 rlineto
          -29 -21 -18 -9 -31 hhcurveto
          -65 40 -34 48 68 36 46 122 64 vhcurveto
          52 98 120 -188 rlineto
          -62 40 32 -16 47 hhcurveto
          56 37 36 58 15 hvcurveto
          -30 -33 13 56 -36 hvcurveto
          endchar
        </CharString>
        <CharString name="Y">
          63 610 576 41 callsubr
        </CharString>
        <CharString name="Yacute">
          63 410 862 -71 callgsubr
          281 -224 41 callsubr
        </CharString>
        <CharString name="Ydieresis">
          63 417 802 rmoveto
          50 46 46 50 -4 callgsubr
          hvcurveto
          -204 hmoveto
          50 46 46 50 -4 callgsubr
          hvcurveto
          397 -226 41 callsubr
        </CharString>
        <CharString name="Z">
          85 180 123 0 callsubr
        </CharString>
        <CharString name="Zacute">
          85 420 862 -71 callgsubr
          -159 -677 0 callsubr
        </CharString>
        <CharString name="Zcaron">
          85 518 964 -64 callgsubr
          -265 -734 0 callsubr
        </CharString>
        <CharString name="Zdotaccent">
          85 325 812 rmoveto
          49 45 44 49 183 callsubr
          hvcurveto
          -145 -689 0 callsubr
        </CharString>
        <CharString name="a">
          -23 340 126 -83 callgsubr
        </CharString>
        <CharString name="aacute">
          -23 378 57 callgsubr
          43 -461 -83 callgsubr
        </CharString>
        <CharString name="abreve">
          -23 296 599 82 callgsubr
          44 -473 -83 callgsubr
        </CharString>
        <CharString name="acircumflex">
          -23 296 669 -25 callgsubr
          139 -461 -83 callgsubr
        </CharString>
        <CharString name="acute">
          -316 178 57 callgsubr
          endchar
        </CharString>
        <CharString name="adieresis">
          -23 385 589 rmoveto
          50 46 46 50 -4 callgsubr
          hvcurveto
          -204 hmoveto
          50 46 46 50 -4 callgsubr
          hvcurveto
          159 -463 -83 callgsubr
        </CharString>
        <CharString name="ae">
          234 266 88 rmoveto
          -33 -23 14 35 42 32 39 98 5 hvcurveto
          1 -32 5 -29 9 -26 rrcurveto
          -31 -25 -34 -17 -30 hhcurveto
          233 231 rmoveto
          90 11 36 42 38 hhcurveto
          33 17 -38 -39 -32 -15 -8 -21 -3 hvcurveto
          82 -84 rmoveto
          83 3 33 28 74 vvcurveto
          90 -80 92 -118 -61 -53 -21 -36 -43 vhcurveto
          38 -38 -47 19 -76 hhcurveto
          -102 -113 -50 -78 -47 31 -36 65 37 31 13 23 22 hvcurveto
          -10 12 -6 18 13 vvcurveto
          28 22 20 29 33 21 -19 -48 vhcurveto
          -95 vlineto
          -190 -3 -110 -66 -100 vvcurveto
          -84 70 -46 104 75 59 31 48 45 vhcurveto
          -51 43 68 -28 88 251 callsubr
        </CharString>
        <CharString name="agrave">
          -23 291 587 0 callgsubr
          130 -523 -83 callgsubr
        </CharString>
        <CharString name="amacron">
          -23 420 614 rmoveto
          112 callsubr
          -314 hlineto
          113 callgsubr
          235 -488 -83 callgsubr
        </CharString>
        <CharString name="ampersand">
          188 247 350 rmoveto
          108 16 89 41 -36 hvcurveto
          -81 -56 46 63 46 28 26 34 39 25 -29 -73 hvcurveto
          80 -25 62 47 59 vvcurveto
          57 -78 51 -92 -103 -115 -95 -130 -70 29 -61 62 -27 vhcurveto
          -62 -36 -47 -50 -77 vvcurveto
          -128 121 -85 163 172 127 120 149 41 -9 30 -16 32 vhcurveto
          8 hlineto
          113 53 43 71 70 -71 59 -97 -44 hvcurveto
          -66 11 -15 -46 -103 hhcurveto
          -87 3 -62 -37 24 hvcurveto
          60 35 -29 -60 -78 -80 -49 -96 -96 -80 49 78 36 12 28 31 26 hvcurveto
          endchar
        </CharString>
        <CharString name="ampersand.alt">
          208 346 109 rmoveto
          -87 -55 44 68 39 15 33 52 34 hvcurveto
          19 -20 21 -22 24 -25 50 -52 42 -42 35 -34 rrcurveto
          -15 -36 -41 -8 -39 hhcurveto
          11 535 rmoveto
          31 29 -23 -49 -43 -19 -42 -46 -33 hvcurveto
          -39 50 -16 36 27 vvcurveto
          51 30 26 30 vhcurveto
          428 -491 rmoveto
          -16 -16 -21 -11 -24 hhcurveto
          -17 -22 7 27 -37 hvcurveto
          48 57 29 64 59 vvcurveto
          55 -34 36 -51 -29 -28 -14 -19 -21 vhcurveto
          24 -24 12 -28 -42 vvcurveto
          -31 -9 -28 -14 -24 vhcurveto
          -28 26 -33 31 -40 40 -27 27 -23 24 -20 22 rrcurveto
          94 42 82 53 86 vvcurveto
          71 -78 76 -145 -109 -114 -62 -104 -54 22 -42 61 -70 vhcurveto
          -127 -66 -45 -63 -78 vvcurveto
          -106 88 -83 175 82 81 29 44 68 vhcurveto
          -61 75 42 -12 54 hhcurveto
          62 35 48 50 22 -7 23 -15 19 hvcurveto
          endchar
        </CharString>
        <CharString name="aogonek">
          -23 340 126 rmoveto
          -25 -22 -25 -13 -27 hhcurveto
          -33 -23 14 35 42 32 39 98 5 hvcurveto
          208 -175 rmoveto
          -32 12 -19 26 41 vvcurveto
          227 vlineto
          133 -95 47 -115 -115 -107 -39 -86 -39 31 -36 65 37 31 13 23 22 vhcurveto
          -10 11 -6 14 18 vvcurveto
          32 23 20 29 29 24 -20 -43 vhcurveto
          -114 vlineto
          -190 -3 -110 -66 -100 vvcurveto
          -84 61 -46 90 69 53 31 35 33 vhcurveto
          7 -26 13 -18 19 -11 rrcurveto
          -37 -25 -24 -34 -37 207 callsubr
          endchar
        </CharString>
        <CharString name="apostrophemod">
          -327 87 752 rmoveto
          72 callgsubr
        </CharString>
        <CharString name="approxequal">
          121 528 290 rmoveto
          146 callsubr
          -33 -2 -23 -23 -37 hhcurveto
          250 vmoveto
          146 callsubr
          -33 -2 -23 -23 -37 hhcurveto
          endchar
        </CharString>
        <CharString name="aring">
          -23 290 738 110 callgsubr
          -152 rmoveto
          62 52 31 63 64 -52 31 -62 -62 -52 -31 -64 -63 52 -31 62 hvcurveto
          44 -460 -83 callgsubr
        </CharString>
        <CharString name="asciicircum">
          142 443 671 rmoveto
          53 -25 -20 24 -36 hhcurveto
          -36 -28 -24 -47 -27 hvcurveto
          -153 -271 rlineto
          -20 -34 -8 -28 -22 vvcurveto
          -60 53 -27 44 vhcurveto
          175 336 113 -249 rlineto
          -70 33 32 -34 40 hhcurveto
          20 22 9 17 22 hvcurveto
          endchar
        </CharString>
        <CharString name="asciitilde">
          121 590 476 rmoveto
          -33 -2 -23 -23 -37 146 callsubr
          endchar
        </CharString>
        <CharString name="asterisk">
          61 402 847 rmoveto
          46 -25 36 -53 -47 -25 -35 -44 -35 20 -42 18 -33 vhcurveto
          36 -31 -49 40 -40 hhcurveto
          -33 -41 -24 -54 -44 43 -30 57 24 25 3 5 23 hvcurveto
          -51 -22 -63 -42 -51 vvcurveto
          -31 33 -45 43 69 21 89 65 6 vhcurveto
          -65 4 23 -88 67 hhcurveto
          37 42 36 36 53 -63 42 -52 22 hvcurveto
          -5 23 27 -5 24 hhcurveto
          54 45 29 47 51 -34 27 -37 -46 -50 -46 -35 -32 hvcurveto
          20 32 24 45 36 vvcurveto
          endchar
        </CharString>
        <CharString name="at">
          366 522 194 rmoveto
          -21 -22 -22 -11 -26 hhcurveto
          -31 -20 12 29 2 hvcurveto
          3 35 30 31 91 6 rrcurveto
          3 54 rmoveto
          -175 -3 -104 -56 -5 -82 rrcurveto
          -70 -5 54 -38 83 hhcurveto
          65 51 26 31 32 hvcurveto
          -38 13 39 -19 51 hhcurveto
          139 118 107 183 164 -117 161 -234 -285 -196 -209 -248 -216 146 -118 195 137 139 54 44 -40 hvcurveto
          -26 -71 -70 -12 -74 hhcurveto
          -192 -104 96 178 217 144 173 252 7 hvcurveto
          204 6 106 -121 -6 -172 rrcurveto
          -132 -5 -64 -64 -55 hhcurveto
          -22 -10 14 28 2 hvcurveto
          11 190 rlineto
          112 7 -80 38 -105 hhcurveto
          -105 -106 -42 -65 -4 hvcurveto
          -39 -2 26 -30 59 hhcurveto
          35 29 12 18 21 hvcurveto
          -8 10 -5 15 1 11 rrcurveto
          24 2 20 16 26 hhcurveto
          32 18 -16 -40 -3 hvcurveto
          endchar
        </CharString>
        <CharString name="atilde">
          -23 160 600 rmoveto
          67 callgsubr
          151 callgsubr
          180 -474 -83 callgsubr
        </CharString>
        <CharString name="b">
          16 220 callsubr
          -50 -76 -74 -41 -28 20 61 hvcurveto
          510 vmoveto
          80 -31 39 182 callgsubr
          -24 -22 vhcurveto
          23 -14 306 callsubr
          -516 vlineto
          -131 86 -35 131 168 123 106 187 160 -96 92 -113 -58 -49 -22 -44 -35 vhcurveto
          endchar
        </CharString>
        <CharString name="backslash">
          39 137 1052 rmoveto
          -16 -24 -4 -17 -20 hvcurveto
          17 -12 13 -35 8 -25 217 -617 46 -143 92 -263 rrcurveto
          -27 10 23 -64 56 hhcurveto
          15 20 3 20 23 hvcurveto
          -12 10 -17 37 -10 27 -111 317 -121 360 -122 343 rrcurveto
          27 -9 -23 63 -55 hhcurveto
          endchar
        </CharString>
        <CharString name="bar">
          -215 268 868 rmoveto
          112 callgsubr
          -982 -7 callsubr
          endchar
        </CharString>
        <CharString name="braceleft">
          -4 436 1058 rmoveto
          27 -17 -53 13 -28 hhcurveto
          -81 -82 -61 -141 hvcurveto
          -106 30 -110 -87 -123 -85 2 -39 -38 85 1 -122 -88 -30 -109 -107 vvcurveto
          -140 82 -62 81 28 53 14 26 17 vhcurveto
          -65 16 -43 50 79 71 27 158 75 vvcurveto
          135 -99 40 -18 1 vhcurveto
          18 1 99 40 136 74 -27 158 71 vvcurveto
          79 43 51 65 15 vhcurveto
          endchar
        </CharString>
        <CharString name="braceright">
          -4 380 896 rmoveto
          141 -81 61 -82 -27 -53 -13 -27 -17 vhcurveto
          65 -15 43 -51 -79 -71 -28 -158 -74 vvcurveto
          -136 100 -40 18 -1 vhcurveto
          -18 -1 -100 -40 -135 -75 28 -158 -71 vvcurveto
          -79 -43 -50 -65 -16 vhcurveto
          -26 17 53 -14 27 hhcurveto
          82 81 62 140 hvcurveto
          107 -30 109 88 122 86 -1 38 39 -86 -2 123 87 30 110 106 vvcurveto
          endchar
        </CharString>
        <CharString name="bracketleft">
          -140 197 -76 rmoveto
          1023 207 vlineto
          3 6 3 12 9 vvcurveto
          77 -80 0 -32 vhcurveto
          -258 -1077 hlineto
          -154 105 0 42 vhcurveto
          217 hlineto
          3 6 3 12 10 vvcurveto
          76 -80 0 -32 vhcurveto
          endchar
        </CharString>
        <CharString name="bracketright">
          -140 256 947 rmoveto
          -1023 -208 vlineto
          319 callgsubr
          258 1078 hlineto
          153 -106 0 -42 vhcurveto
          -217 hlineto
          319 callgsubr
          endchar
        </CharString>
        <CharString name="breve">
          -179 276 736 rmoveto
          -63 -26 -24 -44 -43 -26 24 63 vhcurveto
          4 -13 -22 4 -20 hhcurveto
          -38 -32 -20 -30 -47 65 -48 129 130 65 48 47 30 -33 20 -37 -20 -22 -4 -4 -13 hvcurveto
          endchar
        </CharString>
        <CharString name="brokenbar">
          -215 268 220 rmoveto
          112 callgsubr
          -238 -7 callsubr
          801 vmoveto
          112 callgsubr
          -238 -7 callsubr
          endchar
        </CharString>
        <CharString name="bullet">
          -36 437 442 rmoveto
          75 -54 59 -81 -94 -93 -89 -98 -75 54 -60 81 98 89 89 99 vhcurveto
          endchar
        </CharString>
        <CharString name="c">
          -69 487 415 rmoveto
          244 callgsubr
          -154 89 -97 158 106 85 63 67 128 callsubr
          hvcurveto
          endchar
        </CharString>
        <CharString name="cacute">
          -69 487 415 rmoveto
          244 callgsubr
          -154 89 -97 158 106 85 63 67 128 callsubr
          hvcurveto
          -143 234 -71 callgsubr
          endchar
        </CharString>
        <CharString name="caron">
          -208 192 678 rmoveto
          -95 82 rlineto
          12 -13 -16 4 -15 hhcurveto
          -17 -16 -8 -17 -8 hvcurveto
          73 -107 rlineto
          -44 31 24 -30 52 hhcurveto
          52 24 30 44 31 hvcurveto
          73 107 rlineto
          17 -8 -16 8 -17 hhcurveto
          -15 -16 -4 -12 -13 hvcurveto
          endchar
        </CharString>
        <CharString name="ccaron">
          -69 442 751 -64 callgsubr
          94 -483 rmoveto
          66 callsubr
          244 callgsubr
          -154 89 -97 158 106 85 63 67 18 -8 18 -15 6 hvcurveto
          endchar
        </CharString>
        <CharString name="ccedilla">
          -69 188 71 callsubr
          11 51 rlineto
          104 2 82 62 66 vvcurveto
          128 callsubr
          244 callgsubr
          -121 55 -86 101 -31 hvcurveto
          endchar
        </CharString>
        <CharString name="cedilla">
          -203 232 -62 rmoveto
          16 72 rlineto
          -99 hlineto
          -18 -82 rlineto
          1 callsubr
          endchar
        </CharString>
        <CharString name="cent">
          -69 390 559 57 callsubr
          -45 vlineto
          -114 -40 -71 -117 -123 vvcurveto
          -120 54 -85 98 -32 vhcurveto
          -39 -7 callsubr
          38 vlineto
          75 18 53 51 53 vvcurveto
          128 callsubr
          54 -42 37 -55 17 hvcurveto
          endchar
        </CharString>
        <CharString name="circumflex">
          -208 299 702 118 callsubr
        </CharString>
        <CharString name="colon">
          -194 295 469 203 callgsubr
          52 59 vhcurveto
          -368 vmoveto
          45 -32 35 -48 -57 -55 -53 -58 -45 333 callsubr
        </CharString>
        <CharString name="comma">
          -233 156 -53 rmoveto
          -57 -25 -48 -49 -38 vhcurveto
          -24 6 16 -9 17 hhcurveto
          71 107 109 128 93 -51 53 -60 -51 -36 -40 -42 -15 hvcurveto
          48 -29 22 -42 -54 vvcurveto
          endchar
        </CharString>
        <CharString name="commaaccent">
          -387 195 -143 rmoveto
          276 callsubr
          204 callsubr
          vhcurveto
          -30 callgsubr
          hvcurveto
          endchar
        </CharString>
        <CharString name="commaaccent.alt">
          -327 245 669 rmoveto
          276 callsubr
          204 callsubr
          vhcurveto
          -30 callgsubr
          hvcurveto
          endchar
        </CharString>
        <CharString name="copyright">
          277 610 508 rmoveto
          67 -74 38 -74 -144 -95 -125 -134 -136 78 -85 139 94 74 55 59 16 -7 17 -12 4 vhcurveto
          -31 -27 -38 -24 -57 hhcurveto
          -64 -47 47 95 95 40 68 44 26 13 -23 -27 -6 -1 -11 -2 -7 hvcurveto
          -14 16 20 -7 26 hhcurveto
          40 32 24 45 hvcurveto
          -482 -141 rmoveto
          185 117 148 189 191 115 -148 -185 -185 -117 -146 -189 -190 -116 146 185 vhcurveto
          669 hmoveto
          225 -155 156 -208 -207 -155 -156 -225 -224 155 -154 207 208 155 154 224 vhcurveto
          endchar
        </CharString>
        <CharString name="currency">
          128 371 222 rmoveto
          -67 -46 41 109 -7 hvcurveto
          110 -7 38 40 67 hhcurveto
          67 46 -40 -110 7 hvcurveto
          -109 10 -41 -41 -67 hhcurveto
          295 361 rmoveto
          39 -10 -28 20 -35 hhcurveto
          -28 -31 -13 -27 -26 hvcurveto
          -27 -27 rlineto
          17 -35 -41 8 -45 hhcurveto
          -45 -41 -8 -17 -35 hvcurveto
          -27 27 rlineto
          27 -26 -31 13 -28 hhcurveto
          -35 -28 -20 -39 -10 hvcurveto
          94 -92 rlineto
          -18 -33 -10 -39 -47 vvcurveto
          -46 10 -40 17 -32 vhcurveto
          -93 -92 rlineto
          -38 10 28 -21 35 hhcurveto
          28 31 13 27 26 hvcurveto
          26 27 rlineto
          -17 35 42 -8 45 hhcurveto
          45 42 8 17 35 hvcurveto
          26 -27 rlineto
          -27 26 31 -13 28 hhcurveto
          35 28 21 38 10 hvcurveto
          -93 92 rlineto
          17 32 10 40 46 vvcurveto
          47 -10 39 -18 33 vhcurveto
          endchar
        </CharString>
        <CharString name="d">
          9 111 callgsubr
          endchar
        </CharString>
        <CharString name="dagger">
          199 callsubr
          136 70 3 3 40 hvcurveto
          -6 -48 0 -48 -101 -188 4 -191 -70 281 callgsubr
          55 -2 149 -1 168 hvcurveto
          191 callsubr
        </CharString>
        <CharString name="daggerdbl">
          199 callsubr
          137 71 2 4 39 hvcurveto
          -7 -61 0 -58 -128 vvcurveto
          -30 1 -56 6 -46 vhcurveto
          2 -24 -36 1 -47 hhcurveto
          325 callsubr
          5 -16 4 -7 hvcurveto
          135 71 3 3 40 hvcurveto
          -5 -39 -1 -38 -65 281 callgsubr
          36 -4 31 -5 30 hvcurveto
          -2 25 39 -1 51 hhcurveto
          42 104 0 103 10 -3 14 -3 7 hvcurveto
          -143 -73 -3 -4 -39 hvcurveto
          5 48 1 61 42 vvcurveto
          191 callsubr
        </CharString>
        <CharString name="danda">
          14 396 522 rmoveto
          117 callgsubr
          endchar
        </CharString>
        <CharString name="dcaron">
          179 111 callgsubr
          146 680 rmoveto
          204 callsubr
          hvcurveto
          -30 callgsubr
          276 callsubr
          hvcurveto
          endchar
        </CharString>
        <CharString name="dcroat">
          9 372 127 rmoveto
          -24 -16 -28 -15 -29 hhcurveto
          -67 -40 54 120 120 53 66 63 25 24 -9 -17 15 hvcurveto
          161 173 rmoveto
          112 callsubr
          -71 hlineto
          73 -3 -31 36 -65 hhcurveto
          -40 -30 -18 -24 -22 hvcurveto
          22 -13 11 -21 1 -33 rrcurveto
          -86 hlineto
          113 callgsubr
          154 -69 hlineto
          5 -23 -26 3 -23 hhcurveto
          -170 -100 -131 -159 -160 100 -95 128 44 50 21 33 30 hvcurveto
          -36 14 28 -18 46 hhcurveto
          41 29 18 25 22 hvcurveto
          316 callgsubr
          492 vlineto
          endchar
        </CharString>
        <CharString name="degree">
          -62 265 896 rmoveto
          -108 -77 -70 -106 -106 77 -72 108 108 77 72 106 106 -77 70 -108 hvcurveto
          -255 vmoveto
          -46 -27 33 46 46 27 33 46 45 28 -32 -47 -46 -28 -33 -45 hvcurveto
          endchar
        </CharString>
        <CharString name="dieresis">
          -198 382 685 rmoveto
          -4 callgsubr
          50 46 46 50 vhcurveto
          -204 hmoveto
          -4 callgsubr
          50 46 46 50 vhcurveto
          endchar
        </CharString>
        <CharString name="divide">
          154 199 480 rmoveto
          233 callsubr
          485 212 callsubr
          -213 -272 rmoveto
          292 callsubr
          444 vmoveto
          292 callsubr
          endchar
        </CharString>
        <CharString name="dollar">
          117 451 772 rmoveto
          70 callgsubr
          -39 vlineto
          -116 -22 -87 -70 -107 -205 412 -12 -143 vvcurveto
          -59 -49 -35 -86 -82 -50 34 36 22 9 20 15 14 vhcurveto
          17 -21 -29 15 -36 hhcurveto
          -46 -50 -33 -59 -74 76 -56 108 -23 hvcurveto
          -35 144 callgsubr
          33 vlineto
          133 17 108 82 117 225 -412 24 117 vvcurveto
          90 callsubr
          71 -75 55 -117 17 hvcurveto
          endchar
        </CharString>
        <CharString name="dotaccent">
          -407 173 692 rmoveto
          183 callsubr
          49 45 44 49 vhcurveto
          endchar
        </CharString>
        <CharString name="dotlessi">
          -285 235 415 145 callgsubr
        </CharString>
        <CharString name="dottedcircle">
          68 139 517 rmoveto
          -26 18 -19 26 26 18 19 26 25 -18 19 -26 -26 -18 -19 -25 vhcurveto
          -82 -110 rmoveto
          -25 20 -19 26 24 20 19 25 25 -20 19 -24 -26 -20 -19 -25 vhcurveto
          -13 -126 rmoveto
          -25 19 -18 25 26 18 18 328 callsubr
          52 -116 rmoveto
          -26 18 -18 26 25 19 18 26 25 -19 19 -25 -26 -18 -19 -25 vhcurveto
          101 -75 rmoveto
          -26 19 -20 26 25 19 20 26 24 -19 20 -25 -26 -19 -20 -24 vhcurveto
          127 -16 rmoveto
          -26 18 -18 26 26 19 18 26 26 -19 18 -26 -26 -18 -18 -26 vhcurveto
          121 53 rmoveto
          -26 19 -18 25 25 20 18 26 25 -20 19 -25 -25 -19 -19 -25 vhcurveto
          73 98 rmoveto
          -25 19 -19 26 24 19 19 25 26 -19 19 -24 -26 -19 -19 -26 vhcurveto
          10 134 rmoveto
          -26 18 -18 26 25 19 18 26 26 -19 18 -25 -26 -18 -18 -26 vhcurveto
          -50 118 rmoveto
          -25 19 -19 25 26 18 19 328 callsubr
          -95 68 rmoveto
          -24 19 -20 26 25 18 20 24 26 -18 19 -25 -26 -19 -19 -26 vhcurveto
          -126 15 rmoveto
          -26 18 -18 26 26 18 18 26 26 -18 18 -26 -26 -18 -18 -26 vhcurveto
          endchar
        </CharString>
        <CharString name="doubledanda">
          175 396 522 rmoveto
          117 callgsubr
          250 hmoveto
          117 callgsubr
          endchar
        </CharString>
        <CharString name="dvA">
          203 474 669 21 callgsubr
        </CharString>
        <CharString name="dvAA">
          486 474 669 rmoveto
          -63 callsubr
          165 0 20 89 callgsubr
        </CharString>
        <CharString name="dvAI">
          -7 476 215 callsubr
          -486 -62 callgsubr
          9 hlineto
          15 -25 0 -48 -39 -55 -2 -41 -37 -177 345 -24 -105 vvcurveto
          -27 -21 -18 -40 vhcurveto
          0 18 -78 86 55 32 41 49 vhcurveto
          174 -342 6 161 42 2 40 40 vvcurveto
          37 -2 56 -37 28 vhcurveto
          221 hlineto
          17 -19 18 -31 -54 vvcurveto
          -66 -46 -29 -49 -12 -12 2 3 -11 vhcurveto
          -68 4 53 -44 63 hhcurveto
          93 26 79 61 45 -16 66 -42 55 hvcurveto
          173 -102 callgsubr
        </CharString>
        <CharString name="dvAU">
          486 980 262 callsubr
          263 callsubr
          179 callgsubr
          vhcurveto
          51 callsubr
          -422 hlineto
          -63 callsubr
          165 0 20 89 callgsubr
        </CharString>
        <CharString name="dvAbbreviationsign">
          -202 204 164 rmoveto
          106 55 81 78 76 -50 73 -104 -105 -56 -81 -79 -75 50 -73 104 hvcurveto
          2 226 rmoveto
          39 20 -38 -38 -33 -17 -34 -38 -39 -20 38 38 34 17 33 38 hvcurveto
          endchar
        </CharString>
        <CharString name="dvAcandra">
          203 652 145 callsubr
          -178 -78 21 callgsubr
        </CharString>
        <CharString name="dvAnusvara">
          -592 -142 745 rmoveto
          44 callgsubr
          endchar
        </CharString>
        <CharString name="dvAnusvara.amI">
          -592 118 799 rmoveto
          44 callgsubr
          endchar
        </CharString>
        <CharString name="dvAvagraha">
          -94 91 565 rmoveto
          -131 236 -94 -108 vvcurveto
          -46 -33 -22 -47 -60 -62 37 74 -63 vhcurveto
          -19 -6 -9 -14 -17 vvcurveto
          -66 127 -121 127 96 66 56 89 vhcurveto
          152 -224 87 81 vvcurveto
          31 23 8 54 34 46 0 -1 62 vhcurveto
          3 6 3 12 12 vvcurveto
          82 -89 3 -78 -78 -115 -1 -103 vhcurveto
          endchar
        </CharString>
        <CharString name="dvB">
          -235 413 -42 callgsubr
          -369 -62 callgsubr
          222 -338 25 callgsubr
          62 23 rmoveto
          -50 callsubr
          107 91 61 78 38 -21 33 -38 17 vhcurveto
          -21 -44 -34 -31 -37 -20 rrcurveto
          endchar
        </CharString>
        <CharString name="dvBA">
          12 267 215 84 callsubr
          -236 86 callgsubr
          338 144 callsubr
          -104 127 52 callgsubr
          -97 113 -142 136 49 47 13 26 33 vhcurveto
          -4 -13 -3 -13 -14 vvcurveto
          -54 27 -55 73 -105 callsubr
        </CharString>
        <CharString name="dvBH">
          -202 400 268 rmoveto
          256 callgsubr
          -38 5 -72 6 -75 4 rrcurveto
          152 -8 -95 129 -90 hhcurveto
          -69 -36 -52 -57 -58 35 -61 58 2 callgsubr
          endchar
        </CharString>
        <CharString name="dvBHA">
          79 314 133 callgsubr
          -69 -36 -52 -57 -58 35 -61 58 2 callgsubr
          161 hlineto
          -2 -47 -1 -37 -39 -99 callgsubr
        </CharString>
        <CharString name="dvBH_LA">
          535 315 -98 callgsubr
          130 callsubr
          -67 -50 -31 -51 -26 hvcurveto
          -37 4 -45 3 -48 2 rrcurveto
          152 -8 -95 129 -90 hhcurveto
          -69 -36 -52 -57 -58 35 -61 58 2 callgsubr
          97 hlineto
          7 7 0 1 6 hvcurveto
          -135 12 120 -128 63 hhcurveto
          117 callsubr
          hvcurveto
          -96 callgsubr
        </CharString>
        <CharString name="dvBH_NA">
          116 callgsubr
          162 hlineto
          -1 -55 rlineto
          -55 -22 -251 -74 329 callsubr
          16 -4 17 -8 21 vhcurveto
          131 66 rlineto
          -3 -15 -2 -15 -12 vvcurveto
          -57 40 -36 56 -105 callsubr
        </CharString>
        <CharString name="dvBH_R">
          -202 399 278 rmoveto
          256 callgsubr
          -38 5 -71 6 -75 4 rrcurveto
          136 -8 -93 119 callgsubr
          vhcurveto
          -36 -1 -29 -24 vvcurveto
          226 callgsubr
          -51 72 -78 69 38 19 31 47 10 vhcurveto
          171 -10 90 callgsubr
        </CharString>
        <CharString name="dvBH_RA">
          116 callgsubr
          163 -13 hlineto
          -60 -46 -161 -98 -113 -22 157 callsubr
          30 80 17 123 124 hvcurveto
          -3 -15 -3 -16 -17 vvcurveto
          -51 26 -54 73 -105 callsubr
        </CharString>
        <CharString name="dvBH_R_YA">
          399 765 -101 callsubr
          -307 268 callsubr
          -70 -87 -29 -43 -36 vhcurveto
          -37 3 -47 4 -48 2 rrcurveto
          136 -8 -93 119 callgsubr
          vhcurveto
          -36 -1 -29 -24 vvcurveto
          226 callgsubr
          -51 72 -78 69 38 19 31 47 10 vhcurveto
          98 hlineto
          14 12 1 2 11 hvcurveto
          5 -9 6 -9 7 -10 -60 -49 -123 -82 -131 -31 194 callsubr
          86 167 122 76 23 hvcurveto
          -37 47 58 -26 57 hhcurveto
          23 callsubr
          hvcurveto
          56 callgsubr
          -37 28 vhcurveto
          170 -102 callgsubr
        </CharString>
        <CharString name="dvBH_VA">
          361 310 164 callgsubr
          -62 -66 -33 -75 -15 vhcurveto
          -33 3 -37 2 -39 2 rrcurveto
          152 -8 -95 129 -90 hhcurveto
          -69 -36 -52 -57 -58 35 -61 58 2 callgsubr
          97 hlineto
          13 11 1 1 10 hvcurveto
          -76 37 84 -76 97 hhcurveto
          39 38 12 24 28 hvcurveto
          -5 -16 -3 -18 -18 vvcurveto
          -54 27 -55 73 -105 callsubr
        </CharString>
        <CharString name="dvBH_YA">
          378 744 -101 callsubr
          -307 268 callsubr
          -74 -99 -29 -40 -39 vhcurveto
          -31 2 -35 2 -36 2 rrcurveto
          152 -8 -95 129 -90 hhcurveto
          -69 -36 -52 -57 -58 35 -61 58 2 callgsubr
          97 hlineto
          8 7 0 1 7 hvcurveto
          -69 46 93 -65 90 hhcurveto
          23 callsubr
          hvcurveto
          56 callgsubr
          -37 28 vhcurveto
          170 -102 callgsubr
        </CharString>
        <CharString name="dvB_BA">
          367 622 215 84 callsubr
          -248 -131 94 callgsubr
          693 144 callsubr
          -104 127 52 callgsubr
          -18 4 -19 7 -19 vhcurveto
          -19 -22 -22 -17 -23 -12 -108 133 rcurveline
          -50 callsubr
          77 69 32 46 32 vhcurveto
          -45 45 60 -33 66 hhcurveto
          49 47 13 26 33 hvcurveto
          -4 -13 -3 -13 -14 vvcurveto
          -54 27 -55 73 -105 callsubr
        </CharString>
        <CharString name="dvB_BHA">
          409 268 214 rmoveto
          -2 -10 -11 -1 -11 hhcurveto
          -56 -46 27 51 24 10 18 17 14 hvcurveto
          483 324 87 callgsubr
          -35 -27 -14 -21 -18 hvcurveto
          35 -27 -56 0 -27 hhcurveto
          -330 -62 callgsubr
          294 218 callsubr
          -27 -2 -30 -8 -18 -25 -33 -46 -31 -44 -44 -27 -107 131 rcurveline
          -50 callsubr
          89 72 46 57 39 vhcurveto
          -21 24 28 -14 28 158 callsubr
        </CharString>
        <CharString name="dvB_BH_RA">
          426 268 214 rmoveto
          -2 -11 -10 -1 -11 hhcurveto
          -56 -46 27 51 24 10 18 17 14 hvcurveto
          500 324 208 callgsubr
          -59 vlineto
          321 callsubr
          136 -9 -92 135 -92 hhcurveto
          -35 -26 -13 -20 -18 hvcurveto
          33 -27 -56 0 -26 hhcurveto
          -349 -62 callgsubr
          311 hlineto
          -55 3 35 -56 55 hhcurveto
          -31 callgsubr
          -36 0 -29 -1 -24 vhcurveto
          -85 -5 6 -38 -47 -59 -22 -27 -25 -21 -26 200 callgsubr
          95 85 51 75 40 vhcurveto
          -17 22 28 -12 27 hhcurveto
          38 20 32 49 10 hvcurveto
          163 -13 hlineto
          -60 -46 -161 -98 -113 -22 157 callsubr
          30 80 17 123 124 hvcurveto
          -3 -15 -3 -16 -17 vvcurveto
          -51 26 -54 73 -105 callsubr
        </CharString>
        <CharString name="dvB_DA">
          247 268 214 94 callgsubr
          593 hlineto
          4 -7 3 -8 -9 -76 -268 14 -189 vvcurveto
          -8 vlineto
          -14 -14 -16 -11 -17 -9 -108 133 rcurveline
          -50 callsubr
          57 52 17 28 37 vhcurveto
          -63 53 87 -45 84 hhcurveto
          14 14 1 2 13 hvcurveto
          -78 callgsubr
        </CharString>
        <CharString name="dvB_DHA">
          389 268 213 rmoveto
          -1 -10 -11 -1 -11 hhcurveto
          -56 -46 27 51 24 10 18 17 14 hvcurveto
          551 324 104 callgsubr
          -62 -1 -49 -1 -40 vhcurveto
          -56 -33 -69 -43 -69 hhcurveto
          -39 -34 21 36 18 callsubr
          44 -43 31 -52 -32 -26 -8 -14 -22 326 callsubr
          9 10 vvcurveto
          62 38 41 62 vhcurveto
          10 -105 callgsubr
          -568 -62 callgsubr
          307 hlineto
          11 24 1 2 16 hvcurveto
          -9 -20 -4 -20 -20 vvcurveto
          -47 23 -45 36 -33 vhcurveto
          -37 -46 -31 -56 -52 -32 -107 132 rcurveline
          241 callgsubr
          120 -122 132 78 65 38 46 38 vhcurveto
          -49 42 69 -37 80 hhcurveto
          58 43 18 28 33 hvcurveto
          -4 -17 -3 -18 -18 -6 callsubr
        </CharString>
        <CharString name="dvB_DH_VA">
          703 266 216 rmoveto
          -3 -12 -12 -2 -14 hhcurveto
          -52 -42 29 49 24 10 18 17 14 hvcurveto
          544 86 callgsubr
          249 -14 callgsubr
          -53 -54 -26 -89 -37 vhcurveto
          -79 -33 -46 -97 -90 hhcurveto
          -36 -30 23 34 46 callgsubr
          -29 -24 -7 -12 -22 hvcurveto
          -3 10 -1 10 11 vvcurveto
          56 40 41 60 vhcurveto
          10 -105 callgsubr
          -561 -62 callgsubr
          292 hlineto
          21 21 1 3 17 hvcurveto
          -9 -20 -4 -21 -20 vvcurveto
          -45 22 -43 33 -33 vhcurveto
          -39 -43 -33 -52 -44 -34 -100 123 52 callgsubr
          -112 118 -123 126 80 63 46 47 31 vhcurveto
          -53 41 73 -43 85 hhcurveto
          68 66 45 64 32 hvcurveto
          -53 44 65 -42 73 hhcurveto
          39 38 12 24 28 hvcurveto
          -5 -16 -3 -18 -18 vvcurveto
          -54 27 -55 73 -105 callsubr
        </CharString>
        <CharString name="dvB_JA">
          513 268 214 9 callgsubr
        </CharString>
        <CharString name="dvB_JHA">
          520 894 175 callgsubr
          -477 -345 rmoveto
          -37 hlineto
          -56 -46 31 51 24 10 18 17 14 hvcurveto
          -236 86 callgsubr
          619 -32 callgsubr
          -3 0 -77 hlineto
          -132 161 rlineto
          1 5 -59 callgsubr
          -81 -88 -47 -102 -114 126 -129 129 vhcurveto
          113 hlineto
          16 -31 31 -26 40 -19 rrcurveto
          -98 31 57 -128 114 hhcurveto
          47 40 30 45 26 -12 24 -19 16 hvcurveto
          -16 -19 -24 -5 -18 hhcurveto
          -53 -39 39 43 -28 hvcurveto
          -5 27 29 -3 30 hhcurveto
          101 71 55 88 28 -7 24 -10 22 hvcurveto
          -9 22 21 -3 19 hhcurveto
          21 17 5 7 13 hvcurveto
          -5 -27 -3 -31 -29 vvcurveto
          -66 23 -62 80 -75 callsubr
        </CharString>
        <CharString name="dvB_J_YA">
          853 1219 -101 callsubr
          -830 -338 25 callgsubr
          -236 86 callgsubr
          970 74 callsubr
          -78 61 175 -62 77 callsubr
          -18 8 -30 15 -35 vhcurveto
          -21 -37 -31 -26 -33 -18 -108 133 rcurveline
          -50 callsubr
          88 79 40 59 34 vhcurveto
          -61 49 66 -49 77 284 callsubr
          87 -1 22 -10 61 -74 rrcurveto
          -63 52 81 -52 82 hhcurveto
          23 callsubr
          hvcurveto
          56 callgsubr
          -37 28 vhcurveto
          170 -102 callgsubr
        </CharString>
        <CharString name="dvB_JxA">
          522 720 28 -75 callgsubr
          -452 186 9 callgsubr
        </CharString>
        <CharString name="dvB_LA">
          515 268 214 25 callgsubr
          134 324 rmoveto
          -1 hlineto
          -369 -62 callgsubr
          367 hlineto
          3 hlineto
          216 callgsubr
          -19 -24 -24 -19 -25 -13 -108 133 rcurveline
          -50 callsubr
          60 55 19 31 37 vhcurveto
          -84 43 72 -63 44 hhcurveto
          117 callsubr
          hvcurveto
          -96 callgsubr
        </CharString>
        <CharString name="dvB_L_YA">
          847 1213 -101 callsubr
          -824 -338 25 callgsubr
          634 324 rmoveto
          0 -501 0 -369 313 callgsubr
          964 285 callsubr
          -54 -52 -29 -43 -28 vhcurveto
          24 -25 -38 16 -44 40 callgsubr
          -99 -63 -68 -102 hvcurveto
          -8 vlineto
          -18 -20 -21 -16 -22 -12 -108 133 rcurveline
          -50 callsubr
          57 53 18 28 37 vhcurveto
          -82 43 71 -61 43 hhcurveto
          117 callsubr
          hvcurveto
          47 callgsubr
          3 4 0 3 hhcurveto
          -85 13 124 -114 119 hhcurveto
          23 callsubr
          hvcurveto
          56 callgsubr
          -37 28 vhcurveto
          170 -102 callgsubr
        </CharString>
        <CharString name="dvB_NA">
          12 267 215 84 callsubr
          -236 86 callgsubr
          338 hlineto
          -69 callgsubr
          -54 -1 -44 -38 vvcurveto
          -17 -29 -24 -25 -29 -19 -105 129 52 callgsubr
          -79 72 -103 97 -31 vhcurveto
          -60 -24 -39 -31 -32 123 callgsubr
          18 -6 22 -11 25 vhcurveto
          53 33 47 27 28 28 rrcurveto
          -6 -15 -4 -17 -19 vvcurveto
          -54 27 -55 73 -105 callsubr
        </CharString>
        <CharString name="dvB_R">
          -235 413 -42 callgsubr
          -369 -62 callgsubr
          227 -345 rmoveto
          -1 -10 -10 -1 -10 hhcurveto
          -60 -49 29 55 24 10 18 17 14 hvcurveto
          62 23 126 callsubr
          -81 -88 -47 -102 -86 91 -134 133 9 12 1 3 12 vhcurveto
          -51 -33 -57 -31 -53 -20 rrcurveto
          -51 19 40 -16 35 hhcurveto
          90 172 203 79 36 -17 25 -30 12 hvcurveto
          -22 -48 -36 -33 -39 -20 rrcurveto
          endchar
        </CharString>
        <CharString name="dvB_RA">
          12 270 212 294 callgsubr
          -236 86 callgsubr
          271 callsubr
          -108 133 52 callgsubr
          -85 87 -133 126 6 7 0 1 8 vhcurveto
          -47 -33 -52 -30 -50 -20 rrcurveto
          -51 19 41 -16 35 hhcurveto
          78 88 118 60 39 hvcurveto
          -6 -21 -3 -21 -22 vvcurveto
          -57 35 -39 60 -105 callsubr
        </CharString>
        <CharString name="dvB_SA">
          522 894 -35 callsubr
          -400 -338 25 callgsubr
          -236 86 callgsubr
          531 hlineto
          29 -22 15 -39 -40 callsubr
          -43 -20 -37 -33 -23 7 -21 11 -18 hvcurveto
          -21 -28 -25 -21 -27 -14 -108 132 rcurveline
          -50 callsubr
          89 78 41 63 40 vhcurveto
          -97 30 53 -120 96 -87 callgsubr
        </CharString>
        <CharString name="dvB_SHA">
          496 413 -42 callgsubr
          -369 -62 callgsubr
          222 -338 25 callgsubr
          62 23 rmoveto
          -50 callsubr
          99 86 48 70 36 vhcurveto
          0 vlineto
          -39 callsubr
          34 -13 -30 59 -54 hhcurveto
          -37 -23 -29 -31 -20 6 -18 9 -17 hvcurveto
          -21 -27 -27 -21 -28 -14 rrcurveto
          487 435 -60 callgsubr
        </CharString>
        <CharString name="dvB_TA">
          329 268 214 94 callgsubr
          659 245 callgsubr
          237 callsubr
          -90 -79 -39 -110 -4 hvcurveto
          -20 -27 -24 -20 -27 200 callgsubr
          60 55 19 31 37 vhcurveto
          -77 37 57 -64 36 220 callgsubr
          102 hlineto
          -2 -77 -2 -50 -54 vvcurveto
          -43 2 -109 104 -103 callsubr
          163 -102 callgsubr
        </CharString>
        <CharString name="dvB_VA">
          339 268 214 94 callgsubr
          665 -33 callgsubr
          -17 3 -18 7 -18 vhcurveto
          -20 -26 -24 -20 -27 200 callgsubr
          82 73 36 53 30 vhcurveto
          -43 42 57 -31 62 hhcurveto
          39 38 12 24 28 hvcurveto
          -5 -16 -3 -18 -18 vvcurveto
          -54 27 -55 73 -105 callsubr
        </CharString>
        <CharString name="dvB_YA">
          377 743 -101 callsubr
          -354 -338 25 callgsubr
          154 324 rmoveto
          0 vlineto
          -8 -7 0 -6 hhcurveto
          -369 -62 callgsubr
          367 0 hlineto
          9 8 238 callsubr
          -15 4 -17 8 -17 vhcurveto
          -20 -28 -26 -21 -28 -15 -108 133 rcurveline
          -50 callsubr
          91 79 44 61 22 vhcurveto
          -42 48 64 -31 62 hhcurveto
          23 callsubr
          hvcurveto
          56 callgsubr
          -37 28 vhcurveto
          170 -102 callgsubr
        </CharString>
        <CharString name="dvC">
          -150 497 240 callsubr
          331 -203 rmoveto
          -13 callgsubr
          -88 101 -122 130 108 84 67 71 31 -14 37 -46 22 vhcurveto
          296 callgsubr
        </CharString>
        <CharString name="dvCA">
          81 -87 -98 callgsubr
          419 hlineto
          -69 callgsubr
          vvcurveto
          -46 0 -39 -1 -35 vhcurveto
          -78 -29 -65 -34 -53 172 callsubr
          41 39 13 25 28 vhcurveto
          -4 -16 -2 -17 -17 vvcurveto
          -52 23 -51 72 -105 callsubr
        </CharString>
        <CharString name="dvCH">
          102 750 -42 callgsubr
          -696 hlineto
          7 callgsubr
          100 -69 111 -109 261 callgsubr
          vhcurveto
          92 callsubr
          endchar
        </CharString>
        <CharString name="dvCHA">
          105 430 552 rmoveto
          -14 callsubr
          81 -35 78 -60 33 vhcurveto
          -4 25 -8 24 -19 16 rrcurveto
          224 -102 callgsubr
        </CharString>
        <CharString name="dvCH_R">
          102 349 -3 -43 callsubr
          401 555 -48 callsubr
          -696 hlineto
          7 callgsubr
          100 -69 111 -109 261 callgsubr
          vhcurveto
          92 callsubr
          endchar
        </CharString>
        <CharString name="dvCH_RA">
          102 349 -3 -43 callsubr
          81 555 rmoveto
          -14 callsubr
          81 -35 78 -60 33 vhcurveto
          -4 25 -8 24 -19 16 rrcurveto
          224 -102 callgsubr
        </CharString>
        <CharString name="dvCH_R_YA">
          669 349 -3 -43 callsubr
          689 555 107 callgsubr
          -75 -66 -15 -22 -48 vhcurveto
          31 -30 -40 21 -47 hhcurveto
          261 callgsubr
          hvcurveto
          92 callsubr
          -291 117 rmoveto
          7 callgsubr
          20 -3 21 -5 20 vhcurveto
          20 58 71 14 65 hhcurveto
          18 6 -9 -8 hvcurveto
          -33 -128 -38 -66 vvcurveto
          -66 101 -100 100 221 callsubr
          22 -40 64 -105 callsubr
        </CharString>
        <CharString name="dvCH_YA">
          669 1038 552 107 callgsubr
          -72 -64 -14 -21 -49 vhcurveto
          -11 12 -13 11 -14 8 -4 25 -8 24 -19 16 rrcurveto
          -96 hmoveto
          -14 callsubr
          21 -2 21 -5 20 vhcurveto
          19 58 70 14 65 hhcurveto
          18 6 -9 -8 hvcurveto
          -33 -128 -38 -66 vvcurveto
          -66 101 -100 100 221 callsubr
          22 -40 64 -105 callsubr
        </CharString>
        <CharString name="dvC_CA">
          408 422 349 rmoveto
          18 17 4 6 17 hvcurveto
          -4 -14 -2 -13 -14 vvcurveto
          -10 1 -11 3 -11 vhcurveto
          -46 -42 -60 -24 -48 hhcurveto
          -45 -36 24 40 239 callsubr
          -417 320 -101 callgsubr
          744 hlineto
          -69 callgsubr
          vvcurveto
          -46 0 -39 -1 -35 vhcurveto
          -78 -29 -65 -34 -53 hhcurveto
          -45 -36 24 40 239 callsubr
          35 hlineto
          -71 callsubr
          12 -102 callsubr
          -569 87 callsubr
          17 vhcurveto
          225 callsubr
          -88 101 -122 130 71 60 29 39 33 vhcurveto
          -39 42 56 -29 63 hhcurveto
          41 39 13 25 28 hvcurveto
          -4 -16 -2 -17 -17 vvcurveto
          -52 23 -51 72 -105 callsubr
        </CharString>
        <CharString name="dvC_CHA">
          512 837 65 callgsubr
          -27 -23 -5 -9 -21 hvcurveto
          -4 14 -2 14 14 vvcurveto
          42 20 42 45 24 vhcurveto
          -720 -81 callsubr
          392 hlineto
          19 16 1 2 12 hvcurveto
          -10 -23 -4 -23 -23 vvcurveto
          -47 19 -46 31 -37 vhcurveto
          -59 -60 -39 -81 -93 hhcurveto
          -44 -34 25 39 239 callsubr
          35 hlineto
          -13 callgsubr
          -88 101 -122 130 52 42 21 29 30 vhcurveto
          -83 53 111 -53 109 hhcurveto
          312 callgsubr
          hvcurveto
          -4 25 -8 24 -19 16 rrcurveto
          224 -102 callgsubr
        </CharString>
        <CharString name="dvC_CH_VA">
          494 822 552 rmoveto
          11 -13 5 -21 2 -22 rrcurveto
          -53 -21 -27 -58 -53 vvcurveto
          -83 37 -45 21 -83 vhcurveto
          -18 -40 -44 -9 -40 hhcurveto
          -78 -61 37 58 32 17 22 24 15 hvcurveto
          -4 13 15 -2 14 hhcurveto
          40 40 21 39 41 -44 28 -52 -24 -20 -5 -8 -18 hvcurveto
          -5 14 -2 15 15 vvcurveto
          42 20 42 45 24 vhcurveto
          266 -357 rmoveto
          -16 34 -13 36 46 vvcurveto
          46 26 38 33 30 11 -29 -21 -63 -29 -50 -42 -37 vhcurveto
          -51 -209 rmoveto
          -66 -26 -51 -52 -69 hhcurveto
          -42 -35 29 39 63 71 20 73 3 hvcurveto
          28 1 26 3 25 6 rrcurveto
          -920 637 -101 callgsubr
          353 hlineto
          33 24 1 2 15 hvcurveto
          -11 -23 -4 -23 -23 vvcurveto
          -48 20 -48 32 -37 vhcurveto
          -58 -55 -38 -79 -88 hhcurveto
          -43 -33 25 39 239 callsubr
          35 hlineto
          -13 callgsubr
          -87 99 -121 127 47 41 19 28 27 vhcurveto
          18 -26 24 -22 29 -17 rrcurveto
          -28 -22 -19 -35 -49 vvcurveto
          -90 104 -132 126 38 36 12 22 27 vhcurveto
          -4 -18 -2 -19 -20 vvcurveto
          -60 24 -58 71 9 13 1 5 11 vhcurveto
          -9 17 -3 46 33 83 4 92 87 vvcurveto
          34 -5 30 -8 25 vhcurveto
          67 47 39 74 98 vvcurveto
          69 -35 83 -60 37 vhcurveto
          -3 26 -8 25 -20 17 rrcurveto
          224 -102 callgsubr
        </CharString>
        <CharString name="dvC_MA">
          478 698 431 -47 callsubr
          -785 186 callsubr
          515 hlineto
          17 -26 0 -51 -42 vvcurveto
          -14 0 -15 -1 -15 vhcurveto
          -51 -3 -18 -17 -22 -42 rrcurveto
          -71 -38 -46 -40 -70 172 callsubr
          75 66 43 52 31 vhcurveto
          -19 23 27 -13 26 -78 callsubr
        </CharString>
        <CharString name="dvC_NA">
          82 -87 -98 callgsubr
          419 hlineto
          -69 callgsubr
          vvcurveto
          -46 0 -39 -1 -35 vhcurveto
          -78 -29 -65 -34 -53 hhcurveto
          -45 -36 24 40 239 callsubr
          35 hlineto
          -13 callgsubr
          -60 48 -79 73 -30 vhcurveto
          -72 -33 -53 -39 -37 123 callgsubr
          18 -6 21 -10 24 vhcurveto
          69 40 60 27 32 31 rrcurveto
          -5 -19 -3 -22 -22 vvcurveto
          -52 23 -51 72 -103 callsubr
          168 -105 callgsubr
          endchar
        </CharString>
        <CharString name="dvC_R">
          -150 497 240 callsubr
          331 -203 rmoveto
          -13 callgsubr
          -64 54 -83 79 -27 vhcurveto
          -60 -25 -62 -21 -55 -10 rrcurveto
          -50 3 39 -42 60 hhcurveto
          93 272 143 115 28 -16 34 -44 20 hvcurveto
          296 callgsubr
        </CharString>
        <CharString name="dvC_RA">
          82 -87 -98 callgsubr
          419 hlineto
          -69 callgsubr
          vvcurveto
          -46 0 -39 -1 -35 vhcurveto
          -78 -29 -65 -34 -53 hhcurveto
          -45 -36 24 40 239 callsubr
          35 hlineto
          -13 callgsubr
          -64 54 -83 79 -27 vhcurveto
          -60 -25 -62 -21 -55 -10 157 callsubr
          64 141 86 76 70 265 callgsubr
          -20 vvcurveto
          -52 23 -51 72 -103 callsubr
          168 -105 callgsubr
          endchar
        </CharString>
        <CharString name="dvC_YA">
          459 825 -101 callsubr
          -791 -81 callsubr
          588 285 callsubr
          -77 -100 -23 -42 -46 vhcurveto
          -55 -50 -7 -107 -111 172 callsubr
          84 62 50 60 29 vhcurveto
          -47 49 69 -36 67 hhcurveto
          23 callsubr
          hvcurveto
          56 callgsubr
          -37 28 vhcurveto
          170 -102 callgsubr
        </CharString>
        <CharString name="dvCandrabindu">
          155 callgsubr
        </CharString>
        <CharString name="dvD">
          -117 224 -52 -53 callsubr
          307 604 -48 callsubr
          -478 -62 callgsubr
          184 callgsubr
          -76 -268 14 -189 vvcurveto
          -122 142 -115 134 13 12 1 2 12 vhcurveto
          -57 22 50 -50 63 hhcurveto
          56 25 38 34 36 -18 28 -25 20 hvcurveto
          -23 -14 -20 -16 -27 hhcurveto
          -17 -15 5 8 -12 hvcurveto
          31 19 20 31 44 vvcurveto
          53 -42 53 -50 -42 -33 -31 -46 -13 2 -13 3 -12 vhcurveto
          -6 -16 -19 -2 -19 hhcurveto
          -50 -53 28 56 hvcurveto
          141 273 -28 138 vvcurveto
          25 -17 29 -20 20 vhcurveto
          endchar
        </CharString>
        <CharString name="dvDA">
          -99 -66 -98 callgsubr
          184 callgsubr
          -76 -268 14 -189 vvcurveto
          -122 142 -115 134 14 14 1 2 13 vhcurveto
          -78 callgsubr
        </CharString>
        <CharString name="dvDA_mvR">
          -114 122 callsubr
          225 313 callsubr
          -22 -25 1 -17 hhcurveto
          -99 -41 -51 -61 -34 15 -37 27 -32 hvcurveto
          -28 -22 -18 -31 -38 vvcurveto
          -121 129 -72 119 103 76 52 68 45 -33 36 -42 8 vhcurveto
          -70 -26 -68 -37 -75 hhcurveto
          -36 -36 19 33 21 11 13 14 9 hvcurveto
          -6 15 16 -4 15 hhcurveto
          41 41 23 41 43 -46 28 -54 -18 -18 -2 -5 -17 hvcurveto
          -3 7 -1 6 7 vvcurveto
          28 16 23 50 vhcurveto
          17 30 -1 18 hhcurveto
          76 36 40 45 31 -15 35 -29 29 hvcurveto
          185 -102 callgsubr
        </CharString>
        <CharString name="dvDD">
          -43 278 -44 -53 callsubr
          -343 713 -86 callsubr
          181 -105 callgsubr
          endchar
        </CharString>
        <CharString name="dvDDA">
          -43 -65 669 -86 callsubr
          181 -105 callgsubr
          endchar
        </CharString>
        <CharString name="dvDDH">
          -77 248 -26 -53 callsubr
          -331 695 -101 callgsubr
          206 callgsubr
          -66 -272 4 -205 -57 callgsubr
        </CharString>
        <CharString name="dvDDHA">
          -77 -83 -98 callgsubr
          206 callgsubr
          -66 -272 4 -205 -57 callgsubr
        </CharString>
        <CharString name="dvDDH_DDHA">
          -62 -70 callsubr
          247 hlineto
          7 -7 3 -7 -7 -54 -272 3 -168 vvcurveto
          -87 66 -83 83 -47 vhcurveto
          -71 -23 -76 -52 -90 vvcurveto
          -129 150 -121 134 118 68 58 73 92 -84 73 -83 209 callsubr
          16 3 12 5 10 vhcurveto
          18 9 15 8 15 221 callgsubr
          hvcurveto
          175 357 -61 197 141 callgsubr
        </CharString>
        <CharString name="dvDDH_R">
          -77 431 -242 -22 callsubr
          -344 864 -101 callgsubr
          206 callgsubr
          -66 -272 4 -205 -57 callgsubr
        </CharString>
        <CharString name="dvDDH_RA">
          -77 250 -16 -43 callsubr
          -333 685 -101 callgsubr
          206 callgsubr
          -66 -272 4 -205 -57 callgsubr
        </CharString>
        <CharString name="dvDDH_VA">
          -77 311 62 rmoveto
          2 -7 1 -9 -8 vvcurveto
          -25 vlineto
          330 callsubr
          56 62 29 118 hvcurveto
          -390 607 -101 callgsubr
          247 hlineto
          7 -7 3 -7 -7 -54 -272 3 -168 vvcurveto
          -67 40 -64 56 -47 vhcurveto
          -59 -19 -35 -39 -51 vvcurveto
          -81 90 -120 111 46 26 12 23 22 vhcurveto
          -4 -14 -2 -15 -14 165 callgsubr
          26 -1 39 -23 24 vhcurveto
          63 23 34 49 52 141 callgsubr
        </CharString>
        <CharString name="dvDDH_YA">
          510 879 164 callsubr
          -12 -14 2 11 hvcurveto
          34 111 17 81 vvcurveto
          55 -69 101 -113 -118 -90 -107 -55 -37 vhcurveto
          8 -20 -22 5 -21 hhcurveto
          -60 -45 -39 -53 -53 42 -31 40 7 10 1 3 7 hvcurveto
          15 2 13 3 10 vhcurveto
          28 8 17 12 16 hhcurveto
          16 13 -13 -22 -38 -38 -57 -84 -70 -65 45 69 hvcurveto
          162 275 -27 124 vvcurveto
          35 -20 24 -18 15 vhcurveto
          -455 -81 callsubr
          206 callgsubr
          -66 -272 4 -205 vvcurveto
          -142 161 -113 125 105 81 54 91 31 -9 28 -14 25 vhcurveto
          67 46 78 70 81 hhcurveto
          21 7 -7 -5 hvcurveto
          -30 -130 -38 -59 vvcurveto
          -67 106 -102 105 53 41 17 22 30 vhcurveto
          -1 -5 0 -6 -5 vvcurveto
          -50 22 -47 67 -105 callsubr
        </CharString>
        <CharString name="dvDDHxA">
          -77 263 -41 -75 callgsubr
          -346 710 -101 callgsubr
          206 callgsubr
          -66 -272 4 -205 -57 callgsubr
        </CharString>
        <CharString name="dvDD_DDA">
          -33 207 callgsubr
          -40 -63 -93 88 -82 101 hvcurveto
          249 callsubr
          -26 28 -33 51 -23 vhcurveto
          -26 -16 -14 -25 -31 vvcurveto
          -86 88 -76 100 vhcurveto
          249 callsubr
          -60 153 -87 171 87 84 40 88 58 -58 99 -116 vhcurveto
          -47 -59 -9 -45 hhcurveto
          -22 -22 9 22 33 65 3 37 hvcurveto
          0 52 -2 44 87 84 40 88 58 -58 99 -116 vhcurveto
          -47 -59 -9 -45 hhcurveto
          -22 -22 9 22 33 65 3 219 callsubr
        </CharString>
        <CharString name="dvDD_DDHA">
          -28 207 callgsubr
          -39 -63 -93 88 -81 101 hvcurveto
          60 58 8 33 hhcurveto
          21 9 -8 -13 -26 -62 -20 -84 -98 -88 29 45 -53 hvcurveto
          -7 -4 -16 -9 -24 vvcurveto
          -34 50 -43 74 -30 vhcurveto
          -56 -25 -37 -41 -66 vvcurveto
          -132 161 -109 120 118 68 58 73 92 -84 73 -83 209 callsubr
          13 2 10 3 9 vhcurveto
          22 8 18 10 16 221 callgsubr
          87 101 30 110 11 hvcurveto
          73 7 73 37 76 vvcurveto
          58 -58 99 -116 vhcurveto
          -47 -59 -9 -45 hhcurveto
          -22 -22 8 22 33 65 2 219 callsubr
        </CharString>
        <CharString name="dvDD_R">
          -43 460 -260 -22 callsubr
          -355 882 -86 callsubr
          181 -105 callgsubr
          endchar
        </CharString>
        <CharString name="dvDD_RA">
          -43 283 -34 -43 callsubr
          -348 703 -86 callsubr
          181 -105 callgsubr
          endchar
        </CharString>
        <CharString name="dvDD_VA">
          -33 368 -25 rmoveto
          -12 0 -13 -1 -13 vhcurveto
          -50 -31 -54 -26 -46 hhcurveto
          -40 -33 20 41 35 34 37 89 30 27 2 3 25 hvcurveto
          -7 0 -8 -9 vvcurveto
          -433 694 -101 callgsubr
          301 -12 callgsubr
          -91 -50 -45 -72 -103 88 -87 101 hvcurveto
          -34 callsubr
          -34 36 -42 58 -35 vhcurveto
          -35 -19 -26 -33 -49 vvcurveto
          -74 89 -115 113 45 33 15 22 24 vhcurveto
          -4 -14 -2 -14 -14 vvcurveto
          -53 29 -45 59 10 12 1 5 11 vhcurveto
          -10 16 -3 45 32 50 4 57 54 vvcurveto
          31 -1 45 -27 24 vhcurveto
          52 23 27 38 53 vvcurveto
          97 -82 84 -98 vhcurveto
          -45 -56 -9 -43 hhcurveto
          -22 -22 9 22 38 65 2 301 callsubr
          40 49 29 -13 32 -25 26 hvcurveto
          181 -102 callgsubr
        </CharString>
        <CharString name="dvDD_YA">
          540 909 164 callsubr
          -12 -14 2 11 hvcurveto
          34 111 17 81 vvcurveto
          55 -65 101 -106 -121 -91 -121 -56 -33 vhcurveto
          9 -22 -23 5 -24 -45 -56 -9 -43 hhcurveto
          -22 -22 9 22 38 65 2 37 hvcurveto
          32 16 -1 36 hhcurveto
          74 35 40 49 29 -10 32 -23 26 hvcurveto
          -490 -81 callsubr
          285 hlineto
          12 -9 6 -10 -11 vvcurveto
          -20 -17 -9 -26 vhcurveto
          1 -47 -18 0 -35 255 callsubr
          -34 callsubr
          -67 151 -106 171 107 65 59 84 30 -8 29 -14 26 vhcurveto
          75 45 80 81 84 hhcurveto
          13 4 -7 -5 hvcurveto
          -30 -130 -38 -59 vvcurveto
          -67 106 -102 105 53 41 17 22 30 vhcurveto
          -1 -5 0 -6 -5 vvcurveto
          -50 22 -47 67 -105 callsubr
        </CharString>
        <CharString name="dvDDxA">
          -43 301 -77 -75 callgsubr
          -366 746 -86 callsubr
          181 -105 callgsubr
          endchar
        </CharString>
        <CharString name="dvDH">
          -190 262 -42 callgsubr
          -221 126 callgsubr
          -26 -6 -11 -23 326 callsubr
          10 10 vvcurveto
          56 40 41 60 vhcurveto
          endchar
        </CharString>
        <CharString name="dvDHA">
          39 362 -8 callsubr
          -221 39 callsubr
          -87 102 -102 132 58 43 18 28 33 vhcurveto
          -4 -17 -3 -18 -18 -6 callsubr
        </CharString>
        <CharString name="dvDH_MA">
          432 652 431 -47 callsubr
          -328 186 callsubr
          260 callgsubr
          -54 -15 -35 hhcurveto
          -45 -39 21 36 180 callsubr
          -221 39 callsubr
          -87 107 -102 138 76 70 39 62 36 vhcurveto
          -20 23 28 -14 27 -78 callsubr
        </CharString>
        <CharString name="dvDH_NA">
          39 362 669 104 callgsubr
          -61 -1 -47 -1 -41 vhcurveto
          -57 -32 -68 -44 -71 93 callgsubr
          -23 335 callsubr
          8 8 vvcurveto
          62 38 41 62 vhcurveto
          10 -105 callgsubr
          -221 39 callsubr
          -61 49 -66 74 -26 vhcurveto
          -70 -27 -51 -37 -37 123 callgsubr
          17 -5 19 -9 23 vhcurveto
          87 45 58 19 35 34 rrcurveto
          -4 -18 -3 -20 -19 -6 callsubr
        </CharString>
        <CharString name="dvDH_N_YA">
          407 773 -24 callsubr
          -23 326 callsubr
          10 10 vvcurveto
          56 40 41 60 vhcurveto
          10 hlineto
          -71 callsubr
          14 -72 callgsubr
          -90 0 -36 vhcurveto
          -221 39 callsubr
          -59 47 -67 73 -36 vhcurveto
          -114 -23 -41 -38 -36 123 callgsubr
          17 -6 21 -10 24 vhcurveto
          138 18 99 64 36 86 rrcurveto
          -49 50 70 -38 69 hhcurveto
          23 callsubr
          hvcurveto
          56 callgsubr
          -37 28 vhcurveto
          170 -102 callgsubr
        </CharString>
        <CharString name="dvDH_R">
          -190 262 -42 callgsubr
          -221 39 callsubr
          -72 71 -84 101 -12 vhcurveto
          -63 -21 -69 -18 -52 -8 rrcurveto
          -48 34 -43 56 124 249 162 115 27 -18 35 -52 7 vhcurveto
          -77 -32 -80 -58 -85 93 callgsubr
          -23 335 callsubr
          8 8 vvcurveto
          62 38 41 62 vhcurveto
          endchar
        </CharString>
        <CharString name="dvDH_RA">
          39 362 -8 callsubr
          -221 39 callsubr
          -67 62 -77 89 -20 vhcurveto
          -57 -23 -60 -20 -46 -8 rrcurveto
          -51 40 -45 65 58 124 71 103 93 vhcurveto
          -4 -19 -3 -20 -20 -6 callsubr
        </CharString>
        <CharString name="dvDH_VA">
          372 321 5 callgsubr
          -221 hlineto
          -3 -6 -2 -13 -8 vvcurveto
          -71 58 -18 51 10 9 1 1 8 vhcurveto
          -8 118 callgsubr
        </CharString>
        <CharString name="dvDH_YA">
          407 773 -24 callsubr
          -23 326 callsubr
          10 10 vvcurveto
          56 40 41 60 vhcurveto
          10 hlineto
          -71 callsubr
          14 -72 callgsubr
          -90 0 -36 vhcurveto
          -221 39 callsubr
          -87 102 -102 132 82 74 52 65 33 vhcurveto
          -48 50 70 -38 68 hhcurveto
          23 callsubr
          hvcurveto
          56 callgsubr
          -37 28 vhcurveto
          170 -102 callgsubr
        </CharString>
        <CharString name="dvD_BA">
          299 callsubr
          20 20 2 3 18 hvcurveto
          -3 -48 -24 -35 -31 -23 rrcurveto
          -50 -24 rmoveto
          -4 -15 -15 -2 -15 hhcurveto
          -47 -42 20 40 181 callgsubr
          -105 139 -84 88 98 74 58 80 14 vhcurveto
          -22 25 30 -15 36 -44 callsubr
        </CharString>
        <CharString name="dvD_BHA">
          187 -70 -98 callgsubr
          496 275 callgsubr
          -63 -304 42 -180 vvcurveto
          -78 79 -80 93 -39 vhcurveto
          -29 -9 -31 -11 -36 -14 rrcurveto
          84 -50 -83 77 -91 hhcurveto
          -55 -51 -34 -59 -57 51 -62 57 19 17 7 12 12 hvcurveto
          -23 18 -17 32 29 vvcurveto
          18 12 14 16 28 32 -62 -60 25 vhcurveto
          -27 -14 -32 -23 -34 vvcurveto
          -62 81 -29 49 42 36 20 43 13 -2 14 -4 16 vhcurveto
          218 105 rlineto
          -67 28 48 -62 75 hhcurveto
          56 31 38 40 32 -19 27 -24 13 hvcurveto
          -12 -7 -20 -15 -29 hhcurveto
          -32 -25 17 21 -19 hvcurveto
          31 20 22 33 43 vvcurveto
          51 -35 46 -46 -42 -35 -30 -46 -11 2 -12 4 -11 vhcurveto
          -6 -19 -22 -3 -23 hhcurveto
          -50 -73 18 62 hvcurveto
          118 306 -50 127 45 callsubr
        </CharString>
        <CharString name="dvD_B_RA">
          299 callsubr
          22 22 2 4 20 hvcurveto
          -3 -51 -23 -38 -34 -23 rrcurveto
          -50 -24 rmoveto
          -4 -14 -15 -2 -15 hhcurveto
          -50 -44 22 43 181 callgsubr
          -91 93 -59 78 -1 vhcurveto
          -42 -20 -44 -18 -42 -13 rrcurveto
          -56 5 48 -14 33 hhcurveto
          82 167 100 127 30 hvcurveto
          -26 25 32 -17 39 -44 callsubr
        </CharString>
        <CharString name="dvD_DA">
          -90 122 callsubr
          242 313 callsubr
          -28 -31 1 -22 hhcurveto
          -99 -41 -51 -61 -34 16 -36 27 -32 hvcurveto
          -28 -23 -19 -33 -39 vvcurveto
          -93 115 -108 148 27 29 5 10 27 vhcurveto
          -4 0 -4 -3 vvcurveto
          -42 -33 -25 -42 -7 vhcurveto
          -46 8 39 -31 40 hhcurveto
          64 28 44 49 37 -17 37 -29 31 hvcurveto
          20 20 13 27 35 vvcurveto
          49 -38 44 -44 -36 -29 -26 -37 -17 5 -18 10 -14 vhcurveto
          -16 -24 -29 -8 -39 hhcurveto
          -51 -51 23 45 22 13 17 18 11 hvcurveto
          -5 13 14 -2 13 hhcurveto
          41 41 23 41 43 -46 28 -54 -18 -18 -3 -5 -18 hvcurveto
          -2 6 -1 6 6 vvcurveto
          26 17 22 52 vhcurveto
          22 37 -1 23 hhcurveto
          74 35 41 47 31 -15 35 -29 29 hvcurveto
          185 -102 callgsubr
        </CharString>
        <CharString name="dvD_DHA">
          164 493 135 callsubr
          -563 565 242 callsubr
          -53 38 -54 56 -41 vhcurveto
          -20 -53 -23 -43 -51 hhcurveto
          -30 -20 18 28 hvcurveto
          37 41 34 45 vvcurveto
          55 -42 34 -47 -6 -8 -1 -1 -4 vhcurveto
          3 -8 1 -9 -9 -41 -42 -33 -54 vvcurveto
          -96 94 -84 90 13 13 2 4 13 vhcurveto
          -80 17 112 -62 73 hhcurveto
          98 73 53 73 15 hvcurveto
          -23 25 30 -15 36 -44 callsubr
        </CharString>
        <CharString name="dvD_GA">
          -1 -60 669 181 callsubr
          -91 115 -65 -77 vvcurveto
          -14 -3 -13 -7 -13 281 callsubr
          40 -13 37 -23 34 hvcurveto
          -15 41 41 -8 33 hhcurveto
          21 20 2 4 19 hvcurveto
          -68 28 49 -67 77 hhcurveto
          56 31 38 40 32 -19 27 -24 13 hvcurveto
          -12 -7 -20 -15 -29 hhcurveto
          -32 -26 17 21 -18 hvcurveto
          32 22 21 32 42 vvcurveto
          51 -35 46 -46 -42 -35 -30 -46 -11 2 -12 4 -11 vhcurveto
          -9 -25 -30 -4 -31 hhcurveto
          -52 -77 14 60 hvcurveto
          124 334 -53 134 45 callsubr
        </CharString>
        <CharString name="dvD_GHA">
          164 493 135 callsubr
          -323 5 rmoveto
          -30 -20 18 28 31 26 28 54 42 28 -21 -20 28 hvcurveto
          -21 -54 -23 -43 -51 hhcurveto
          -240 560 242 callsubr
          -9 1 -9 3 -9 vhcurveto
          9 -23 -26 4 -19 hhcurveto
          -78 -45 -45 -57 -96 94 -84 90 13 13 2 4 13 hvcurveto
          -80 17 112 -62 73 hhcurveto
          98 73 53 73 15 hvcurveto
          -23 25 30 -15 36 -44 callsubr
        </CharString>
        <CharString name="dvD_G_RA">
          -1 -60 669 181 callsubr
          -79 86 -52 -75 vvcurveto
          -19 -4 -15 -8 -11 281 callsubr
          36 -8 31 -12 28 hvcurveto
          28 -12 29 -8 26 -4 rrcurveto
          6 -22 0 -32 -28 vvcurveto
          -35 0 -31 -1 -28 vhcurveto
          -46 -36 -116 -75 -85 -18 rrcurveto
          -39 3 28 -32 45 hhcurveto
          22 66 15 87 93 hvcurveto
          -3 -10 -2 -12 -12 vvcurveto
          -38 17 -40 56 8 11 1 5 11 vhcurveto
          -9 14 -2 39 27 65 2 72 69 vvcurveto
          27 0 39 -21 25 vhcurveto
          10 1 10 2 9 2 rrcurveto
          -69 28 50 -67 77 hhcurveto
          56 31 38 40 32 -19 27 -24 13 hvcurveto
          -12 -7 -20 -15 -29 hhcurveto
          -33 -27 18 23 -19 hvcurveto
          31 21 19 31 41 vvcurveto
          51 -35 46 -46 -42 -35 -30 -46 -11 2 -12 4 -11 vhcurveto
          -9 -25 -30 -4 -31 hhcurveto
          -52 -77 14 60 hvcurveto
          124 334 -53 134 45 callsubr
        </CharString>
        <CharString name="dvD_MA">
          156 537 552 rmoveto
          14 -21 0 -41 -34 vvcurveto
          -126 -2 -83 -1 -70 vhcurveto
          -40 2 -43 2 -37 1 rrcurveto
          85 -31 -76 60 -81 -34 -22 -12 -28 hhcurveto
          -22 -20 7 24 39 65 2 301 callsubr
          39 46 27 -13 30 -24 24 hvcurveto
          -471 -81 callsubr
          265 -12 callgsubr
          -91 -50 -41 -67 -94 83 -81 104 hvcurveto
          35 23 16 31 hhcurveto
          23 4 -17 -28 1 hvcurveto
          -40 -4 -38 -14 -45 vvcurveto
          -55 74 -67 49 35 26 21 53 6 vhcurveto
          104 -11 188 callsubr
        </CharString>
        <CharString name="dvD_NA">
          -94 -66 -98 callgsubr
          184 callgsubr
          -70 -268 12 -174 vvcurveto
          -104 94 -97 124 -16 vhcurveto
          -89 -36 -77 -46 -43 123 callgsubr
          17 -5 21 -10 25 vhcurveto
          41 26 42 29 33 30 rrcurveto
          16 -16 6 -21 -17 vvcurveto
          -29 -18 -27 -36 -8 vhcurveto
          -35 16 35 -19 36 hhcurveto
          51 33 38 50 56 -43 47 -53 29 hvcurveto
          19 26 11 28 29 vvcurveto
          47 -29 47 -52 -42 -33 -31 -46 -16 5 -17 7 -14 vhcurveto
          -6 -20 -21 -2 -20 hhcurveto
          -53 -55 31 62 hvcurveto
          131 273 -27 128 -10 callgsubr
        </CharString>
        <CharString name="dvD_R">
          -89 271 -115 -53 callsubr
          -337 784 -101 callgsubr
          184 callgsubr
          -70 -268 12 -174 -33 callsubr
        </CharString>
        <CharString name="dvD_RA">
          -89 -66 -98 callgsubr
          184 callgsubr
          -70 -268 12 -174 -33 callsubr
        </CharString>
        <CharString name="dvD_VA">
          -1 328 135 callsubr
          -388 565 217 callsubr
          -40 -18 -32 -32 -52 vvcurveto
          -103 134 -82 85 98 73 53 73 15 vhcurveto
          -23 25 30 -15 36 -44 callsubr
        </CharString>
        <CharString name="dvD_YA">
          44 416 95 callgsubr
          -54 -1 -46 -1 -41 vhcurveto
          -87 -34 -72 -89 -105 hhcurveto
          -35 -28 17 30 21 14 15 20 11 hvcurveto
          -7 17 17 -4 18 hhcurveto
          45 37 25 39 43 -46 28 -54 -25 -23 -3 -5 -20 hvcurveto
          -2 4 -1 4 5 60 148 -31 100 vvcurveto
          23 -11 24 -18 22 vhcurveto
          -346 -81 callsubr
          148 hlineto
          5 -5 4 -6 -6 -38 -152 22 -114 vvcurveto
          -38 19 -31 22 -24 vhcurveto
          -30 -22 -18 -31 -38 vvcurveto
          -83 106 -98 141 64 46 23 37 35 vhcurveto
          -1 -6 0 -5 -6 vvcurveto
          -59 27 -51 70 -103 callgsubr
          134 -79 callsubr
          -2 56 -37 28 vhcurveto
          167 -102 callgsubr
        </CharString>
        <CharString name="dvE">
          -7 -70 callsubr
          9 hlineto
          15 -25 0 -48 -39 -55 -2 -41 -37 -177 345 -24 -105 vvcurveto
          -27 -21 -18 -40 vhcurveto
          0 18 -78 86 55 32 41 49 vhcurveto
          174 -342 6 161 42 2 40 40 vvcurveto
          37 -2 56 -37 28 vhcurveto
          221 hlineto
          17 -19 18 -31 -54 vvcurveto
          -66 -46 -29 -49 -12 -12 2 3 -11 vhcurveto
          -68 4 53 -44 63 hhcurveto
          93 26 79 61 45 -16 66 -42 55 hvcurveto
          173 -102 callgsubr
        </CharString>
        <CharString name="dvEcandra">
          -7 319 145 callsubr
          -397 -78 -101 callgsubr
          9 hlineto
          15 -25 0 -48 -39 -55 -2 -41 -37 -177 345 -24 -105 vvcurveto
          -27 -21 -18 -40 vhcurveto
          0 18 -78 86 55 32 41 49 vhcurveto
          174 -342 6 161 42 2 40 40 vvcurveto
          37 -2 56 -37 28 vhcurveto
          221 hlineto
          17 -19 18 -31 -54 vvcurveto
          -66 -46 -29 -49 -12 -12 2 3 -11 vhcurveto
          -68 4 53 -44 63 hhcurveto
          93 26 79 61 45 -16 66 -42 55 hvcurveto
          173 -102 callgsubr
        </CharString>
        <CharString name="dvEight">
          -78 402 260 rmoveto
          -96 -54 -72 -30 -46 hhcurveto
          -54 -35 32 48 56 50 64 35 41 hvcurveto
          97 117 67 52 69 vvcurveto
          38 -25 33 -44 11 vhcurveto
          0 -63 -80 -159 -178 vhcurveto
          -48 -54 -21 -59 -55 vvcurveto
          -127 104 -109 148 127 57 73 64 38 -22 35 -42 17 vhcurveto
          endchar
        </CharString>
        <CharString name="dvEyelash">
          -70 -98 callgsubr
          296 -105 callgsubr
          149 -221 rmoveto
          -41 -40 -78 -30 -79 282 callsubr
          126 57 52 57 26 -12 30 -29 20 vhcurveto
          endchar
        </CharString>
        <CharString name="dvEyelash_HA">
          129 -70 -98 callgsubr
          456 73 callsubr
          -38 -20 1 -30 hhcurveto
          -98 -41 -50 -60 -1 hvcurveto
          -9 -29 -32 -5 -32 282 callsubr
          28 29 4 7 28 vhcurveto
          8 -10 rlineto
          -62 callsubr
        </CharString>
        <CharString name="dvEyelash_YA">
          242 608 552 -97 callgsubr
          20 110 -36 callsubr
          -557 -81 callsubr
          354 290 callsubr
          -114 -65 -116 -63 -61 16 28 -39 vhcurveto
          -12 -7 -8 -14 -16 vvcurveto
          -53 116 -65 117 19 19 2 3 20 vhcurveto
          -66 22 103 -78 99 hhcurveto
          23 callsubr
          hvcurveto
          56 callgsubr
          -37 28 vhcurveto
          170 -102 callgsubr
        </CharString>
        <CharString name="dvFive">
          -24 556 66 rmoveto
          -3 -10 -12 -1 -10 hhcurveto
          -72 -31 51 63 -20 hvcurveto
          34 22 23 34 47 vvcurveto
          66 -43 44 -46 -39 -37 -30 -56 -16 3 -19 6 -14 vhcurveto
          -9 -19 -27 -5 -25 hhcurveto
          -52 -34 37 48 118 126 120 104 34 hvcurveto
          17 -18 56 -76 -95 -156 -143 -143 -139 127 -99 135 13 14 1 2 13 vhcurveto
          -95 27 46 -110 86 hhcurveto
          56 20 39 32 18 -4 19 -7 14 hvcurveto
          endchar
        </CharString>
        <CharString name="dvFour">
          -55 245 112 rmoveto
          -36 -32 25 46 37 37 37 49 40 hvcurveto
          33 -34 23 -37 -42 vvcurveto
          -43 -35 -29 -39 vhcurveto
          129 532 rmoveto
          2 -9 1 -8 -8 vvcurveto
          -72 -79 -55 -79 -60 vhcurveto
          -42 33 -31 31 30 vvcurveto
          27 23 12 13 4 vhcurveto
          52 -40 37 -48 -43 -41 -31 -58 -70 74 -57 75 -58 vhcurveto
          -53 -46 -41 -52 -65 vvcurveto
          -90 90 -106 131 84 77 60 85 68 -56 59 -63 51 vhcurveto
          78 61 79 66 75 vvcurveto
          51 -35 44 -59 vhcurveto
          endchar
        </CharString>
        <CharString name="dvG">
          -245 -7 callgsubr
          204 -102 callgsubr
        </CharString>
        <CharString name="dvGA">
          20 -7 callgsubr
          189 hlineto
          -69 callgsubr
          -154 -5 -71 -78 vvcurveto
          -43 2 -109 104 -103 callsubr
          168 -105 callgsubr
          endchar
        </CharString>
        <CharString name="dvGH">
          -205 423 -42 callgsubr
          -382 126 callgsubr
          -27 -6 -12 -24 hvcurveto
          -1 7 -1 7 7 vvcurveto
          60 33 31 28 15 vhcurveto
          endchar
        </CharString>
        <CharString name="dvGHA">
          20 callsubr
          -87 102 -102 132 56 45 17 30 35 vhcurveto
          -6 -21 -3 -19 -17 vvcurveto
          -66 40 -35 57 -105 callsubr
        </CharString>
        <CharString name="dvGH_MA">
          421 641 431 -47 callsubr
          -218 164 rmoveto
          0 11 vlineto
          260 callgsubr
          -43 -15 -46 -2 callgsubr
          100 257 callgsubr
          -9 vlineto
          -382 39 callsubr
          -87 102 -102 132 75 69 46 57 36 vhcurveto
          -21 24 28 -15 28 -78 callsubr
        </CharString>
        <CharString name="dvGH_NA">
          20 callsubr
          -61 49 -66 74 -26 vhcurveto
          -70 -27 -51 -37 -37 123 callgsubr
          17 -5 19 -9 23 vhcurveto
          87 45 58 19 35 33 rrcurveto
          -5 -22 -2 -21 -16 vvcurveto
          -66 40 -35 57 -105 callsubr
        </CharString>
        <CharString name="dvGH_R">
          -205 423 -42 callgsubr
          -382 39 callsubr
          -73 70 -80 101 -11 vhcurveto
          -63 -23 -69 -20 -52 -8 rrcurveto
          -51 3 40 -44 60 hhcurveto
          70 148 81 87 84 hvcurveto
          37 39 25 39 34 vvcurveto
          27 -18 35 -55 8 vhcurveto
          -76 -31 -81 -59 -85 -2 callgsubr
          endchar
        </CharString>
        <CharString name="dvGH_RA">
          20 callsubr
          -73 70 -80 101 -11 vhcurveto
          -63 -23 -69 -20 -52 -8 157 callsubr
          57 122 69 100 92 hvcurveto
          -4 -21 -2 -20 -16 vvcurveto
          -66 40 -35 57 -105 callsubr
        </CharString>
        <CharString name="dvGH_YA">
          397 763 -101 callsubr
          -82 hmoveto
          29 callgsubr
          vvcurveto
          -52 -48 -30 -44 -29 vhcurveto
          -52 -34 -23 -63 -32 -49 rrcurveto
          -39 -26 -32 -30 -58 -2 callgsubr
          -291 117 rmoveto
          9 callsubr
          -87 102 -102 132 72 74 49 69 32 vhcurveto
          -49 50 71 -38 68 hhcurveto
          23 callsubr
          hvcurveto
          56 callgsubr
          -37 28 vhcurveto
          170 -102 callgsubr
        </CharString>
        <CharString name="dvG_BA">
          353 608 215 84 callsubr
          -215 324 173 callgsubr
          523 144 callsubr
          -104 127 52 callgsubr
          -97 113 -142 136 49 47 13 26 33 vhcurveto
          -4 -13 -3 -13 -14 vvcurveto
          -54 27 -55 73 -105 callsubr
        </CharString>
        <CharString name="dvG_BHA">
          409 644 133 callgsubr
          -26 -21 -7 -13 -17 hvcurveto
          20 -29 -43 0 -22 hhcurveto
          -365 -19 callsubr
          138 hlineto
          -55 3 35 -56 55 hhcurveto
          2 callgsubr
          161 hlineto
          -2 -47 -1 -37 -39 -99 callgsubr
        </CharString>
        <CharString name="dvG_BH_YA">
          727 1093 -101 callsubr
          -307 268 callsubr
          -75 -100 -28 -39 -40 vhcurveto
          -34 2 -39 3 -41 296 callsubr
          -28 -22 -8 -14 -17 hvcurveto
          22 -30 -45 0 -23 hhcurveto
          -365 -19 callsubr
          145 hlineto
          -55 3 35 -56 55 hhcurveto
          2 callgsubr
          97 hlineto
          13 11 1 1 9 hvcurveto
          -69 45 94 -66 91 hhcurveto
          23 callsubr
          hvcurveto
          56 callgsubr
          -37 28 vhcurveto
          170 -102 callgsubr
        </CharString>
        <CharString name="dvG_DA">
          241 -7 callgsubr
          193 302 callgsubr
          -76 -268 14 -189 vvcurveto
          -122 142 -115 134 14 14 1 2 13 vhcurveto
          -78 callgsubr
        </CharString>
        <CharString name="dvG_DHA">
          379 702 -8 callsubr
          -561 -19 callsubr
          190 255 callgsubr
          58 43 18 28 33 vhcurveto
          -4 -17 -3 -18 -18 -6 callsubr
        </CharString>
        <CharString name="dvG_DH_VA">
          711 660 5 callgsubr
          -560 -19 callsubr
          122 hlineto
          30 24 1 2 15 hvcurveto
          -9 118 callgsubr
        </CharString>
        <CharString name="dvG_DH_YA">
          755 1121 -24 callsubr
          -23 326 callsubr
          10 10 vvcurveto
          56 40 41 60 vhcurveto
          10 hlineto
          -71 callsubr
          14 -72 callgsubr
          -90 0 -36 vhcurveto
          -569 -19 callsubr
          145 hlineto
          21 20 1 2 13 hvcurveto
          -8 267 callsubr
          82 74 52 65 33 vhcurveto
          -48 50 70 -38 68 hhcurveto
          23 callsubr
          hvcurveto
          56 callgsubr
          -37 28 vhcurveto
          170 -102 callgsubr
        </CharString>
        <CharString name="dvG_GA">
          370 -7 callgsubr
          191 0 -80 callgsubr
          189 hlineto
          -69 callgsubr
          -154 -5 -71 -78 vvcurveto
          -43 2 -109 104 -103 callsubr
          168 -105 callgsubr
          endchar
        </CharString>
        <CharString name="dvG_GHA">
          389 761 28 callsubr
          -641 117 106 callgsubr
          200 255 callgsubr
          56 45 17 30 35 vhcurveto
          -6 -21 -3 -19 -17 vvcurveto
          -66 40 -35 57 -105 callsubr
        </CharString>
        <CharString name="dvG_JA">
          505 312 669 rmoveto
          -1 vlineto
          1 -10 -8 0 -7 hhcurveto
          -365 -19 callsubr
          204 1 hlineto
          -1 11 9 0 7 327 callgsubr
          -321 hlineto
          98 callsubr
          -74 callsubr
        </CharString>
        <CharString name="dvG_LA">
          492 -7 callgsubr
          191 0 473 hlineto
          15 -23 0 -44 -37 vvcurveto
          -18 vlineto
          15 -24 -28 8 -29 hhcurveto
          -44 -42 -18 -31 -32 hvcurveto
          36 -42 -53 21 -49 hhcurveto
          -99 -63 -68 -102 -143 130 -142 66 19 12 10 13 7 hvcurveto
          -96 callgsubr
        </CharString>
        <CharString name="dvG_MA">
          362 582 431 -47 callsubr
          -660 281 106 callgsubr
          173 0 38 callgsubr
        </CharString>
        <CharString name="dvG_NA">
          20 -78 669 54 callsubr
          176 hlineto
          -69 callgsubr
          vvcurveto
          -76 -2 -56 -1 -47 vhcurveto
          -55 -24 -251 -93 329 callsubr
          18 -5 20 -11 25 vhcurveto
          136 84 rlineto
          -7 -21 -4 -25 -23 vvcurveto
          -58 26 -57 75 -103 callsubr
          168 -105 callgsubr
          endchar
        </CharString>
        <CharString name="dvG_NNA">
          520 645 56 callsubr
          -567 117 106 callgsubr
          178 hlineto
          34 callgsubr
          171 89 callgsubr
        </CharString>
        <CharString name="dvG_N_YA">
          347 713 -101 callsubr
          -670 117 54 callsubr
          191 0 104 hlineto
          29 callgsubr
          -93 -155 -21 -62 vvcurveto
          -26 12 -29 19 -28 vhcurveto
          -102 -40 -195 -82 -71 123 callgsubr
          18 -5 20 -11 25 vhcurveto
          142 87 12 7 10 8 6 8 rlinecurve
          -39 48 61 -29 60 hhcurveto
          23 callsubr
          hvcurveto
          56 callgsubr
          -37 28 vhcurveto
          170 -102 callgsubr
        </CharString>
        <CharString name="dvG_R">
          -245 406 -42 callgsubr
          -365 hlineto
          109 callsubr
          201 -250 90 callgsubr
        </CharString>
        <CharString name="dvG_RA">
          20 -78 669 54 callsubr
          176 hlineto
          -69 callgsubr
          vvcurveto
          -62 -1 -49 -1 -41 273 callgsubr
          39 -43 59 hhcurveto
          28 83 18 112 121 hvcurveto
          -5 -18 -3 -19 -19 vvcurveto
          -58 26 -57 75 -103 callsubr
          168 -105 callgsubr
          endchar
        </CharString>
        <CharString name="dvG_R_YA">
          347 713 -101 callsubr
          -305 257 callgsubr
          -365 vlineto
          109 callsubr
          295 hlineto
          29 callgsubr
          -93 -155 -21 -62 vvcurveto
          -22 8 -24 15 -24 vhcurveto
          -64 -50 -116 -74 -122 -29 194 callsubr
          78 144 101 74 44 hvcurveto
          -42 49 64 -32 63 hhcurveto
          23 callsubr
          hvcurveto
          56 callgsubr
          -37 28 vhcurveto
          170 -102 callgsubr
        </CharString>
        <CharString name="dvG_SA">
          509 881 -35 callsubr
          -367 117 rmoveto
          -1 hlineto
          -365 -19 callsubr
          204 hlineto
          3 hlineto
          155 hlineto
          29 -22 15 -39 -39 vvcurveto
          -53 -29 -51 -63 -2 vhcurveto
          48 -15 -21 37 -44 hhcurveto
          -43 -20 -37 -33 -60 45 -45 52 -23 hvcurveto
          -99 29 53 -144 105 -87 callgsubr
        </CharString>
        <CharString name="dvG_VA">
          318 -7 callgsubr
          186 0 302 -33 callgsubr
          -93 108 -137 130 39 38 12 24 28 vhcurveto
          -5 -16 -3 -18 -18 vvcurveto
          -54 27 -55 73 -105 callsubr
        </CharString>
        <CharString name="dvG_YA">
          339 705 -101 callsubr
          -297 117 173 callgsubr
          300 53 callsubr
        </CharString>
        <CharString name="dvGx">
          -245 142 119 -75 callgsubr
          -220 550 106 callgsubr
          204 -102 callgsubr
        </CharString>
        <CharString name="dvGxA">
          20 142 119 -75 callgsubr
          -220 550 106 callgsubr
          189 hlineto
          -69 callgsubr
          -154 -5 -71 -78 vvcurveto
          -43 2 -109 104 -103 callsubr
          168 -105 callgsubr
          endchar
        </CharString>
        <CharString name="dvGx_R">
          -245 406 -42 callgsubr
          -365 hlineto
          109 callsubr
          26 -590 -75 callgsubr
          175 340 90 callgsubr
        </CharString>
        <CharString name="dvGx_RA">
          20 241 -38 -75 callgsubr
          -319 707 54 callsubr
          176 hlineto
          -69 callgsubr
          vvcurveto
          -62 -1 -49 -1 -41 273 callgsubr
          39 -43 59 hhcurveto
          28 83 18 112 121 hvcurveto
          -5 -18 -3 -19 -19 vvcurveto
          -58 26 -57 75 -103 callsubr
          168 -105 callgsubr
          endchar
        </CharString>
        <CharString name="dvH">
          -101 231 -161 -53 callsubr
          -296 830 -101 callgsubr
          230 73 callsubr
          -38 -20 1 -30 hhcurveto
          -99 -41 -51 -61 -42 21 -45 34 -38 hvcurveto
          -62 callsubr
        </CharString>
        <CharString name="dvHA">
          -101 -65 669 rmoveto
          -3 -6 -2 -13 -8 vvcurveto
          -90 90 0 36 vhcurveto
          230 hlineto
          20 -9 12 -19 -15 vvcurveto
          -15 -12 -13 -26 vhcurveto
          -38 -20 1 -30 hhcurveto
          -99 -41 -51 -61 -42 21 -45 34 -38 hvcurveto
          -62 callsubr
        </CharString>
        <CharString name="dvHA_mU">
          176 callgsubr
          -86 60 -77 85 -42 vhcurveto
          -12 -13 -6 -16 -16 vvcurveto
          -31 23 -30 43 -4 vhcurveto
          217 callgsubr
          84 67 57 70 vhcurveto
          180 -270 -33 155 135 callgsubr
        </CharString>
        <CharString name="dvHA_mUU">
          176 callgsubr
          -69 38 -63 59 -44 vhcurveto
          -50 -20 -35 -42 -57 vvcurveto
          196 callgsubr
          38 -36 57 -55 49 vhcurveto
          -106 93 -161 15 117 135 callgsubr
        </CharString>
        <CharString name="dvHA_mvR">
          -12 -54 callsubr
          255 311 callgsubr
          -9 -11 -26 vhcurveto
          -62 -4 2 -49 hhcurveto
          -99 -41 -51 -61 -43 22 -47 36 -38 hvcurveto
          -30 -32 -19 -43 -53 vvcurveto
          -156 152 -112 136 46 30 307 callgsubr
          -101 -99 51 106 92 90 59 81 19 7 -5 -9 hvcurveto
          -25 -48 -41 -51 vvcurveto
          -61 72 -75 105 70 53 48 59 41 -32 35 -47 3 vhcurveto
          -79 -20 -50 -26 -31 hhcurveto
          -14 -8 8 11 hvcurveto
          29 48 33 53 vvcurveto
          70 -81 64 -119 -38 -38 -9 -16 -33 vhcurveto
          -5 11 -3 12 11 vvcurveto
          26 16 22 49 vhcurveto
          49 17 -2 50 283 callgsubr
          235 -102 callgsubr
        </CharString>
        <CharString name="dvH_LA">
          108 -54 callsubr
          439 73 callsubr
          -129 -66 1 -102 hhcurveto
          -99 -41 -51 -61 -49 29 -55 47 -40 hvcurveto
          -46 -44 -28 -61 -78 vvcurveto
          -177 172 -147 155 51 34 17 33 7 -1 8 -3 9 vhcurveto
          -3 -13 -14 -1 -13 hhcurveto
          -130 -118 98 124 127 98 68 115 100 51 -43 -59 25 hvcurveto
          2 -10 -9 2 -10 hhcurveto
          -28 -22 -10 -15 -18 hvcurveto
          23 -27 -35 13 -35 hhcurveto
          -64 -50 -42 -66 -95 98 -61 50 17 8 9 12 3 hvcurveto
          -41 22 -41 33 50 vvcurveto
          37 26 26 32 10 10 -2 -4 7 vhcurveto
          -11 -20 -3 -16 -20 vvcurveto
          -32 24 -26 27 31 15 28 23 14 -2 14 -4 12 vhcurveto
          22 13 22 11 21 hhcurveto
          4 3 0 -1 4 hvcurveto
          4 -22 1 -24 -23 vvcurveto
          -8 0 -11 1 -11 vhcurveto
          -40 4 16 -53 65 hhcurveto
          9 12 1 4 13 hvcurveto
          -10 16 -3 40 30 vvcurveto
          18 -1 18 -2 17 vhcurveto
          175 -23 -137 130 -181 hhcurveto
          -61 -58 -14 -26 -47 hvcurveto
          -12 16 -9 19 19 vvcurveto
          26 16 22 49 vhcurveto
          102 91 -1 105 hhcurveto
          73 36 16 callsubr
        </CharString>
        <CharString name="dvH_MA">
          186 587 552 rmoveto
          14 -21 0 -41 -34 vvcurveto
          -128 -2 -84 -2 -71 vhcurveto
          -41 3 -45 2 -40 1 rrcurveto
          88 -35 -90 47 -85 hhcurveto
          -34 -33 -7 -13 -29 hvcurveto
          -5 10 -3 11 11 vvcurveto
          26 17 22 49 vhcurveto
          45 52 -2 46 283 callgsubr
          -492 -81 callsubr
          281 311 callgsubr
          -8 -11 -27 vhcurveto
          -56 -41 2 -45 hhcurveto
          -99 -41 -51 -61 -45 22 -43 35 -37 hvcurveto
          -30 -31 -18 -44 -55 vvcurveto
          -135 135 -113 152 191 callgsubr
          vhcurveto
          246 callsubr
          -88 -93 50 90 83 64 50 77 30 13 -15 -29 5 hvcurveto
          -33 -4 -30 -12 -34 vvcurveto
          -55 74 -67 49 31 21 19 49 5 vhcurveto
          110 -14 188 callsubr
        </CharString>
        <CharString name="dvH_NA">
          175 callsubr
          -162 169 -133 151 317 callsubr
          9 -3 11 -4 9 vhcurveto
          246 callsubr
          -109 -105 78 105 97 81 66 102 39 31 -11 -17 22 hvcurveto
          -78 -35 -122 -61 -54 237 callgsubr
          -9 22 vhcurveto
          81 51 rlineto
          -4 vlineto
          -26 -1 -23 -24 vvcurveto
          -35 2 -88 84 9 12 1 4 13 vhcurveto
          -10 15 -3 41 30 16 1 19 17 vvcurveto
          152 -162 113 -130 -51 -48 -10 -21 -40 vhcurveto
          -10 15 -6 16 16 vvcurveto
          26 16 22 49 vhcurveto
          70 65 -1 72 201 callsubr
          -78 0 -36 vhcurveto
          endchar
        </CharString>
        <CharString name="dvH_NNA">
          99 388 196 rmoveto
          6 -14 8 -37 -46 vvcurveto
          -69 -5 -37 -27 -32 0 32 54 51 -11 36 -32 15 vhcurveto
          10 26 30 5 33 hhcurveto
          -449 473 -101 callgsubr
          441 73 callsubr
          -168 -19 1 -112 hhcurveto
          -99 -41 -51 -61 -50 30 -57 49 -41 hvcurveto
          -44 -39 -27 -55 -72 vvcurveto
          -161 172 -130 147 317 callsubr
          9 -3 11 -4 9 vhcurveto
          246 callsubr
          -107 -106 78 108 55 27 48 45 31 hvcurveto
          -1 -35 -4 -34 -31 vvcurveto
          -70 77 -69 78 72 26 54 55 75 -27 53 -18 25 vhcurveto
          61 -23 50 -51 -63 -18 -1 -17 -16 vvcurveto
          -34 2 -86 82 10 11 1 5 12 vhcurveto
          -9 13 -3 40 30 16 1 17 17 vvcurveto
          153 -187 126 -144 -57 -54 -11 -23 -45 vhcurveto
          -14 17 -11 22 21 vvcurveto
          26 16 22 49 vhcurveto
          139 67 -1 94 hhcurveto
          74 35 16 callsubr
        </CharString>
        <CharString name="dvH_R">
          17 264 -257 -53 callsubr
          -329 926 26 callgsubr
        </CharString>
        <CharString name="dvH_RA">
          17 -65 669 26 callgsubr
        </CharString>
        <CharString name="dvH_VA">
          175 callsubr
          -175 169 -143 151 47 29 307 callgsubr
          -117 -115 80 127 97 81 66 102 92 51 -55 -58 hvcurveto
          -11 0 -11 -11 vvcurveto
          -45 -26 -45 -39 -55 hhcurveto
          -24 -26 13 27 25 27 15 25 25 14 -7 -3 6 hvcurveto
          7 10 4 16 12 vvcurveto
          42 -43 24 -46 -51 -54 -31 -71 -63 76 -90 90 43 41 16 32 26 vhcurveto
          -2 -9 -1 -8 -8 vvcurveto
          -43 27 -30 47 9 12 1 4 13 vhcurveto
          -10 15 -3 41 30 32 1 38 34 vvcurveto
          152 -166 113 -134 -51 -48 -10 -21 -40 vhcurveto
          -10 15 -6 16 16 vvcurveto
          26 16 24 49 vhcurveto
          70 65 -1 72 hhcurveto
          73 36 41 47 33 -16 35 -32 29 hvcurveto
          182 -102 callgsubr
        </CharString>
        <CharString name="dvH_YA">
          176 576 552 rmoveto
          15 -22 0 -43 -36 vvcurveto
          -96 -2 -68 -1 -58 vhcurveto
          -79 -34 -62 -76 -85 hhcurveto
          -16 -7 5 7 hvcurveto
          21 99 29 53 vvcurveto
          62 -94 66 -114 -39 -37 -8 -16 -33 vhcurveto
          -5 11 -3 11 11 vvcurveto
          26 16 22 49 vhcurveto
          49 18 -2 50 283 callgsubr
          -466 -81 callsubr
          255 311 callgsubr
          -9 -11 -26 vhcurveto
          -62 -5 2 -49 hhcurveto
          -99 -41 -51 -61 -42 21 -47 36 -38 hvcurveto
          -28 -30 -17 -41 -50 vvcurveto
          -142 134 -119 151 191 callgsubr
          vhcurveto
          246 callsubr
          -89 -93 54 98 93 88 47 76 18 22 -2 -13 hvcurveto
          -32 -101 -26 -42 vvcurveto
          -53 86 -77 84 64 47 30 38 33 vhcurveto
          -2 -8 -1 -7 -8 vvcurveto
          -50 28 -45 64 11 14 1 6 15 vhcurveto
          -11 17 -4 50 35 123 5 133 129 vvcurveto
          36 -1 54 -35 28 vhcurveto
          164 -102 callgsubr
        </CharString>
        <CharString name="dvI">
          -105 -70 callsubr
          261 hlineto
          13 -9 5 -11 -11 vvcurveto
          -19 -20 -9 -31 vhcurveto
          -27 -19 1 -20 255 callsubr
          36 36 7 19 hhcurveto
          22 13 -10 -16 -36 -67 -25 232 callsubr
          -56 40 -45 60 -29 hvcurveto
          -98 31 57 -129 115 hhcurveto
          47 40 30 45 26 -12 24 -19 16 hvcurveto
          -16 -19 -24 -5 -18 hhcurveto
          -53 -40 39 43 -27 hvcurveto
          -5 27 29 -3 30 hhcurveto
          101 71 55 88 104 -89 77 -91 hvcurveto
          -28 -36 -9 -27 hhcurveto
          -21 -25 7 24 40 71 0 31 hvcurveto
          19 23 -1 21 hhcurveto
          74 35 40 49 29 -12 32 -25 26 hvcurveto
          171 -102 callgsubr
        </CharString>
        <CharString name="dvII">
          -105 312 669 rmoveto
          -39 34 -47 44 54 vvcurveto
          30 20 19 26 36 14 225 callgsubr
          53 -43 69 -82 -67 -47 -54 -69 -73 43 -66 43 -33 hvcurveto
          -298 38 callsubr
          endchar
        </CharString>
        <CharString name="dvII_Anusvara">
          -105 310 669 rmoveto
          -29 21 -52 40 62 283 callsubr
          299 callgsubr
          1 -70 40 -61 41 -32 rrcurveto
          -295 38 callsubr
          -154 115 152 callgsubr
        </CharString>
        <CharString name="dvJ">
          159 callgsubr
          139 -100 rmoveto
          98 callsubr
          220 -102 callgsubr
        </CharString>
        <CharString name="dvJA">
          133 53 callgsubr
          301 callgsubr
          -321 hlineto
          98 callsubr
          -74 callsubr
        </CharString>
        <CharString name="dvJH">
          -44 605 -42 callgsubr
          -564 83 callsubr
          31 -9 27 -12 24 hvcurveto
          -13 33 38 -7 36 hhcurveto
          72 54 30 52 27 -14 27 -20 12 hvcurveto
          -30 -36 -36 -19 -86 -75 -61 23 -64 169 callsubr
          endchar
        </CharString>
        <CharString name="dvJHA">
          170 544 552 rmoveto
          15 -23 0 -44 -37 -45 -1 -35 -31 vvcurveto
          -25 -22 -35 -17 -51 -58 -49 23 -54 -32 -32 -8 -27 -66 callgsubr
          28 -7 24 -10 22 hvcurveto
          -9 22 21 -3 19 hhcurveto
          21 17 5 7 13 hvcurveto
          -5 -27 -3 -31 -29 vvcurveto
          -66 23 -62 80 -75 callsubr
        </CharString>
        <CharString name="dvJH_MA">
          548 768 431 -47 callsubr
          -149 164 rmoveto
          330 callgsubr
          -14 vhcurveto
          -41 -4 -22 -14 -20 -14 rrcurveto
          -22 -31 -27 -24 -87 -44 -36 7 -38 -32 -32 -8 -27 -66 callgsubr
          31 -8 26 -13 24 hvcurveto
          -5 17 19 -3 19 hhcurveto
          30 29 9 16 24 hvcurveto
          -34 27 39 -27 38 -78 callsubr
        </CharString>
        <CharString name="dvJH_NA">
          342 720 95 callgsubr
          -18 0 -16 -1 -15 vhcurveto
          -72 -66 -110 -13 -94 -51 -52 4 -49 -54 -29 -8 -31 -66 callgsubr
          40 -14 32 -18 30 hvcurveto
          -12 43 44 -4 37 hhcurveto
          77 67 29 26 37 hvcurveto
          -2 -18 -1 -19 -1 -20 rrcurveto
          -95 -38 -144 -66 -58 vvcurveto
          -54 76 -45 49 36 28 20 33 17 -5 19 -9 23 vhcurveto
          76 46 rlineto
          -7 -32 -6 -35 -32 vvcurveto
          -61 22 -52 72 -104 callsubr
          132 5 145 139 vvcurveto
          37 -2 56 -37 28 vhcurveto
          166 -102 callgsubr
        </CharString>
        <CharString name="dvJH_R">
          23 671 -42 callgsubr
          -630 83 callsubr
          40 -14 32 -18 30 hvcurveto
          -12 43 44 -4 37 hhcurveto
          70 54 17 17 34 hvcurveto
          -49 -73 -96 -42 -72 -22 rrcurveto
          -47 10 37 -34 50 hhcurveto
          103 75 110 105 50 -7 53 -34 46 hvcurveto
          -74 -65 -102 -12 -105 -51 -52 4 -49 -54 -29 -8 -31 hhcurveto
          -21 -25 6 24 37 71 0 31 hvcurveto
          22 27 -1 25 hhcurveto
          74 35 40 49 29 -12 32 -25 26 hvcurveto
          endchar
        </CharString>
        <CharString name="dvJH_RA">
          322 696 95 callgsubr
          -19 0 -16 -1 -14 vhcurveto
          -72 -63 -90 -13 -93 -51 -52 4 -49 -54 -29 -8 -31 -66 callgsubr
          40 -14 32 -18 30 hvcurveto
          -12 43 44 -4 37 hhcurveto
          74 55 27 25 31 hvcurveto
          -1 -16 -1 -17 -1 -17 -67 -44 -75 -39 -74 -22 rrcurveto
          -47 10 37 -34 50 hhcurveto
          47 46 32 47 34 hvcurveto
          -2 -10 -1 -11 -10 vvcurveto
          -42 16 -49 72 -70 callgsubr
        </CharString>
        <CharString name="dvJH_YA">
          540 906 -101 callsubr
          -82 hmoveto
          29 callgsubr
          vvcurveto
          -59 -57 -29 -45 -29 vhcurveto
          -40 -61 -26 -57 -83 -56 -46 8 -48 -32 -32 -8 -27 -66 callgsubr
          33 -10 28 -13 25 hvcurveto
          -6 19 21 -3 19 hhcurveto
          39 37 11 22 27 hvcurveto
          -57 42 83 -52 80 hhcurveto
          23 callsubr
          hvcurveto
          56 callgsubr
          -37 28 vhcurveto
          170 -102 callgsubr
        </CharString>
        <CharString name="dvJ_BA">
          469 724 215 84 callsubr
          -678 86 callgsubr
          780 144 callsubr
          -104 127 rcurveline
          -68 callsubr
          -70 -70 -35 -75 -19 vhcurveto
          70 -59 -65 1 -86 hhcurveto
          -86 173 callsubr
          106 -4 -6 -26 80 -98 rrcurveto
          -57 46 70 -46 77 hhcurveto
          49 47 13 26 33 hvcurveto
          -4 -13 -3 -13 -14 vvcurveto
          -54 27 -55 73 -105 callsubr
        </CharString>
        <CharString name="dvJ_DA">
          361 53 callgsubr
          692 321 callgsubr
          -16 -10 -15 -18 -11 vhcurveto
          -22 -36 -68 -12 -86 hhcurveto
          -342 hlineto
          98 callsubr
          80 hlineto
          32 25 2 3 21 hvcurveto
          -13 -20 -9 -23 -30 vvcurveto
          -117 139 -110 132 14 14 1 2 13 vhcurveto
          -78 callgsubr
        </CharString>
        <CharString name="dvJ_DDA">
          397 53 callgsubr
          736 -12 callgsubr
          -83 -49 -38 -61 -8 hvcurveto
          57 -64 -61 0 -100 hhcurveto
          -91 60 callsubr
          48 -12 13 vhcurveto
          105 -2 29 -8 66 -70 rrcurveto
          -39 37 50 -29 56 -3 callgsubr
        </CharString>
        <CharString name="dvJ_JA">
          596 -60 669 29 callsubr
        </CharString>
</ttFont>
